%TF.GenerationSoftware,KiCad,Pcbnew,(5.1.10)-1*%
%TF.CreationDate,2021-06-21T22:38:47-07:00*%
%TF.ProjectId,A1050,41313035-302e-46b6-9963-61645f706362,rev?*%
%TF.SameCoordinates,Original*%
%TF.FileFunction,Copper,L1,Top*%
%TF.FilePolarity,Positive*%
%FSLAX46Y46*%
G04 Gerber Fmt 4.6, Leading zero omitted, Abs format (unit mm)*
G04 Created by KiCad (PCBNEW (5.1.10)-1) date 2021-06-21 22:38:47*
%MOMM*%
%LPD*%
G01*
G04 APERTURE LIST*
%TA.AperFunction,ComponentPad*%
%ADD10C,1.600000*%
%TD*%
%TA.AperFunction,ComponentPad*%
%ADD11C,1.524000*%
%TD*%
%TA.AperFunction,ComponentPad*%
%ADD12O,1.524000X1.524000*%
%TD*%
%TA.AperFunction,ComponentPad*%
%ADD13O,1.600000X1.600000*%
%TD*%
%TA.AperFunction,ComponentPad*%
%ADD14R,1.600000X1.600000*%
%TD*%
%TA.AperFunction,ViaPad*%
%ADD15C,0.800000*%
%TD*%
%TA.AperFunction,Conductor*%
%ADD16C,0.250000*%
%TD*%
%TA.AperFunction,Conductor*%
%ADD17C,0.254000*%
%TD*%
%TA.AperFunction,Conductor*%
%ADD18C,0.100000*%
%TD*%
%TA.AperFunction,NonConductor*%
%ADD19C,0.254000*%
%TD*%
%TA.AperFunction,NonConductor*%
%ADD20C,0.100000*%
%TD*%
G04 APERTURE END LIST*
D10*
%TO.P,C9,2*%
%TO.N,/GND*%
X249555000Y-114998000D03*
%TO.P,C9,1*%
%TO.N,/Vcc*%
X249555000Y-109998000D03*
%TD*%
%TO.P,C8,2*%
%TO.N,/GND*%
X153209000Y-95631000D03*
%TO.P,C8,1*%
%TO.N,/Vcc*%
X148209000Y-95631000D03*
%TD*%
%TO.P,C7,2*%
%TO.N,/GND*%
X165464000Y-94678500D03*
%TO.P,C7,1*%
%TO.N,/Vcc*%
X160464000Y-94678500D03*
%TD*%
%TO.P,C6,2*%
%TO.N,/GND*%
X178482000Y-95631000D03*
%TO.P,C6,1*%
%TO.N,/Vcc*%
X173482000Y-95631000D03*
%TD*%
%TO.P,C5,2*%
%TO.N,/GND*%
X191309000Y-94361000D03*
%TO.P,C5,1*%
%TO.N,/Vcc*%
X186309000Y-94361000D03*
%TD*%
%TO.P,C4,2*%
%TO.N,/GND*%
X204072000Y-95631000D03*
%TO.P,C4,1*%
%TO.N,/Vcc*%
X199072000Y-95631000D03*
%TD*%
%TO.P,C3,2*%
%TO.N,/GND*%
X216709000Y-94361000D03*
%TO.P,C3,1*%
%TO.N,/Vcc*%
X211709000Y-94361000D03*
%TD*%
%TO.P,C2,2*%
%TO.N,/GND*%
X229409000Y-95694500D03*
%TO.P,C2,1*%
%TO.N,/Vcc*%
X224409000Y-95694500D03*
%TD*%
%TO.P,C1,2*%
%TO.N,/GND*%
X241855000Y-94361000D03*
%TO.P,C1,1*%
%TO.N,/Vcc*%
X236855000Y-94361000D03*
%TD*%
D11*
%TO.P,J1,2*%
%TO.N,/D15*%
X228219000Y-132461000D03*
%TO.P,J1,1*%
%TO.N,/GND*%
X232299000Y-132461000D03*
%TO.P,J1,3*%
%TO.N,/Vcc*%
X224379000Y-132461000D03*
%TO.P,J1,4*%
%TO.N,/D12*%
X220419000Y-132461000D03*
%TO.P,J1,5*%
%TO.N,/GND*%
X216459000Y-132461000D03*
%TO.P,J1,10*%
%TO.N,/D7*%
X196659000Y-132461000D03*
%TO.P,J1,9*%
%TO.N,/GND*%
X200619000Y-132461000D03*
%TO.P,J1,8*%
%TO.N,/D8*%
X204579000Y-132461000D03*
%TO.P,J1,6*%
%TO.N,/D11*%
X212499000Y-132461000D03*
%TO.P,J1,7*%
%TO.N,/Vcc*%
X208539000Y-132461000D03*
%TO.P,J1,18*%
%TO.N,/A4*%
X164979000Y-132461000D03*
%TO.P,J1,16*%
%TO.N,/D0*%
X172899000Y-132461000D03*
%TO.P,J1,17*%
%TO.N,/GND*%
X168939000Y-132461000D03*
%TO.P,J1,19*%
%TO.N,/A5*%
X161019000Y-132461000D03*
%TO.P,J1,20*%
%TO.N,/A6*%
X157059000Y-132461000D03*
%TO.P,J1,15*%
%TO.N,/Vcc*%
X176859000Y-132461000D03*
%TO.P,J1,14*%
%TO.N,/D3*%
X180819000Y-132461000D03*
%TO.P,J1,13*%
%TO.N,/GND*%
X184779000Y-132461000D03*
%TO.P,J1,11*%
%TO.N,/Vcc*%
X192699000Y-132461000D03*
%TO.P,J1,12*%
%TO.N,/D4*%
X188739000Y-132461000D03*
%TO.P,J1,28*%
%TO.N,/CASL0\u002A*%
X125379000Y-132461000D03*
%TO.P,J1,26*%
%TO.N,/CASU0\u002A*%
X133299000Y-132461000D03*
%TO.P,J1,27*%
%TO.N,/GND*%
X129339000Y-132461000D03*
%TO.P,J1,29*%
%TO.N,/Vcc*%
X121419000Y-132461000D03*
%TO.P,J1,30*%
X117459000Y-132461000D03*
%TO.P,J1,25*%
%TO.N,/GND*%
X137259000Y-132461000D03*
%TO.P,J1,24*%
X141219000Y-132461000D03*
%TO.P,J1,23*%
%TO.N,/RAS\u002A*%
X145179000Y-132461000D03*
%TO.P,J1,21*%
%TO.N,/A7*%
X153099000Y-132461000D03*
%TO.P,J1,22*%
%TO.N,/GND*%
X149139000Y-132461000D03*
%TO.P,J1,Z*%
X149139000Y-137541000D03*
%TO.P,J1,Y*%
%TO.N,/A0*%
X153099000Y-137541000D03*
%TO.P,J1,AA*%
%TO.N,/RRW\u002A*%
X145179000Y-137541000D03*
%TO.P,J1,U*%
%TO.N,/GND*%
X168939000Y-137541000D03*
%TO.P,J1,T*%
%TO.N,/D1*%
X172899000Y-137541000D03*
%TO.P,J1,V*%
%TO.N,/A3*%
X164979000Y-137541000D03*
%TO.P,J1,C*%
%TO.N,/Vcc*%
X224379000Y-137541000D03*
%TO.P,J1,H*%
X208539000Y-137541000D03*
%TO.P,J1,F*%
%TO.N,/D10*%
X212499000Y-137541000D03*
%TO.P,J1,D*%
%TO.N,/D13*%
X220419000Y-137541000D03*
%TO.P,J1,J*%
%TO.N,/D9*%
X204579000Y-137541000D03*
%TO.P,J1,BB*%
%TO.N,/GND*%
X141219000Y-137541000D03*
%TO.P,J1,CC*%
X137259000Y-137541000D03*
%TO.P,J1,JJ*%
%TO.N,/Vcc*%
X117459000Y-137541000D03*
%TO.P,J1,W*%
%TO.N,/A2*%
X161019000Y-137541000D03*
%TO.P,J1,HH*%
%TO.N,/Vcc*%
X121419000Y-137541000D03*
%TO.P,J1,E*%
%TO.N,/GND*%
X216459000Y-137541000D03*
D12*
%TO.P,J1,K*%
X200619000Y-137541000D03*
D11*
%TO.P,J1,EE*%
X129339000Y-137541000D03*
%TO.P,J1,N*%
%TO.N,/D5*%
X188739000Y-137541000D03*
%TO.P,J1,M*%
%TO.N,/Vcc*%
X192699000Y-137541000D03*
%TO.P,J1,R*%
%TO.N,/D2*%
X180819000Y-137541000D03*
%TO.P,J1,DD*%
%TO.N,/CASU1\u002A*%
X133299000Y-137541000D03*
%TO.P,J1,L*%
%TO.N,/D6*%
X196659000Y-137541000D03*
%TO.P,J1,FF*%
%TO.N,/CASL1\u002A*%
X125379000Y-137541000D03*
%TO.P,J1,A*%
%TO.N,/GND*%
X232299000Y-137541000D03*
%TO.P,J1,P*%
X184779000Y-137541000D03*
%TO.P,J1,S*%
%TO.N,/Vcc*%
X176859000Y-137541000D03*
%TO.P,J1,X*%
%TO.N,/A1*%
X157059000Y-137541000D03*
%TO.P,J1,B*%
%TO.N,/D14*%
X228339000Y-137541000D03*
%TD*%
D13*
%TO.P,U8,18*%
%TO.N,/GND*%
X146939000Y-122301000D03*
%TO.P,U8,9*%
%TO.N,/Vcc*%
X154559000Y-101981000D03*
%TO.P,U8,17*%
%TO.N,/D15*%
X146939000Y-119761000D03*
%TO.P,U8,8*%
%TO.N,/A4R*%
X154559000Y-104521000D03*
%TO.P,U8,16*%
%TO.N,/CASU1R\u002A*%
X146939000Y-117221000D03*
%TO.P,U8,7*%
%TO.N,/A5R*%
X154559000Y-107061000D03*
%TO.P,U8,15*%
%TO.N,/D14*%
X146939000Y-114681000D03*
%TO.P,U8,6*%
%TO.N,/A6R*%
X154559000Y-109601000D03*
%TO.P,U8,14*%
%TO.N,/A0R*%
X146939000Y-112141000D03*
%TO.P,U8,5*%
%TO.N,/RASR\u002A*%
X154559000Y-112141000D03*
%TO.P,U8,13*%
%TO.N,/A1R*%
X146939000Y-109601000D03*
%TO.P,U8,4*%
%TO.N,/RRWR\u002A*%
X154559000Y-114681000D03*
%TO.P,U8,12*%
%TO.N,/A2R*%
X146939000Y-107061000D03*
%TO.P,U8,3*%
%TO.N,/D13*%
X154559000Y-117221000D03*
%TO.P,U8,11*%
%TO.N,/A3R*%
X146939000Y-104521000D03*
%TO.P,U8,2*%
%TO.N,/D12*%
X154559000Y-119761000D03*
%TO.P,U8,10*%
%TO.N,/A7R*%
X146939000Y-101981000D03*
D14*
%TO.P,U8,1*%
%TO.N,/GND*%
X154559000Y-122301000D03*
%TD*%
D13*
%TO.P,U7,18*%
%TO.N,/GND*%
X159639000Y-122301000D03*
%TO.P,U7,9*%
%TO.N,/Vcc*%
X167259000Y-101981000D03*
%TO.P,U7,17*%
%TO.N,/D15*%
X159639000Y-119761000D03*
%TO.P,U7,8*%
%TO.N,/A4R*%
X167259000Y-104521000D03*
%TO.P,U7,16*%
%TO.N,/CASU0R\u002A*%
X159639000Y-117221000D03*
%TO.P,U7,7*%
%TO.N,/A5R*%
X167259000Y-107061000D03*
%TO.P,U7,15*%
%TO.N,/D14*%
X159639000Y-114681000D03*
%TO.P,U7,6*%
%TO.N,/A6R*%
X167259000Y-109601000D03*
%TO.P,U7,14*%
%TO.N,/A0R*%
X159639000Y-112141000D03*
%TO.P,U7,5*%
%TO.N,/RASR\u002A*%
X167259000Y-112141000D03*
%TO.P,U7,13*%
%TO.N,/A1R*%
X159639000Y-109601000D03*
%TO.P,U7,4*%
%TO.N,/RRWR\u002A*%
X167259000Y-114681000D03*
%TO.P,U7,12*%
%TO.N,/A2R*%
X159639000Y-107061000D03*
%TO.P,U7,3*%
%TO.N,/D13*%
X167259000Y-117221000D03*
%TO.P,U7,11*%
%TO.N,/A3R*%
X159639000Y-104521000D03*
%TO.P,U7,2*%
%TO.N,/D12*%
X167259000Y-119761000D03*
%TO.P,U7,10*%
%TO.N,/A7R*%
X159639000Y-101981000D03*
D14*
%TO.P,U7,1*%
%TO.N,/GND*%
X167259000Y-122301000D03*
%TD*%
D13*
%TO.P,U6,18*%
%TO.N,/GND*%
X172339000Y-122301000D03*
%TO.P,U6,9*%
%TO.N,/Vcc*%
X179959000Y-101981000D03*
%TO.P,U6,17*%
%TO.N,/D11*%
X172339000Y-119761000D03*
%TO.P,U6,8*%
%TO.N,/A4R*%
X179959000Y-104521000D03*
%TO.P,U6,16*%
%TO.N,/CASU1R\u002A*%
X172339000Y-117221000D03*
%TO.P,U6,7*%
%TO.N,/A5R*%
X179959000Y-107061000D03*
%TO.P,U6,15*%
%TO.N,/D10*%
X172339000Y-114681000D03*
%TO.P,U6,6*%
%TO.N,/A6R*%
X179959000Y-109601000D03*
%TO.P,U6,14*%
%TO.N,/A0R*%
X172339000Y-112141000D03*
%TO.P,U6,5*%
%TO.N,/RASR\u002A*%
X179959000Y-112141000D03*
%TO.P,U6,13*%
%TO.N,/A1R*%
X172339000Y-109601000D03*
%TO.P,U6,4*%
%TO.N,/RRWR\u002A*%
X179959000Y-114681000D03*
%TO.P,U6,12*%
%TO.N,/A2R*%
X172339000Y-107061000D03*
%TO.P,U6,3*%
%TO.N,/D9*%
X179959000Y-117221000D03*
%TO.P,U6,11*%
%TO.N,/A3R*%
X172339000Y-104521000D03*
%TO.P,U6,2*%
%TO.N,/D8*%
X179959000Y-119761000D03*
%TO.P,U6,10*%
%TO.N,/A7R*%
X172339000Y-101981000D03*
D14*
%TO.P,U6,1*%
%TO.N,/GND*%
X179959000Y-122301000D03*
%TD*%
D13*
%TO.P,U5,18*%
%TO.N,/GND*%
X185039000Y-122301000D03*
%TO.P,U5,9*%
%TO.N,/Vcc*%
X192659000Y-101981000D03*
%TO.P,U5,17*%
%TO.N,/D11*%
X185039000Y-119761000D03*
%TO.P,U5,8*%
%TO.N,/A4R*%
X192659000Y-104521000D03*
%TO.P,U5,16*%
%TO.N,/CASU0R\u002A*%
X185039000Y-117221000D03*
%TO.P,U5,7*%
%TO.N,/A5R*%
X192659000Y-107061000D03*
%TO.P,U5,15*%
%TO.N,/D10*%
X185039000Y-114681000D03*
%TO.P,U5,6*%
%TO.N,/A6R*%
X192659000Y-109601000D03*
%TO.P,U5,14*%
%TO.N,/A0R*%
X185039000Y-112141000D03*
%TO.P,U5,5*%
%TO.N,/RASR\u002A*%
X192659000Y-112141000D03*
%TO.P,U5,13*%
%TO.N,/A1R*%
X185039000Y-109601000D03*
%TO.P,U5,4*%
%TO.N,/RRWR\u002A*%
X192659000Y-114681000D03*
%TO.P,U5,12*%
%TO.N,/A2R*%
X185039000Y-107061000D03*
%TO.P,U5,3*%
%TO.N,/D9*%
X192659000Y-117221000D03*
%TO.P,U5,11*%
%TO.N,/A3R*%
X185039000Y-104521000D03*
%TO.P,U5,2*%
%TO.N,/D8*%
X192659000Y-119761000D03*
%TO.P,U5,10*%
%TO.N,/A7R*%
X185039000Y-101981000D03*
D14*
%TO.P,U5,1*%
%TO.N,/GND*%
X192659000Y-122301000D03*
%TD*%
D13*
%TO.P,U4,18*%
%TO.N,/GND*%
X197739000Y-122301000D03*
%TO.P,U4,9*%
%TO.N,/Vcc*%
X205359000Y-101981000D03*
%TO.P,U4,17*%
%TO.N,/D7*%
X197739000Y-119761000D03*
%TO.P,U4,8*%
%TO.N,/A4R*%
X205359000Y-104521000D03*
%TO.P,U4,16*%
%TO.N,/CASL1R\u002A*%
X197739000Y-117221000D03*
%TO.P,U4,7*%
%TO.N,/A5R*%
X205359000Y-107061000D03*
%TO.P,U4,15*%
%TO.N,/D6*%
X197739000Y-114681000D03*
%TO.P,U4,6*%
%TO.N,/A6R*%
X205359000Y-109601000D03*
%TO.P,U4,14*%
%TO.N,/A0R*%
X197739000Y-112141000D03*
%TO.P,U4,5*%
%TO.N,/RASR\u002A*%
X205359000Y-112141000D03*
%TO.P,U4,13*%
%TO.N,/A1R*%
X197739000Y-109601000D03*
%TO.P,U4,4*%
%TO.N,/RRWR\u002A*%
X205359000Y-114681000D03*
%TO.P,U4,12*%
%TO.N,/A2R*%
X197739000Y-107061000D03*
%TO.P,U4,3*%
%TO.N,/D5*%
X205359000Y-117221000D03*
%TO.P,U4,11*%
%TO.N,/A3R*%
X197739000Y-104521000D03*
%TO.P,U4,2*%
%TO.N,/D4*%
X205359000Y-119761000D03*
%TO.P,U4,10*%
%TO.N,/A7R*%
X197739000Y-101981000D03*
D14*
%TO.P,U4,1*%
%TO.N,/GND*%
X205359000Y-122301000D03*
%TD*%
D13*
%TO.P,U3,18*%
%TO.N,/GND*%
X210439000Y-122301000D03*
%TO.P,U3,9*%
%TO.N,/Vcc*%
X218059000Y-101981000D03*
%TO.P,U3,17*%
%TO.N,/D7*%
X210439000Y-119761000D03*
%TO.P,U3,8*%
%TO.N,/A4R*%
X218059000Y-104521000D03*
%TO.P,U3,16*%
%TO.N,/CASL0R\u002A*%
X210439000Y-117221000D03*
%TO.P,U3,7*%
%TO.N,/A5R*%
X218059000Y-107061000D03*
%TO.P,U3,15*%
%TO.N,/D6*%
X210439000Y-114681000D03*
%TO.P,U3,6*%
%TO.N,/A6R*%
X218059000Y-109601000D03*
%TO.P,U3,14*%
%TO.N,/A0R*%
X210439000Y-112141000D03*
%TO.P,U3,5*%
%TO.N,/RASR\u002A*%
X218059000Y-112141000D03*
%TO.P,U3,13*%
%TO.N,/A1R*%
X210439000Y-109601000D03*
%TO.P,U3,4*%
%TO.N,/RRWR\u002A*%
X218059000Y-114681000D03*
%TO.P,U3,12*%
%TO.N,/A2R*%
X210439000Y-107061000D03*
%TO.P,U3,3*%
%TO.N,/D5*%
X218059000Y-117221000D03*
%TO.P,U3,11*%
%TO.N,/A3R*%
X210439000Y-104521000D03*
%TO.P,U3,2*%
%TO.N,/D4*%
X218059000Y-119761000D03*
%TO.P,U3,10*%
%TO.N,/A7R*%
X210439000Y-101981000D03*
D14*
%TO.P,U3,1*%
%TO.N,/GND*%
X218059000Y-122301000D03*
%TD*%
D13*
%TO.P,U2,18*%
%TO.N,/GND*%
X223139000Y-122301000D03*
%TO.P,U2,9*%
%TO.N,/Vcc*%
X230759000Y-101981000D03*
%TO.P,U2,17*%
%TO.N,/D3*%
X223139000Y-119761000D03*
%TO.P,U2,8*%
%TO.N,/A4R*%
X230759000Y-104521000D03*
%TO.P,U2,16*%
%TO.N,/CASL1R\u002A*%
X223139000Y-117221000D03*
%TO.P,U2,7*%
%TO.N,/A5R*%
X230759000Y-107061000D03*
%TO.P,U2,15*%
%TO.N,/D2*%
X223139000Y-114681000D03*
%TO.P,U2,6*%
%TO.N,/A6R*%
X230759000Y-109601000D03*
%TO.P,U2,14*%
%TO.N,/A0R*%
X223139000Y-112141000D03*
%TO.P,U2,5*%
%TO.N,/RASR\u002A*%
X230759000Y-112141000D03*
%TO.P,U2,13*%
%TO.N,/A1R*%
X223139000Y-109601000D03*
%TO.P,U2,4*%
%TO.N,/RRWR\u002A*%
X230759000Y-114681000D03*
%TO.P,U2,12*%
%TO.N,/A2R*%
X223139000Y-107061000D03*
%TO.P,U2,3*%
%TO.N,/D1*%
X230759000Y-117221000D03*
%TO.P,U2,11*%
%TO.N,/A3R*%
X223139000Y-104521000D03*
%TO.P,U2,2*%
%TO.N,/D0*%
X230759000Y-119761000D03*
%TO.P,U2,10*%
%TO.N,/A7R*%
X223139000Y-101981000D03*
D14*
%TO.P,U2,1*%
%TO.N,/GND*%
X230759000Y-122301000D03*
%TD*%
D13*
%TO.P,U1,18*%
%TO.N,/GND*%
X235839000Y-122301000D03*
%TO.P,U1,9*%
%TO.N,/Vcc*%
X243459000Y-101981000D03*
%TO.P,U1,17*%
%TO.N,/D3*%
X235839000Y-119761000D03*
%TO.P,U1,8*%
%TO.N,/A4R*%
X243459000Y-104521000D03*
%TO.P,U1,16*%
%TO.N,/CASL0R\u002A*%
X235839000Y-117221000D03*
%TO.P,U1,7*%
%TO.N,/A5R*%
X243459000Y-107061000D03*
%TO.P,U1,15*%
%TO.N,/D2*%
X235839000Y-114681000D03*
%TO.P,U1,6*%
%TO.N,/A6R*%
X243459000Y-109601000D03*
%TO.P,U1,14*%
%TO.N,/A0R*%
X235839000Y-112141000D03*
%TO.P,U1,5*%
%TO.N,/RASR\u002A*%
X243459000Y-112141000D03*
%TO.P,U1,13*%
%TO.N,/A1R*%
X235839000Y-109601000D03*
%TO.P,U1,4*%
%TO.N,/RRWR\u002A*%
X243459000Y-114681000D03*
%TO.P,U1,12*%
%TO.N,/A2R*%
X235839000Y-107061000D03*
%TO.P,U1,3*%
%TO.N,/D1*%
X243459000Y-117221000D03*
%TO.P,U1,11*%
%TO.N,/A3R*%
X235839000Y-104521000D03*
%TO.P,U1,2*%
%TO.N,/D0*%
X243459000Y-119761000D03*
%TO.P,U1,10*%
%TO.N,/A7R*%
X235839000Y-101981000D03*
D14*
%TO.P,U1,1*%
%TO.N,/GND*%
X243459000Y-122301000D03*
%TD*%
D13*
%TO.P,RN2,16*%
%TO.N,/CASU0\u002A*%
X121539000Y-119761000D03*
%TO.P,RN2,8*%
%TO.N,Net-(RN2-Pad8)*%
X129159000Y-101981000D03*
%TO.P,RN2,15*%
%TO.N,/CASL0\u002A*%
X121539000Y-117221000D03*
%TO.P,RN2,7*%
%TO.N,Net-(RN2-Pad7)*%
X129159000Y-104521000D03*
%TO.P,RN2,14*%
%TO.N,/CASU1\u002A*%
X121539000Y-114681000D03*
%TO.P,RN2,6*%
%TO.N,/RASR\u002A*%
X129159000Y-107061000D03*
%TO.P,RN2,13*%
%TO.N,/CASL1\u002A*%
X121539000Y-112141000D03*
%TO.P,RN2,5*%
%TO.N,/RRWR\u002A*%
X129159000Y-109601000D03*
%TO.P,RN2,12*%
%TO.N,/RRW\u002A*%
X121539000Y-109601000D03*
%TO.P,RN2,4*%
%TO.N,/CASL1R\u002A*%
X129159000Y-112141000D03*
%TO.P,RN2,11*%
%TO.N,/RAS\u002A*%
X121539000Y-107061000D03*
%TO.P,RN2,3*%
%TO.N,/CASU1R\u002A*%
X129159000Y-114681000D03*
%TO.P,RN2,10*%
%TO.N,Net-(RN2-Pad10)*%
X121539000Y-104521000D03*
%TO.P,RN2,2*%
%TO.N,/CASL0R\u002A*%
X129159000Y-117221000D03*
%TO.P,RN2,9*%
%TO.N,Net-(RN2-Pad9)*%
X121539000Y-101981000D03*
D14*
%TO.P,RN2,1*%
%TO.N,/CASU0R\u002A*%
X129159000Y-119761000D03*
%TD*%
D13*
%TO.P,RN1,16*%
%TO.N,/A7*%
X134239000Y-119761000D03*
%TO.P,RN1,8*%
%TO.N,/A0R*%
X141859000Y-101981000D03*
%TO.P,RN1,15*%
%TO.N,/A6*%
X134239000Y-117221000D03*
%TO.P,RN1,7*%
%TO.N,/A1R*%
X141859000Y-104521000D03*
%TO.P,RN1,14*%
%TO.N,/A5*%
X134239000Y-114681000D03*
%TO.P,RN1,6*%
%TO.N,/A2R*%
X141859000Y-107061000D03*
%TO.P,RN1,13*%
%TO.N,/A4*%
X134239000Y-112141000D03*
%TO.P,RN1,5*%
%TO.N,/A3R*%
X141859000Y-109601000D03*
%TO.P,RN1,12*%
%TO.N,/A3*%
X134239000Y-109601000D03*
%TO.P,RN1,4*%
%TO.N,/A4R*%
X141859000Y-112141000D03*
%TO.P,RN1,11*%
%TO.N,/A2*%
X134239000Y-107061000D03*
%TO.P,RN1,3*%
%TO.N,/A5R*%
X141859000Y-114681000D03*
%TO.P,RN1,10*%
%TO.N,/A1*%
X134239000Y-104521000D03*
%TO.P,RN1,2*%
%TO.N,/A6R*%
X141859000Y-117221000D03*
%TO.P,RN1,9*%
%TO.N,/A0*%
X134239000Y-101981000D03*
D14*
%TO.P,RN1,1*%
%TO.N,/A7R*%
X141859000Y-119761000D03*
%TD*%
D15*
%TO.N,/D14*%
X151731400Y-114949100D03*
%TO.N,/D10*%
X202186600Y-136188200D03*
X170826800Y-117586800D03*
X170468800Y-114681000D03*
X181471200Y-113942600D03*
%TO.N,/D0*%
X182157400Y-133083100D03*
%TO.N,/RAS\u002A*%
X134618500Y-121796200D03*
%TO.N,/CASL1R\u002A*%
X183334500Y-114202600D03*
X174428700Y-112011700D03*
%TD*%
D16*
%TO.N,/GND*%
X223139000Y-122301000D02*
X218059000Y-122301000D01*
X230759000Y-122301000D02*
X223139000Y-122301000D01*
X200619000Y-137541000D02*
X199531700Y-137541000D01*
X199531700Y-137541000D02*
X198398100Y-138674600D01*
X198398100Y-138674600D02*
X185912600Y-138674600D01*
X185912600Y-138674600D02*
X184779000Y-137541000D01*
X170037100Y-136442900D02*
X183680900Y-136442900D01*
X183680900Y-136442900D02*
X184779000Y-137541000D01*
X165464000Y-94678500D02*
X164323300Y-95819200D01*
X164323300Y-95819200D02*
X153397200Y-95819200D01*
X153397200Y-95819200D02*
X153209000Y-95631000D01*
X178482000Y-95631000D02*
X177344200Y-94493200D01*
X177344200Y-94493200D02*
X165649300Y-94493200D01*
X165649300Y-94493200D02*
X165464000Y-94678500D01*
X210439000Y-122301000D02*
X205359000Y-122301000D01*
X232299000Y-137541000D02*
X231201500Y-136443500D01*
X231201500Y-136443500D02*
X217556500Y-136443500D01*
X217556500Y-136443500D02*
X216459000Y-137541000D01*
X179959000Y-122301000D02*
X178833700Y-122301000D01*
X178833700Y-122301000D02*
X173464300Y-122301000D01*
X185039000Y-122301000D02*
X179959000Y-122301000D01*
X172339000Y-122301000D02*
X173464300Y-122301000D01*
X168939000Y-137541000D02*
X170037100Y-136442900D01*
X168939000Y-132461000D02*
X170037100Y-133559100D01*
X170037100Y-133559100D02*
X170037100Y-136442900D01*
X167259000Y-122301000D02*
X160764300Y-122301000D01*
X148051600Y-136453600D02*
X148051600Y-133548400D01*
X148051600Y-133548400D02*
X149139000Y-132461000D01*
X149139000Y-137541000D02*
X148051600Y-136453600D01*
X148051600Y-136453600D02*
X142306400Y-136453600D01*
X142306400Y-136453600D02*
X141219000Y-137541000D01*
X235839000Y-122301000D02*
X230759000Y-122301000D01*
X141219000Y-137541000D02*
X137259000Y-137541000D01*
X241855000Y-94361000D02*
X240521500Y-95694500D01*
X240521500Y-95694500D02*
X229409000Y-95694500D01*
X205359000Y-122301000D02*
X198864300Y-122301000D01*
X197739000Y-122301000D02*
X198864300Y-122301000D01*
X159639000Y-122301000D02*
X160764300Y-122301000D01*
X204072000Y-95631000D02*
X202802000Y-94361000D01*
X202802000Y-94361000D02*
X191309000Y-94361000D01*
X229409000Y-95694500D02*
X228075500Y-94361000D01*
X228075500Y-94361000D02*
X216709000Y-94361000D01*
X141219000Y-132461000D02*
X137259000Y-132461000D01*
X159639000Y-122301000D02*
X154559000Y-122301000D01*
X197739000Y-122301000D02*
X192659000Y-122301000D01*
%TO.N,/D15*%
X159639000Y-120886300D02*
X167933400Y-120886300D01*
X167933400Y-120886300D02*
X168384400Y-121337300D01*
X168384400Y-121337300D02*
X168384400Y-122356700D01*
X168384400Y-122356700D02*
X178173800Y-132146100D01*
X178173800Y-132146100D02*
X178173800Y-132726600D01*
X178173800Y-132726600D02*
X180775100Y-135327900D01*
X180775100Y-135327900D02*
X199945200Y-135327900D01*
X199945200Y-135327900D02*
X203291900Y-138674600D01*
X203291900Y-138674600D02*
X204988200Y-138674600D01*
X204988200Y-138674600D02*
X206130100Y-137532700D01*
X206130100Y-137532700D02*
X206130100Y-137135700D01*
X206130100Y-137135700D02*
X209057200Y-134208600D01*
X209057200Y-134208600D02*
X226471400Y-134208600D01*
X226471400Y-134208600D02*
X228219000Y-132461000D01*
X159639000Y-120886300D02*
X149189600Y-120886300D01*
X149189600Y-120886300D02*
X148064300Y-119761000D01*
X159639000Y-119761000D02*
X159639000Y-120886300D01*
X146939000Y-119761000D02*
X148064300Y-119761000D01*
%TO.N,/D14*%
X146939000Y-114681000D02*
X148064300Y-114681000D01*
X151731400Y-114949100D02*
X148332400Y-114949100D01*
X148332400Y-114949100D02*
X148064300Y-114681000D01*
%TO.N,/D12*%
X167259000Y-119761000D02*
X166133700Y-119761000D01*
X166133700Y-119761000D02*
X164997400Y-118624700D01*
X164997400Y-118624700D02*
X158685600Y-118624700D01*
X158685600Y-118624700D02*
X157549300Y-119761000D01*
X157549300Y-119761000D02*
X154559000Y-119761000D01*
%TO.N,/D10*%
X170826800Y-117586800D02*
X170826800Y-124049700D01*
X170826800Y-124049700D02*
X178624200Y-131847100D01*
X178624200Y-131847100D02*
X178624200Y-132483900D01*
X178624200Y-132483900D02*
X180961200Y-134820900D01*
X180961200Y-134820900D02*
X200819300Y-134820900D01*
X200819300Y-134820900D02*
X202186600Y-136188200D01*
X185039000Y-114681000D02*
X183913700Y-114681000D01*
X181471200Y-113942600D02*
X182456500Y-114927900D01*
X182456500Y-114927900D02*
X183666800Y-114927900D01*
X183666800Y-114927900D02*
X183913700Y-114681000D01*
X172339000Y-114681000D02*
X170468800Y-114681000D01*
%TO.N,/D9*%
X186210100Y-118346300D02*
X182209600Y-118346300D01*
X182209600Y-118346300D02*
X181084300Y-117221000D01*
X191533700Y-117221000D02*
X190408400Y-118346300D01*
X190408400Y-118346300D02*
X186210100Y-118346300D01*
X186210100Y-118346300D02*
X186210100Y-125204500D01*
X186210100Y-125204500D02*
X179720200Y-131694400D01*
X179720200Y-131694400D02*
X179720200Y-132942900D01*
X179720200Y-132942900D02*
X180969800Y-134192500D01*
X180969800Y-134192500D02*
X201230500Y-134192500D01*
X201230500Y-134192500D02*
X204579000Y-137541000D01*
X179959000Y-117221000D02*
X181084300Y-117221000D01*
X192659000Y-117221000D02*
X191533700Y-117221000D01*
%TO.N,/D7*%
X197739000Y-119761000D02*
X198864300Y-119761000D01*
X210439000Y-119761000D02*
X209313700Y-119761000D01*
X209313700Y-119761000D02*
X208188400Y-120886300D01*
X208188400Y-120886300D02*
X199989600Y-120886300D01*
X199989600Y-120886300D02*
X198864300Y-119761000D01*
%TO.N,/D3*%
X223139000Y-119761000D02*
X224264300Y-119761000D01*
X235839000Y-119761000D02*
X234713700Y-119761000D01*
X234713700Y-119761000D02*
X233588400Y-120886300D01*
X233588400Y-120886300D02*
X225389600Y-120886300D01*
X225389600Y-120886300D02*
X224264300Y-119761000D01*
X223139000Y-119761000D02*
X222013700Y-119761000D01*
X222013700Y-119761000D02*
X220888400Y-120886300D01*
X220888400Y-120886300D02*
X215542800Y-120886300D01*
X215542800Y-120886300D02*
X208231800Y-128197300D01*
X208231800Y-128197300D02*
X185082700Y-128197300D01*
X185082700Y-128197300D02*
X180819000Y-132461000D01*
%TO.N,/D2*%
X236964300Y-114681000D02*
X240916100Y-118632800D01*
X240916100Y-118632800D02*
X243924800Y-118632800D01*
X243924800Y-118632800D02*
X244588900Y-119296900D01*
X244588900Y-119296900D02*
X244588900Y-120236100D01*
X244588900Y-120236100D02*
X243936400Y-120888600D01*
X243936400Y-120888600D02*
X241624600Y-120888600D01*
X241624600Y-120888600D02*
X227139300Y-135373900D01*
X227139300Y-135373900D02*
X208528800Y-135373900D01*
X208528800Y-135373900D02*
X206580400Y-137322300D01*
X206580400Y-137322300D02*
X206580400Y-137720400D01*
X206580400Y-137720400D02*
X205175800Y-139125000D01*
X205175800Y-139125000D02*
X182403000Y-139125000D01*
X182403000Y-139125000D02*
X180819000Y-137541000D01*
X235839000Y-114681000D02*
X236964300Y-114681000D01*
%TO.N,/D0*%
X236980900Y-119761000D02*
X236980900Y-122792800D01*
X236980900Y-122792800D02*
X230386900Y-129386800D01*
X230386900Y-129386800D02*
X185853700Y-129386800D01*
X185853700Y-129386800D02*
X182157400Y-133083100D01*
X236980900Y-119761000D02*
X242333700Y-119761000D01*
X231884300Y-119761000D02*
X233009600Y-118635700D01*
X233009600Y-118635700D02*
X236418300Y-118635700D01*
X236418300Y-118635700D02*
X236980900Y-119198300D01*
X236980900Y-119198300D02*
X236980900Y-119761000D01*
X243459000Y-119761000D02*
X242333700Y-119761000D01*
X230759000Y-119761000D02*
X231884300Y-119761000D01*
%TO.N,/D1*%
X243459000Y-117221000D02*
X245050000Y-118812000D01*
X245050000Y-118812000D02*
X245050000Y-122841500D01*
X245050000Y-122841500D02*
X238666900Y-129224600D01*
X238666900Y-129224600D02*
X233925500Y-129224600D01*
X233925500Y-129224600D02*
X227325900Y-135824200D01*
X227325900Y-135824200D02*
X208715400Y-135824200D01*
X208715400Y-135824200D02*
X207190000Y-137349600D01*
X207190000Y-137349600D02*
X207190000Y-137784400D01*
X207190000Y-137784400D02*
X205359700Y-139614700D01*
X205359700Y-139614700D02*
X174972700Y-139614700D01*
X174972700Y-139614700D02*
X172899000Y-137541000D01*
%TO.N,/A4*%
X134239000Y-112141000D02*
X133113700Y-112141000D01*
X133113700Y-112141000D02*
X133113700Y-112422300D01*
X133113700Y-112422300D02*
X129585000Y-115951000D01*
X129585000Y-115951000D02*
X128825100Y-115951000D01*
X128825100Y-115951000D02*
X127542900Y-117233200D01*
X127542900Y-117233200D02*
X127542900Y-120842300D01*
X127542900Y-120842300D02*
X132026100Y-125325500D01*
X132026100Y-125325500D02*
X136336000Y-125325500D01*
X136336000Y-125325500D02*
X144589400Y-133578900D01*
X144589400Y-133578900D02*
X146172700Y-133578900D01*
X146172700Y-133578900D02*
X148424500Y-131327100D01*
X148424500Y-131327100D02*
X149588900Y-131327100D01*
X149588900Y-131327100D02*
X152310300Y-134048500D01*
X152310300Y-134048500D02*
X163391500Y-134048500D01*
X163391500Y-134048500D02*
X164979000Y-132461000D01*
%TO.N,/A5*%
X134239000Y-114681000D02*
X133113700Y-114681000D01*
X133113700Y-114681000D02*
X133113700Y-114962300D01*
X133113700Y-114962300D02*
X129440400Y-118635600D01*
X129440400Y-118635600D02*
X128160200Y-118635600D01*
X128160200Y-118635600D02*
X128033600Y-118762200D01*
X128033600Y-118762200D02*
X128033600Y-120696100D01*
X128033600Y-120696100D02*
X128235600Y-120898100D01*
X128235600Y-120898100D02*
X135390800Y-120898100D01*
X135390800Y-120898100D02*
X144187700Y-129695000D01*
X144187700Y-129695000D02*
X148593700Y-129695000D01*
X148593700Y-129695000D02*
X152496800Y-133598100D01*
X152496800Y-133598100D02*
X159881900Y-133598100D01*
X159881900Y-133598100D02*
X161019000Y-132461000D01*
%TO.N,/A6*%
X157059000Y-132461000D02*
X148693800Y-124095800D01*
X148693800Y-124095800D02*
X142239100Y-124095800D01*
X142239100Y-124095800D02*
X135364300Y-117221000D01*
X134239000Y-117221000D02*
X135364300Y-117221000D01*
%TO.N,/A7*%
X153099000Y-132461000D02*
X147931100Y-127293100D01*
X147931100Y-127293100D02*
X142896400Y-127293100D01*
X142896400Y-127293100D02*
X135364300Y-119761000D01*
X134239000Y-119761000D02*
X135364300Y-119761000D01*
%TO.N,/RAS\u002A*%
X145179000Y-132461000D02*
X145179000Y-132356700D01*
X145179000Y-132356700D02*
X134618500Y-121796200D01*
%TO.N,/CASU0\u002A*%
X121539000Y-119761000D02*
X121539000Y-120886300D01*
X121539000Y-120886300D02*
X121724300Y-120886300D01*
X121724300Y-120886300D02*
X133299000Y-132461000D01*
%TO.N,/Vcc*%
X224379000Y-132461000D02*
X223291600Y-133548400D01*
X223291600Y-133548400D02*
X209626400Y-133548400D01*
X209626400Y-133548400D02*
X208539000Y-132461000D01*
X208539000Y-132461000D02*
X207411100Y-133588900D01*
X207411100Y-133588900D02*
X193826900Y-133588900D01*
X193826900Y-133588900D02*
X192699000Y-132461000D01*
X117459000Y-132461000D02*
X119366000Y-132461000D01*
X119366000Y-132461000D02*
X120392500Y-131434500D01*
X120392500Y-131434500D02*
X121419000Y-132461000D01*
X148209000Y-95631000D02*
X146458500Y-95631000D01*
X146458500Y-95631000D02*
X136298500Y-105791000D01*
X136298500Y-105791000D02*
X128762200Y-105791000D01*
X128762200Y-105791000D02*
X127092500Y-107460700D01*
X127092500Y-107460700D02*
X127092500Y-113265000D01*
X127092500Y-113265000D02*
X121866500Y-118491000D01*
X121866500Y-118491000D02*
X121186900Y-118491000D01*
X121186900Y-118491000D02*
X120392500Y-119285400D01*
X120392500Y-119285400D02*
X120392500Y-131434500D01*
X117459000Y-137541000D02*
X117459000Y-132461000D01*
X224379000Y-137541000D02*
X223249100Y-138670900D01*
X223249100Y-138670900D02*
X209668900Y-138670900D01*
X209668900Y-138670900D02*
X208539000Y-137541000D01*
X192659000Y-101981000D02*
X193784300Y-101981000D01*
X199072000Y-95631000D02*
X193784300Y-100918700D01*
X193784300Y-100918700D02*
X193784300Y-101981000D01*
X173586200Y-96779100D02*
X168384300Y-101981000D01*
X178833700Y-101981000D02*
X173631800Y-96779100D01*
X173631800Y-96779100D02*
X173586200Y-96779100D01*
X173586200Y-96779100D02*
X173586200Y-95735200D01*
X173586200Y-95735200D02*
X173482000Y-95631000D01*
X167259000Y-101981000D02*
X168384300Y-101981000D01*
X179959000Y-101981000D02*
X178833700Y-101981000D01*
%TO.N,/A4R*%
X167259000Y-104521000D02*
X161401200Y-104521000D01*
X161401200Y-104521000D02*
X160270800Y-103390600D01*
X160270800Y-103390600D02*
X157597200Y-103390600D01*
X157597200Y-103390600D02*
X156466800Y-104521000D01*
X156466800Y-104521000D02*
X155684300Y-104521000D01*
X154559000Y-104521000D02*
X155684300Y-104521000D01*
X243459000Y-104521000D02*
X242333700Y-104521000D01*
X242333700Y-104521000D02*
X241200500Y-103387800D01*
X241200500Y-103387800D02*
X234920600Y-103387800D01*
X234920600Y-103387800D02*
X233787400Y-104521000D01*
X233787400Y-104521000D02*
X230759000Y-104521000D01*
%TO.N,/CASL0R\u002A*%
X210439000Y-117221000D02*
X209313700Y-117221000D01*
X129159000Y-117221000D02*
X132824300Y-113555700D01*
X132824300Y-113555700D02*
X138864200Y-113555700D01*
X138864200Y-113555700D02*
X141404200Y-116095700D01*
X141404200Y-116095700D02*
X193173500Y-116095700D01*
X193173500Y-116095700D02*
X195424100Y-118346300D01*
X195424100Y-118346300D02*
X208188400Y-118346300D01*
X208188400Y-118346300D02*
X209313700Y-117221000D01*
X235839000Y-117221000D02*
X233294300Y-117221000D01*
X233294300Y-117221000D02*
X232169000Y-118346300D01*
X232169000Y-118346300D02*
X212689600Y-118346300D01*
X212689600Y-118346300D02*
X211564300Y-117221000D01*
X210439000Y-117221000D02*
X211564300Y-117221000D01*
%TO.N,/A5R*%
X154559000Y-107061000D02*
X155684300Y-107061000D01*
X155684300Y-107061000D02*
X156134700Y-106610600D01*
X156134700Y-106610600D02*
X157554100Y-106610600D01*
X157554100Y-106610600D02*
X158230000Y-105934700D01*
X158230000Y-105934700D02*
X160274900Y-105934700D01*
X160274900Y-105934700D02*
X161401200Y-107061000D01*
X161401200Y-107061000D02*
X167259000Y-107061000D01*
X167259000Y-107061000D02*
X168384300Y-107061000D01*
X178833700Y-107061000D02*
X177708400Y-105935700D01*
X177708400Y-105935700D02*
X169509600Y-105935700D01*
X169509600Y-105935700D02*
X168384300Y-107061000D01*
X218059000Y-107061000D02*
X216933700Y-107061000D01*
X205359000Y-107061000D02*
X206484300Y-107061000D01*
X206484300Y-107061000D02*
X207609600Y-105935700D01*
X207609600Y-105935700D02*
X215808400Y-105935700D01*
X215808400Y-105935700D02*
X216933700Y-107061000D01*
X204796400Y-107061000D02*
X205359000Y-107061000D01*
X204796400Y-107061000D02*
X204233700Y-107061000D01*
X230759000Y-107061000D02*
X229633700Y-107061000D01*
X218059000Y-107061000D02*
X219184300Y-107061000D01*
X219184300Y-107061000D02*
X220309600Y-105935700D01*
X220309600Y-105935700D02*
X228508400Y-105935700D01*
X228508400Y-105935700D02*
X229633700Y-107061000D01*
X243459000Y-107061000D02*
X242333700Y-107061000D01*
X230759000Y-107061000D02*
X231884300Y-107061000D01*
X231884300Y-107061000D02*
X233009600Y-105935700D01*
X233009600Y-105935700D02*
X241208400Y-105935700D01*
X241208400Y-105935700D02*
X242333700Y-107061000D01*
X179959000Y-107061000D02*
X178833700Y-107061000D01*
X180521700Y-107061000D02*
X179959000Y-107061000D01*
X180521700Y-107061000D02*
X181084300Y-107061000D01*
X192659000Y-107061000D02*
X191533700Y-107061000D01*
X191533700Y-107061000D02*
X190408400Y-105935700D01*
X190408400Y-105935700D02*
X182209600Y-105935700D01*
X182209600Y-105935700D02*
X181084300Y-107061000D01*
X193221700Y-107061000D02*
X192659000Y-107061000D01*
X193221700Y-107061000D02*
X193784300Y-107061000D01*
X204233700Y-107061000D02*
X203108400Y-105935700D01*
X203108400Y-105935700D02*
X194909600Y-105935700D01*
X194909600Y-105935700D02*
X193784300Y-107061000D01*
%TO.N,/A6R*%
X205359000Y-109601000D02*
X206484300Y-109601000D01*
X206484300Y-109601000D02*
X207617500Y-110734200D01*
X207617500Y-110734200D02*
X211068000Y-110734200D01*
X211068000Y-110734200D02*
X212201200Y-109601000D01*
X212201200Y-109601000D02*
X218059000Y-109601000D01*
X154559000Y-109601000D02*
X155684300Y-109601000D01*
X155684300Y-109601000D02*
X156817500Y-108467800D01*
X156817500Y-108467800D02*
X160268000Y-108467800D01*
X160268000Y-108467800D02*
X161401200Y-109601000D01*
X161401200Y-109601000D02*
X167259000Y-109601000D01*
X230759000Y-109601000D02*
X231884300Y-109601000D01*
X243459000Y-109601000D02*
X242333700Y-109601000D01*
X242333700Y-109601000D02*
X241208400Y-110726300D01*
X241208400Y-110726300D02*
X233009600Y-110726300D01*
X233009600Y-110726300D02*
X231884300Y-109601000D01*
%TO.N,/A0R*%
X172339000Y-112141000D02*
X173464300Y-112141000D01*
X173464300Y-112141000D02*
X173464300Y-111859600D01*
X173464300Y-111859600D02*
X174308200Y-111015700D01*
X174308200Y-111015700D02*
X182788400Y-111015700D01*
X182788400Y-111015700D02*
X183913700Y-112141000D01*
X160764300Y-112141000D02*
X161893600Y-113270300D01*
X161893600Y-113270300D02*
X169065500Y-113270300D01*
X169065500Y-113270300D02*
X170194800Y-112141000D01*
X170194800Y-112141000D02*
X172339000Y-112141000D01*
X185039000Y-112141000D02*
X183913700Y-112141000D01*
X146939000Y-112141000D02*
X148064300Y-112141000D01*
X223139000Y-112141000D02*
X222013700Y-112141000D01*
X210439000Y-112141000D02*
X211564300Y-112141000D01*
X211564300Y-112141000D02*
X212689600Y-111015700D01*
X212689600Y-111015700D02*
X220888400Y-111015700D01*
X220888400Y-111015700D02*
X222013700Y-112141000D01*
X158513700Y-112141000D02*
X157388400Y-113266300D01*
X157388400Y-113266300D02*
X149189600Y-113266300D01*
X149189600Y-113266300D02*
X148064300Y-112141000D01*
X159639000Y-112141000D02*
X158513700Y-112141000D01*
X160201700Y-112141000D02*
X159639000Y-112141000D01*
X160201700Y-112141000D02*
X160764300Y-112141000D01*
X223139000Y-112141000D02*
X224264300Y-112141000D01*
X224264300Y-112141000D02*
X225390600Y-111014700D01*
X225390600Y-111014700D02*
X231394900Y-111014700D01*
X231394900Y-111014700D02*
X232521200Y-112141000D01*
X232521200Y-112141000D02*
X235839000Y-112141000D01*
X197739000Y-112141000D02*
X196613700Y-112141000D01*
X185039000Y-112141000D02*
X186164300Y-112141000D01*
X186164300Y-112141000D02*
X187289600Y-111015700D01*
X187289600Y-111015700D02*
X195488400Y-111015700D01*
X195488400Y-111015700D02*
X196613700Y-112141000D01*
%TO.N,/RASR\u002A*%
X205359000Y-112141000D02*
X204233700Y-112141000D01*
X192659000Y-112141000D02*
X193784300Y-112141000D01*
X193784300Y-112141000D02*
X194909600Y-113266300D01*
X194909600Y-113266300D02*
X203108400Y-113266300D01*
X203108400Y-113266300D02*
X204233700Y-112141000D01*
X192096400Y-112141000D02*
X192659000Y-112141000D01*
X192096400Y-112141000D02*
X191533700Y-112141000D01*
X191533700Y-112141000D02*
X190408400Y-113266300D01*
X190408400Y-113266300D02*
X182473300Y-113266300D01*
X182473300Y-113266300D02*
X181348000Y-112141000D01*
X181348000Y-112141000D02*
X181084300Y-112141000D01*
X129159000Y-107061000D02*
X130284300Y-107061000D01*
X130284300Y-107061000D02*
X131409600Y-108186300D01*
X131409600Y-108186300D02*
X135038900Y-108186300D01*
X135038900Y-108186300D02*
X137579000Y-110726400D01*
X137579000Y-110726400D02*
X147286600Y-110726400D01*
X147286600Y-110726400D02*
X148701200Y-112141000D01*
X148701200Y-112141000D02*
X154559000Y-112141000D01*
X218059000Y-112141000D02*
X216933700Y-112141000D01*
X205359000Y-112141000D02*
X206484300Y-112141000D01*
X206484300Y-112141000D02*
X207609600Y-113266300D01*
X207609600Y-113266300D02*
X215808400Y-113266300D01*
X215808400Y-113266300D02*
X216933700Y-112141000D01*
X155684300Y-112141000D02*
X156809600Y-111015700D01*
X156809600Y-111015700D02*
X161542100Y-111015700D01*
X161542100Y-111015700D02*
X162667400Y-112141000D01*
X162667400Y-112141000D02*
X167259000Y-112141000D01*
X154559000Y-112141000D02*
X155684300Y-112141000D01*
X179959000Y-112141000D02*
X181084300Y-112141000D01*
X229633700Y-112141000D02*
X228508400Y-113266300D01*
X228508400Y-113266300D02*
X220309600Y-113266300D01*
X220309600Y-113266300D02*
X219184300Y-112141000D01*
X218621700Y-112141000D02*
X218059000Y-112141000D01*
X218621700Y-112141000D02*
X219184300Y-112141000D01*
X230759000Y-112141000D02*
X229633700Y-112141000D01*
X231321700Y-112141000D02*
X230759000Y-112141000D01*
X231321700Y-112141000D02*
X231884300Y-112141000D01*
X243459000Y-112141000D02*
X242333700Y-112141000D01*
X242333700Y-112141000D02*
X241208400Y-113266300D01*
X241208400Y-113266300D02*
X233009600Y-113266300D01*
X233009600Y-113266300D02*
X231884300Y-112141000D01*
%TO.N,/A1R*%
X146939000Y-109601000D02*
X148064300Y-109601000D01*
X159639000Y-109601000D02*
X157094300Y-109601000D01*
X157094300Y-109601000D02*
X155969000Y-110726300D01*
X155969000Y-110726300D02*
X149189600Y-110726300D01*
X149189600Y-110726300D02*
X148064300Y-109601000D01*
X160201700Y-109601000D02*
X159639000Y-109601000D01*
X160201700Y-109601000D02*
X160764300Y-109601000D01*
X223139000Y-109601000D02*
X222013700Y-109601000D01*
X210439000Y-109601000D02*
X211564300Y-109601000D01*
X211564300Y-109601000D02*
X212689600Y-108475700D01*
X212689600Y-108475700D02*
X220888400Y-108475700D01*
X220888400Y-108475700D02*
X222013700Y-109601000D01*
X171213700Y-109601000D02*
X170088400Y-110726300D01*
X170088400Y-110726300D02*
X161889600Y-110726300D01*
X161889600Y-110726300D02*
X160764300Y-109601000D01*
X172339000Y-109601000D02*
X171213700Y-109601000D01*
%TO.N,/RRWR\u002A*%
X154559000Y-114681000D02*
X153433700Y-114681000D01*
X129159000Y-109601000D02*
X130284300Y-109601000D01*
X130284300Y-109601000D02*
X131409600Y-110726300D01*
X131409600Y-110726300D02*
X136748500Y-110726300D01*
X136748500Y-110726300D02*
X139433200Y-113411000D01*
X139433200Y-113411000D02*
X147758700Y-113411000D01*
X147758700Y-113411000D02*
X148459100Y-114111400D01*
X148459100Y-114111400D02*
X152864100Y-114111400D01*
X152864100Y-114111400D02*
X153433700Y-114681000D01*
X179959000Y-114681000D02*
X178833700Y-114681000D01*
X167259000Y-114681000D02*
X168384300Y-114681000D01*
X168384300Y-114681000D02*
X169509600Y-113555700D01*
X169509600Y-113555700D02*
X177708400Y-113555700D01*
X177708400Y-113555700D02*
X178833700Y-114681000D01*
X218059000Y-114681000D02*
X219184300Y-114681000D01*
X230759000Y-114681000D02*
X229633700Y-114681000D01*
X229633700Y-114681000D02*
X228508400Y-115806300D01*
X228508400Y-115806300D02*
X220309600Y-115806300D01*
X220309600Y-115806300D02*
X219184300Y-114681000D01*
%TO.N,/A2R*%
X185039000Y-107061000D02*
X183913700Y-107061000D01*
X172339000Y-107061000D02*
X173464300Y-107061000D01*
X173464300Y-107061000D02*
X174589600Y-108186300D01*
X174589600Y-108186300D02*
X182788400Y-108186300D01*
X182788400Y-108186300D02*
X183913700Y-107061000D01*
X171776400Y-107061000D02*
X172339000Y-107061000D01*
X171776400Y-107061000D02*
X171213700Y-107061000D01*
X159639000Y-107061000D02*
X157094300Y-107061000D01*
X157094300Y-107061000D02*
X155969000Y-108186300D01*
X155969000Y-108186300D02*
X149189600Y-108186300D01*
X149189600Y-108186300D02*
X148064300Y-107061000D01*
X160201700Y-107061000D02*
X159639000Y-107061000D01*
X146939000Y-107061000D02*
X148064300Y-107061000D01*
X160201700Y-107061000D02*
X160764300Y-107061000D01*
X141859000Y-107061000D02*
X146939000Y-107061000D01*
X197739000Y-107061000D02*
X196613700Y-107061000D01*
X185039000Y-107061000D02*
X186164300Y-107061000D01*
X186164300Y-107061000D02*
X187289600Y-108186300D01*
X187289600Y-108186300D02*
X195488400Y-108186300D01*
X195488400Y-108186300D02*
X196613700Y-107061000D01*
X210439000Y-107061000D02*
X209313700Y-107061000D01*
X197739000Y-107061000D02*
X198864300Y-107061000D01*
X198864300Y-107061000D02*
X199989600Y-108186300D01*
X199989600Y-108186300D02*
X208188400Y-108186300D01*
X208188400Y-108186300D02*
X209313700Y-107061000D01*
X171213700Y-107061000D02*
X170088400Y-108186300D01*
X170088400Y-108186300D02*
X161889600Y-108186300D01*
X161889600Y-108186300D02*
X160764300Y-107061000D01*
%TO.N,/A3R*%
X146939000Y-104521000D02*
X145813700Y-104521000D01*
X141859000Y-109601000D02*
X141859000Y-108475700D01*
X141859000Y-108475700D02*
X141577700Y-108475700D01*
X141577700Y-108475700D02*
X140712000Y-107610000D01*
X140712000Y-107610000D02*
X140712000Y-106615300D01*
X140712000Y-106615300D02*
X141681000Y-105646300D01*
X141681000Y-105646300D02*
X144688400Y-105646300D01*
X144688400Y-105646300D02*
X145813700Y-104521000D01*
X172339000Y-104521000D02*
X169310600Y-104521000D01*
X169310600Y-104521000D02*
X168174300Y-105657300D01*
X168174300Y-105657300D02*
X161900600Y-105657300D01*
X161900600Y-105657300D02*
X160764300Y-104521000D01*
X159639000Y-104521000D02*
X160764300Y-104521000D01*
%TO.N,/A7R*%
X158513700Y-101981000D02*
X158369900Y-101981000D01*
X158369900Y-101981000D02*
X157244600Y-103106300D01*
X157244600Y-103106300D02*
X149189600Y-103106300D01*
X149189600Y-103106300D02*
X148064300Y-101981000D01*
X210439000Y-101981000D02*
X209313700Y-101981000D01*
X197739000Y-101981000D02*
X198864300Y-101981000D01*
X198864300Y-101981000D02*
X199989600Y-103106300D01*
X199989600Y-103106300D02*
X208188400Y-103106300D01*
X208188400Y-103106300D02*
X209313700Y-101981000D01*
X197176400Y-101981000D02*
X197739000Y-101981000D01*
X185039000Y-101981000D02*
X183913700Y-101981000D01*
X172339000Y-101981000D02*
X173464300Y-101981000D01*
X173464300Y-101981000D02*
X174589600Y-103106300D01*
X174589600Y-103106300D02*
X182788400Y-103106300D01*
X182788400Y-103106300D02*
X183913700Y-101981000D01*
X171776400Y-101981000D02*
X172339000Y-101981000D01*
X223139000Y-101981000D02*
X222013700Y-101981000D01*
X210439000Y-101981000D02*
X211564300Y-101981000D01*
X211564300Y-101981000D02*
X212689600Y-103106300D01*
X212689600Y-103106300D02*
X220888400Y-103106300D01*
X220888400Y-103106300D02*
X222013700Y-101981000D01*
X197176400Y-101981000D02*
X196613700Y-101981000D01*
X185039000Y-101981000D02*
X186164300Y-101981000D01*
X186164300Y-101981000D02*
X187289600Y-103106300D01*
X187289600Y-103106300D02*
X195488400Y-103106300D01*
X195488400Y-103106300D02*
X196613700Y-101981000D01*
X171776400Y-101981000D02*
X171213700Y-101981000D01*
X234713700Y-101981000D02*
X233588400Y-103106300D01*
X233588400Y-103106300D02*
X226063900Y-103106300D01*
X226063900Y-103106300D02*
X224938600Y-101981000D01*
X224938600Y-101981000D02*
X224264300Y-101981000D01*
X160764300Y-101981000D02*
X161891500Y-103108200D01*
X161891500Y-103108200D02*
X170086500Y-103108200D01*
X170086500Y-103108200D02*
X171213700Y-101981000D01*
X146939000Y-101981000D02*
X148064300Y-101981000D01*
X159639000Y-101981000D02*
X158513700Y-101981000D01*
X160201700Y-101981000D02*
X159639000Y-101981000D01*
X160201700Y-101981000D02*
X160764300Y-101981000D01*
X223701700Y-101981000D02*
X223139000Y-101981000D01*
X223701700Y-101981000D02*
X224264300Y-101981000D01*
X235839000Y-101981000D02*
X234713700Y-101981000D01*
%TO.N,/CASL1R\u002A*%
X183334500Y-114202600D02*
X182763300Y-114202600D01*
X182763300Y-114202600D02*
X181750100Y-113189400D01*
X181750100Y-113189400D02*
X181057500Y-113189400D01*
X181057500Y-113189400D02*
X180980500Y-113266400D01*
X180980500Y-113266400D02*
X179284200Y-113266400D01*
X179284200Y-113266400D02*
X178029500Y-112011700D01*
X178029500Y-112011700D02*
X174428700Y-112011700D01*
X197739000Y-117221000D02*
X198864300Y-117221000D01*
X198864300Y-117221000D02*
X200000600Y-116084700D01*
X200000600Y-116084700D02*
X219012400Y-116084700D01*
X219012400Y-116084700D02*
X220148700Y-117221000D01*
X220148700Y-117221000D02*
X223139000Y-117221000D01*
%TO.N,/CASU0R\u002A*%
X130284300Y-119761000D02*
X130284300Y-119516800D01*
X130284300Y-119516800D02*
X133717300Y-116083800D01*
X133717300Y-116083800D02*
X137437100Y-116083800D01*
X137437100Y-116083800D02*
X139699600Y-118346300D01*
X139699600Y-118346300D02*
X157388400Y-118346300D01*
X157388400Y-118346300D02*
X158513700Y-117221000D01*
X159639000Y-117221000D02*
X158513700Y-117221000D01*
X129159000Y-119761000D02*
X130284300Y-119761000D01*
%TD*%
D17*
%TO.N,/GND*%
X251968000Y-127634925D02*
X241337626Y-127628676D01*
X245561003Y-123405299D01*
X245590001Y-123381501D01*
X245684974Y-123265776D01*
X245755546Y-123133747D01*
X245799003Y-122990486D01*
X245810000Y-122878833D01*
X245813677Y-122841500D01*
X245810000Y-122804167D01*
X245810000Y-118849325D01*
X245813676Y-118812000D01*
X245810000Y-118774675D01*
X245810000Y-118774667D01*
X245799003Y-118663014D01*
X245755546Y-118519753D01*
X245684974Y-118387724D01*
X245590001Y-118271999D01*
X245561004Y-118248202D01*
X244857688Y-117544886D01*
X244894000Y-117362335D01*
X244894000Y-117079665D01*
X244838853Y-116802426D01*
X244730680Y-116541273D01*
X244573637Y-116306241D01*
X244373759Y-116106363D01*
X244200660Y-115990702D01*
X248741903Y-115990702D01*
X248813486Y-116234671D01*
X249068996Y-116355571D01*
X249343184Y-116424300D01*
X249625512Y-116438217D01*
X249905130Y-116396787D01*
X250171292Y-116301603D01*
X250296514Y-116234671D01*
X250368097Y-115990702D01*
X249555000Y-115177605D01*
X248741903Y-115990702D01*
X244200660Y-115990702D01*
X244141241Y-115951000D01*
X244373759Y-115795637D01*
X244573637Y-115595759D01*
X244730680Y-115360727D01*
X244838853Y-115099574D01*
X244845031Y-115068512D01*
X248114783Y-115068512D01*
X248156213Y-115348130D01*
X248251397Y-115614292D01*
X248318329Y-115739514D01*
X248562298Y-115811097D01*
X249375395Y-114998000D01*
X249734605Y-114998000D01*
X250547702Y-115811097D01*
X250791671Y-115739514D01*
X250912571Y-115484004D01*
X250981300Y-115209816D01*
X250995217Y-114927488D01*
X250953787Y-114647870D01*
X250858603Y-114381708D01*
X250791671Y-114256486D01*
X250547702Y-114184903D01*
X249734605Y-114998000D01*
X249375395Y-114998000D01*
X248562298Y-114184903D01*
X248318329Y-114256486D01*
X248197429Y-114511996D01*
X248128700Y-114786184D01*
X248114783Y-115068512D01*
X244845031Y-115068512D01*
X244894000Y-114822335D01*
X244894000Y-114539665D01*
X244838853Y-114262426D01*
X244732348Y-114005298D01*
X248741903Y-114005298D01*
X249555000Y-114818395D01*
X250368097Y-114005298D01*
X250296514Y-113761329D01*
X250041004Y-113640429D01*
X249766816Y-113571700D01*
X249484488Y-113557783D01*
X249204870Y-113599213D01*
X248938708Y-113694397D01*
X248813486Y-113761329D01*
X248741903Y-114005298D01*
X244732348Y-114005298D01*
X244730680Y-114001273D01*
X244573637Y-113766241D01*
X244373759Y-113566363D01*
X244141241Y-113411000D01*
X244373759Y-113255637D01*
X244573637Y-113055759D01*
X244730680Y-112820727D01*
X244838853Y-112559574D01*
X244894000Y-112282335D01*
X244894000Y-111999665D01*
X244838853Y-111722426D01*
X244730680Y-111461273D01*
X244573637Y-111226241D01*
X244373759Y-111026363D01*
X244141241Y-110871000D01*
X244373759Y-110715637D01*
X244573637Y-110515759D01*
X244730680Y-110280727D01*
X244838853Y-110019574D01*
X244871258Y-109856665D01*
X248120000Y-109856665D01*
X248120000Y-110139335D01*
X248175147Y-110416574D01*
X248283320Y-110677727D01*
X248440363Y-110912759D01*
X248640241Y-111112637D01*
X248875273Y-111269680D01*
X249136426Y-111377853D01*
X249413665Y-111433000D01*
X249696335Y-111433000D01*
X249973574Y-111377853D01*
X250234727Y-111269680D01*
X250469759Y-111112637D01*
X250669637Y-110912759D01*
X250826680Y-110677727D01*
X250934853Y-110416574D01*
X250990000Y-110139335D01*
X250990000Y-109856665D01*
X250934853Y-109579426D01*
X250826680Y-109318273D01*
X250669637Y-109083241D01*
X250469759Y-108883363D01*
X250234727Y-108726320D01*
X249973574Y-108618147D01*
X249696335Y-108563000D01*
X249413665Y-108563000D01*
X249136426Y-108618147D01*
X248875273Y-108726320D01*
X248640241Y-108883363D01*
X248440363Y-109083241D01*
X248283320Y-109318273D01*
X248175147Y-109579426D01*
X248120000Y-109856665D01*
X244871258Y-109856665D01*
X244894000Y-109742335D01*
X244894000Y-109459665D01*
X244838853Y-109182426D01*
X244730680Y-108921273D01*
X244573637Y-108686241D01*
X244373759Y-108486363D01*
X244141241Y-108331000D01*
X244373759Y-108175637D01*
X244573637Y-107975759D01*
X244730680Y-107740727D01*
X244838853Y-107479574D01*
X244894000Y-107202335D01*
X244894000Y-106919665D01*
X244838853Y-106642426D01*
X244730680Y-106381273D01*
X244573637Y-106146241D01*
X244373759Y-105946363D01*
X244141241Y-105791000D01*
X244373759Y-105635637D01*
X244573637Y-105435759D01*
X244730680Y-105200727D01*
X244838853Y-104939574D01*
X244894000Y-104662335D01*
X244894000Y-104379665D01*
X244838853Y-104102426D01*
X244730680Y-103841273D01*
X244573637Y-103606241D01*
X244373759Y-103406363D01*
X244141241Y-103251000D01*
X244373759Y-103095637D01*
X244573637Y-102895759D01*
X244730680Y-102660727D01*
X244838853Y-102399574D01*
X244894000Y-102122335D01*
X244894000Y-101839665D01*
X244838853Y-101562426D01*
X244730680Y-101301273D01*
X244573637Y-101066241D01*
X244373759Y-100866363D01*
X244138727Y-100709320D01*
X243877574Y-100601147D01*
X243600335Y-100546000D01*
X243317665Y-100546000D01*
X243040426Y-100601147D01*
X242779273Y-100709320D01*
X242544241Y-100866363D01*
X242344363Y-101066241D01*
X242187320Y-101301273D01*
X242079147Y-101562426D01*
X242024000Y-101839665D01*
X242024000Y-102122335D01*
X242079147Y-102399574D01*
X242187320Y-102660727D01*
X242344363Y-102895759D01*
X242544241Y-103095637D01*
X242776759Y-103251000D01*
X242544241Y-103406363D01*
X242419053Y-103531551D01*
X241764304Y-102876802D01*
X241740501Y-102847799D01*
X241624776Y-102752826D01*
X241492747Y-102682254D01*
X241349486Y-102638797D01*
X241237833Y-102627800D01*
X241237822Y-102627800D01*
X241200500Y-102624124D01*
X241163178Y-102627800D01*
X237124319Y-102627800D01*
X237218853Y-102399574D01*
X237274000Y-102122335D01*
X237274000Y-101839665D01*
X237218853Y-101562426D01*
X237110680Y-101301273D01*
X236953637Y-101066241D01*
X236753759Y-100866363D01*
X236518727Y-100709320D01*
X236257574Y-100601147D01*
X235980335Y-100546000D01*
X235697665Y-100546000D01*
X235420426Y-100601147D01*
X235159273Y-100709320D01*
X234924241Y-100866363D01*
X234724363Y-101066241D01*
X234617053Y-101226842D01*
X234564714Y-101231997D01*
X234421453Y-101275454D01*
X234289424Y-101346026D01*
X234173699Y-101440999D01*
X234149901Y-101469997D01*
X233273599Y-102346300D01*
X232149450Y-102346300D01*
X232194000Y-102122335D01*
X232194000Y-101839665D01*
X232138853Y-101562426D01*
X232030680Y-101301273D01*
X231873637Y-101066241D01*
X231673759Y-100866363D01*
X231438727Y-100709320D01*
X231177574Y-100601147D01*
X230900335Y-100546000D01*
X230617665Y-100546000D01*
X230340426Y-100601147D01*
X230079273Y-100709320D01*
X229844241Y-100866363D01*
X229644363Y-101066241D01*
X229487320Y-101301273D01*
X229379147Y-101562426D01*
X229324000Y-101839665D01*
X229324000Y-102122335D01*
X229368550Y-102346300D01*
X226378702Y-102346300D01*
X225502404Y-101470002D01*
X225478601Y-101440999D01*
X225362876Y-101346026D01*
X225230847Y-101275454D01*
X225087586Y-101231997D01*
X224975933Y-101221000D01*
X224975922Y-101221000D01*
X224938600Y-101217324D01*
X224901278Y-101221000D01*
X224357043Y-101221000D01*
X224253637Y-101066241D01*
X224053759Y-100866363D01*
X223818727Y-100709320D01*
X223557574Y-100601147D01*
X223280335Y-100546000D01*
X222997665Y-100546000D01*
X222720426Y-100601147D01*
X222459273Y-100709320D01*
X222224241Y-100866363D01*
X222024363Y-101066241D01*
X221917053Y-101226842D01*
X221864714Y-101231997D01*
X221721453Y-101275454D01*
X221589424Y-101346026D01*
X221473699Y-101440999D01*
X221449901Y-101469997D01*
X220573599Y-102346300D01*
X219449450Y-102346300D01*
X219494000Y-102122335D01*
X219494000Y-101839665D01*
X219438853Y-101562426D01*
X219330680Y-101301273D01*
X219173637Y-101066241D01*
X218973759Y-100866363D01*
X218738727Y-100709320D01*
X218477574Y-100601147D01*
X218200335Y-100546000D01*
X217917665Y-100546000D01*
X217640426Y-100601147D01*
X217379273Y-100709320D01*
X217144241Y-100866363D01*
X216944363Y-101066241D01*
X216787320Y-101301273D01*
X216679147Y-101562426D01*
X216624000Y-101839665D01*
X216624000Y-102122335D01*
X216668550Y-102346300D01*
X213004402Y-102346300D01*
X212128104Y-101470002D01*
X212104301Y-101440999D01*
X211988576Y-101346026D01*
X211856547Y-101275454D01*
X211713286Y-101231997D01*
X211660947Y-101226842D01*
X211553637Y-101066241D01*
X211353759Y-100866363D01*
X211118727Y-100709320D01*
X210857574Y-100601147D01*
X210580335Y-100546000D01*
X210297665Y-100546000D01*
X210020426Y-100601147D01*
X209759273Y-100709320D01*
X209524241Y-100866363D01*
X209324363Y-101066241D01*
X209217053Y-101226842D01*
X209164714Y-101231997D01*
X209021453Y-101275454D01*
X208889424Y-101346026D01*
X208773699Y-101440999D01*
X208749901Y-101469997D01*
X207873599Y-102346300D01*
X206749450Y-102346300D01*
X206794000Y-102122335D01*
X206794000Y-101839665D01*
X206738853Y-101562426D01*
X206630680Y-101301273D01*
X206473637Y-101066241D01*
X206273759Y-100866363D01*
X206038727Y-100709320D01*
X205777574Y-100601147D01*
X205500335Y-100546000D01*
X205217665Y-100546000D01*
X204940426Y-100601147D01*
X204679273Y-100709320D01*
X204444241Y-100866363D01*
X204244363Y-101066241D01*
X204087320Y-101301273D01*
X203979147Y-101562426D01*
X203924000Y-101839665D01*
X203924000Y-102122335D01*
X203968550Y-102346300D01*
X200304402Y-102346300D01*
X199428104Y-101470002D01*
X199404301Y-101440999D01*
X199288576Y-101346026D01*
X199156547Y-101275454D01*
X199013286Y-101231997D01*
X198960947Y-101226842D01*
X198853637Y-101066241D01*
X198653759Y-100866363D01*
X198418727Y-100709320D01*
X198157574Y-100601147D01*
X197880335Y-100546000D01*
X197597665Y-100546000D01*
X197320426Y-100601147D01*
X197059273Y-100709320D01*
X196824241Y-100866363D01*
X196624363Y-101066241D01*
X196517053Y-101226842D01*
X196464714Y-101231997D01*
X196321453Y-101275454D01*
X196189424Y-101346026D01*
X196073699Y-101440999D01*
X196049901Y-101469997D01*
X195173599Y-102346300D01*
X194450798Y-102346300D01*
X194489846Y-102273247D01*
X194533303Y-102129986D01*
X194544300Y-102018333D01*
X194547977Y-101981000D01*
X194544300Y-101943667D01*
X194544300Y-101233501D01*
X198748114Y-97029688D01*
X198930665Y-97066000D01*
X199213335Y-97066000D01*
X199490574Y-97010853D01*
X199751727Y-96902680D01*
X199986759Y-96745637D01*
X200108694Y-96623702D01*
X203258903Y-96623702D01*
X203330486Y-96867671D01*
X203585996Y-96988571D01*
X203860184Y-97057300D01*
X204142512Y-97071217D01*
X204422130Y-97029787D01*
X204688292Y-96934603D01*
X204813514Y-96867671D01*
X204885097Y-96623702D01*
X204072000Y-95810605D01*
X203258903Y-96623702D01*
X200108694Y-96623702D01*
X200186637Y-96545759D01*
X200343680Y-96310727D01*
X200451853Y-96049574D01*
X200507000Y-95772335D01*
X200507000Y-95701512D01*
X202631783Y-95701512D01*
X202673213Y-95981130D01*
X202768397Y-96247292D01*
X202835329Y-96372514D01*
X203079298Y-96444097D01*
X203892395Y-95631000D01*
X204251605Y-95631000D01*
X205064702Y-96444097D01*
X205308671Y-96372514D01*
X205429571Y-96117004D01*
X205498300Y-95842816D01*
X205512217Y-95560488D01*
X205470787Y-95280870D01*
X205375603Y-95014708D01*
X205308671Y-94889486D01*
X205064702Y-94817903D01*
X204251605Y-95631000D01*
X203892395Y-95631000D01*
X203079298Y-94817903D01*
X202835329Y-94889486D01*
X202714429Y-95144996D01*
X202645700Y-95419184D01*
X202631783Y-95701512D01*
X200507000Y-95701512D01*
X200507000Y-95489665D01*
X200451853Y-95212426D01*
X200343680Y-94951273D01*
X200186637Y-94716241D01*
X200108694Y-94638298D01*
X203258903Y-94638298D01*
X204072000Y-95451395D01*
X204885097Y-94638298D01*
X204813514Y-94394329D01*
X204558004Y-94273429D01*
X204343518Y-94219665D01*
X210274000Y-94219665D01*
X210274000Y-94502335D01*
X210329147Y-94779574D01*
X210437320Y-95040727D01*
X210594363Y-95275759D01*
X210794241Y-95475637D01*
X211029273Y-95632680D01*
X211290426Y-95740853D01*
X211567665Y-95796000D01*
X211850335Y-95796000D01*
X212127574Y-95740853D01*
X212388727Y-95632680D01*
X212623759Y-95475637D01*
X212745694Y-95353702D01*
X215895903Y-95353702D01*
X215967486Y-95597671D01*
X216222996Y-95718571D01*
X216497184Y-95787300D01*
X216779512Y-95801217D01*
X217059130Y-95759787D01*
X217325292Y-95664603D01*
X217450514Y-95597671D01*
X217463572Y-95553165D01*
X222974000Y-95553165D01*
X222974000Y-95835835D01*
X223029147Y-96113074D01*
X223137320Y-96374227D01*
X223294363Y-96609259D01*
X223494241Y-96809137D01*
X223729273Y-96966180D01*
X223990426Y-97074353D01*
X224267665Y-97129500D01*
X224550335Y-97129500D01*
X224827574Y-97074353D01*
X225088727Y-96966180D01*
X225323759Y-96809137D01*
X225445694Y-96687202D01*
X228595903Y-96687202D01*
X228667486Y-96931171D01*
X228922996Y-97052071D01*
X229197184Y-97120800D01*
X229479512Y-97134717D01*
X229759130Y-97093287D01*
X230025292Y-96998103D01*
X230150514Y-96931171D01*
X230222097Y-96687202D01*
X229409000Y-95874105D01*
X228595903Y-96687202D01*
X225445694Y-96687202D01*
X225523637Y-96609259D01*
X225680680Y-96374227D01*
X225788853Y-96113074D01*
X225844000Y-95835835D01*
X225844000Y-95765012D01*
X227968783Y-95765012D01*
X228010213Y-96044630D01*
X228105397Y-96310792D01*
X228172329Y-96436014D01*
X228416298Y-96507597D01*
X229229395Y-95694500D01*
X229588605Y-95694500D01*
X230401702Y-96507597D01*
X230645671Y-96436014D01*
X230766571Y-96180504D01*
X230835300Y-95906316D01*
X230849217Y-95623988D01*
X230807787Y-95344370D01*
X230712603Y-95078208D01*
X230645671Y-94952986D01*
X230401702Y-94881403D01*
X229588605Y-95694500D01*
X229229395Y-95694500D01*
X228416298Y-94881403D01*
X228172329Y-94952986D01*
X228051429Y-95208496D01*
X227982700Y-95482684D01*
X227968783Y-95765012D01*
X225844000Y-95765012D01*
X225844000Y-95553165D01*
X225788853Y-95275926D01*
X225680680Y-95014773D01*
X225523637Y-94779741D01*
X225445694Y-94701798D01*
X228595903Y-94701798D01*
X229409000Y-95514895D01*
X230222097Y-94701798D01*
X230150514Y-94457829D01*
X229895004Y-94336929D01*
X229620816Y-94268200D01*
X229338488Y-94254283D01*
X229058870Y-94295713D01*
X228792708Y-94390897D01*
X228667486Y-94457829D01*
X228595903Y-94701798D01*
X225445694Y-94701798D01*
X225323759Y-94579863D01*
X225088727Y-94422820D01*
X224827574Y-94314647D01*
X224550335Y-94259500D01*
X224267665Y-94259500D01*
X223990426Y-94314647D01*
X223729273Y-94422820D01*
X223494241Y-94579863D01*
X223294363Y-94779741D01*
X223137320Y-95014773D01*
X223029147Y-95275926D01*
X222974000Y-95553165D01*
X217463572Y-95553165D01*
X217522097Y-95353702D01*
X216709000Y-94540605D01*
X215895903Y-95353702D01*
X212745694Y-95353702D01*
X212823637Y-95275759D01*
X212980680Y-95040727D01*
X213088853Y-94779574D01*
X213144000Y-94502335D01*
X213144000Y-94431512D01*
X215268783Y-94431512D01*
X215310213Y-94711130D01*
X215405397Y-94977292D01*
X215472329Y-95102514D01*
X215716298Y-95174097D01*
X216529395Y-94361000D01*
X216888605Y-94361000D01*
X217701702Y-95174097D01*
X217945671Y-95102514D01*
X218066571Y-94847004D01*
X218135300Y-94572816D01*
X218149217Y-94290488D01*
X218138724Y-94219665D01*
X235420000Y-94219665D01*
X235420000Y-94502335D01*
X235475147Y-94779574D01*
X235583320Y-95040727D01*
X235740363Y-95275759D01*
X235940241Y-95475637D01*
X236175273Y-95632680D01*
X236436426Y-95740853D01*
X236713665Y-95796000D01*
X236996335Y-95796000D01*
X237273574Y-95740853D01*
X237534727Y-95632680D01*
X237769759Y-95475637D01*
X237891694Y-95353702D01*
X241041903Y-95353702D01*
X241113486Y-95597671D01*
X241368996Y-95718571D01*
X241643184Y-95787300D01*
X241925512Y-95801217D01*
X242205130Y-95759787D01*
X242471292Y-95664603D01*
X242596514Y-95597671D01*
X242668097Y-95353702D01*
X241855000Y-94540605D01*
X241041903Y-95353702D01*
X237891694Y-95353702D01*
X237969637Y-95275759D01*
X238126680Y-95040727D01*
X238234853Y-94779574D01*
X238290000Y-94502335D01*
X238290000Y-94431512D01*
X240414783Y-94431512D01*
X240456213Y-94711130D01*
X240551397Y-94977292D01*
X240618329Y-95102514D01*
X240862298Y-95174097D01*
X241675395Y-94361000D01*
X242034605Y-94361000D01*
X242847702Y-95174097D01*
X243091671Y-95102514D01*
X243212571Y-94847004D01*
X243281300Y-94572816D01*
X243295217Y-94290488D01*
X243253787Y-94010870D01*
X243158603Y-93744708D01*
X243091671Y-93619486D01*
X242847702Y-93547903D01*
X242034605Y-94361000D01*
X241675395Y-94361000D01*
X240862298Y-93547903D01*
X240618329Y-93619486D01*
X240497429Y-93874996D01*
X240428700Y-94149184D01*
X240414783Y-94431512D01*
X238290000Y-94431512D01*
X238290000Y-94219665D01*
X238234853Y-93942426D01*
X238126680Y-93681273D01*
X237969637Y-93446241D01*
X237891694Y-93368298D01*
X241041903Y-93368298D01*
X241855000Y-94181395D01*
X242668097Y-93368298D01*
X242596514Y-93124329D01*
X242341004Y-93003429D01*
X242066816Y-92934700D01*
X241784488Y-92920783D01*
X241504870Y-92962213D01*
X241238708Y-93057397D01*
X241113486Y-93124329D01*
X241041903Y-93368298D01*
X237891694Y-93368298D01*
X237769759Y-93246363D01*
X237534727Y-93089320D01*
X237273574Y-92981147D01*
X236996335Y-92926000D01*
X236713665Y-92926000D01*
X236436426Y-92981147D01*
X236175273Y-93089320D01*
X235940241Y-93246363D01*
X235740363Y-93446241D01*
X235583320Y-93681273D01*
X235475147Y-93942426D01*
X235420000Y-94219665D01*
X218138724Y-94219665D01*
X218107787Y-94010870D01*
X218012603Y-93744708D01*
X217945671Y-93619486D01*
X217701702Y-93547903D01*
X216888605Y-94361000D01*
X216529395Y-94361000D01*
X215716298Y-93547903D01*
X215472329Y-93619486D01*
X215351429Y-93874996D01*
X215282700Y-94149184D01*
X215268783Y-94431512D01*
X213144000Y-94431512D01*
X213144000Y-94219665D01*
X213088853Y-93942426D01*
X212980680Y-93681273D01*
X212823637Y-93446241D01*
X212745694Y-93368298D01*
X215895903Y-93368298D01*
X216709000Y-94181395D01*
X217522097Y-93368298D01*
X217450514Y-93124329D01*
X217195004Y-93003429D01*
X216920816Y-92934700D01*
X216638488Y-92920783D01*
X216358870Y-92962213D01*
X216092708Y-93057397D01*
X215967486Y-93124329D01*
X215895903Y-93368298D01*
X212745694Y-93368298D01*
X212623759Y-93246363D01*
X212388727Y-93089320D01*
X212127574Y-92981147D01*
X211850335Y-92926000D01*
X211567665Y-92926000D01*
X211290426Y-92981147D01*
X211029273Y-93089320D01*
X210794241Y-93246363D01*
X210594363Y-93446241D01*
X210437320Y-93681273D01*
X210329147Y-93942426D01*
X210274000Y-94219665D01*
X204343518Y-94219665D01*
X204283816Y-94204700D01*
X204001488Y-94190783D01*
X203721870Y-94232213D01*
X203455708Y-94327397D01*
X203330486Y-94394329D01*
X203258903Y-94638298D01*
X200108694Y-94638298D01*
X199986759Y-94516363D01*
X199751727Y-94359320D01*
X199490574Y-94251147D01*
X199213335Y-94196000D01*
X198930665Y-94196000D01*
X198653426Y-94251147D01*
X198392273Y-94359320D01*
X198157241Y-94516363D01*
X197957363Y-94716241D01*
X197800320Y-94951273D01*
X197692147Y-95212426D01*
X197637000Y-95489665D01*
X197637000Y-95772335D01*
X197673312Y-95954886D01*
X193273303Y-100354896D01*
X193244299Y-100378699D01*
X193189171Y-100445874D01*
X193149326Y-100494424D01*
X193121758Y-100546000D01*
X193089615Y-100606135D01*
X193077574Y-100601147D01*
X192800335Y-100546000D01*
X192517665Y-100546000D01*
X192240426Y-100601147D01*
X191979273Y-100709320D01*
X191744241Y-100866363D01*
X191544363Y-101066241D01*
X191387320Y-101301273D01*
X191279147Y-101562426D01*
X191224000Y-101839665D01*
X191224000Y-102122335D01*
X191268550Y-102346300D01*
X187604402Y-102346300D01*
X186728104Y-101470002D01*
X186704301Y-101440999D01*
X186588576Y-101346026D01*
X186456547Y-101275454D01*
X186313286Y-101231997D01*
X186260947Y-101226842D01*
X186153637Y-101066241D01*
X185953759Y-100866363D01*
X185718727Y-100709320D01*
X185457574Y-100601147D01*
X185180335Y-100546000D01*
X184897665Y-100546000D01*
X184620426Y-100601147D01*
X184359273Y-100709320D01*
X184124241Y-100866363D01*
X183924363Y-101066241D01*
X183817053Y-101226842D01*
X183764714Y-101231997D01*
X183621453Y-101275454D01*
X183489424Y-101346026D01*
X183373699Y-101440999D01*
X183349901Y-101469997D01*
X182473599Y-102346300D01*
X181349450Y-102346300D01*
X181394000Y-102122335D01*
X181394000Y-101839665D01*
X181338853Y-101562426D01*
X181230680Y-101301273D01*
X181073637Y-101066241D01*
X180873759Y-100866363D01*
X180638727Y-100709320D01*
X180377574Y-100601147D01*
X180100335Y-100546000D01*
X179817665Y-100546000D01*
X179540426Y-100601147D01*
X179279273Y-100709320D01*
X179044241Y-100866363D01*
X178919053Y-100991551D01*
X174551204Y-96623702D01*
X177668903Y-96623702D01*
X177740486Y-96867671D01*
X177995996Y-96988571D01*
X178270184Y-97057300D01*
X178552512Y-97071217D01*
X178832130Y-97029787D01*
X179098292Y-96934603D01*
X179223514Y-96867671D01*
X179295097Y-96623702D01*
X178482000Y-95810605D01*
X177668903Y-96623702D01*
X174551204Y-96623702D01*
X174534949Y-96607447D01*
X174596637Y-96545759D01*
X174753680Y-96310727D01*
X174861853Y-96049574D01*
X174917000Y-95772335D01*
X174917000Y-95701512D01*
X177041783Y-95701512D01*
X177083213Y-95981130D01*
X177178397Y-96247292D01*
X177245329Y-96372514D01*
X177489298Y-96444097D01*
X178302395Y-95631000D01*
X178661605Y-95631000D01*
X179474702Y-96444097D01*
X179718671Y-96372514D01*
X179839571Y-96117004D01*
X179908300Y-95842816D01*
X179922217Y-95560488D01*
X179880787Y-95280870D01*
X179785603Y-95014708D01*
X179718671Y-94889486D01*
X179474702Y-94817903D01*
X178661605Y-95631000D01*
X178302395Y-95631000D01*
X177489298Y-94817903D01*
X177245329Y-94889486D01*
X177124429Y-95144996D01*
X177055700Y-95419184D01*
X177041783Y-95701512D01*
X174917000Y-95701512D01*
X174917000Y-95489665D01*
X174861853Y-95212426D01*
X174753680Y-94951273D01*
X174596637Y-94716241D01*
X174518694Y-94638298D01*
X177668903Y-94638298D01*
X178482000Y-95451395D01*
X179295097Y-94638298D01*
X179223514Y-94394329D01*
X178968004Y-94273429D01*
X178753518Y-94219665D01*
X184874000Y-94219665D01*
X184874000Y-94502335D01*
X184929147Y-94779574D01*
X185037320Y-95040727D01*
X185194363Y-95275759D01*
X185394241Y-95475637D01*
X185629273Y-95632680D01*
X185890426Y-95740853D01*
X186167665Y-95796000D01*
X186450335Y-95796000D01*
X186727574Y-95740853D01*
X186988727Y-95632680D01*
X187223759Y-95475637D01*
X187345694Y-95353702D01*
X190495903Y-95353702D01*
X190567486Y-95597671D01*
X190822996Y-95718571D01*
X191097184Y-95787300D01*
X191379512Y-95801217D01*
X191659130Y-95759787D01*
X191925292Y-95664603D01*
X192050514Y-95597671D01*
X192122097Y-95353702D01*
X191309000Y-94540605D01*
X190495903Y-95353702D01*
X187345694Y-95353702D01*
X187423637Y-95275759D01*
X187580680Y-95040727D01*
X187688853Y-94779574D01*
X187744000Y-94502335D01*
X187744000Y-94431512D01*
X189868783Y-94431512D01*
X189910213Y-94711130D01*
X190005397Y-94977292D01*
X190072329Y-95102514D01*
X190316298Y-95174097D01*
X191129395Y-94361000D01*
X191488605Y-94361000D01*
X192301702Y-95174097D01*
X192545671Y-95102514D01*
X192666571Y-94847004D01*
X192735300Y-94572816D01*
X192749217Y-94290488D01*
X192707787Y-94010870D01*
X192612603Y-93744708D01*
X192545671Y-93619486D01*
X192301702Y-93547903D01*
X191488605Y-94361000D01*
X191129395Y-94361000D01*
X190316298Y-93547903D01*
X190072329Y-93619486D01*
X189951429Y-93874996D01*
X189882700Y-94149184D01*
X189868783Y-94431512D01*
X187744000Y-94431512D01*
X187744000Y-94219665D01*
X187688853Y-93942426D01*
X187580680Y-93681273D01*
X187423637Y-93446241D01*
X187345694Y-93368298D01*
X190495903Y-93368298D01*
X191309000Y-94181395D01*
X192122097Y-93368298D01*
X192050514Y-93124329D01*
X191795004Y-93003429D01*
X191520816Y-92934700D01*
X191238488Y-92920783D01*
X190958870Y-92962213D01*
X190692708Y-93057397D01*
X190567486Y-93124329D01*
X190495903Y-93368298D01*
X187345694Y-93368298D01*
X187223759Y-93246363D01*
X186988727Y-93089320D01*
X186727574Y-92981147D01*
X186450335Y-92926000D01*
X186167665Y-92926000D01*
X185890426Y-92981147D01*
X185629273Y-93089320D01*
X185394241Y-93246363D01*
X185194363Y-93446241D01*
X185037320Y-93681273D01*
X184929147Y-93942426D01*
X184874000Y-94219665D01*
X178753518Y-94219665D01*
X178693816Y-94204700D01*
X178411488Y-94190783D01*
X178131870Y-94232213D01*
X177865708Y-94327397D01*
X177740486Y-94394329D01*
X177668903Y-94638298D01*
X174518694Y-94638298D01*
X174396759Y-94516363D01*
X174161727Y-94359320D01*
X173900574Y-94251147D01*
X173623335Y-94196000D01*
X173340665Y-94196000D01*
X173063426Y-94251147D01*
X172802273Y-94359320D01*
X172567241Y-94516363D01*
X172367363Y-94716241D01*
X172210320Y-94951273D01*
X172102147Y-95212426D01*
X172047000Y-95489665D01*
X172047000Y-95772335D01*
X172102147Y-96049574D01*
X172210320Y-96310727D01*
X172367363Y-96545759D01*
X172556051Y-96734447D01*
X168298947Y-100991551D01*
X168173759Y-100866363D01*
X167938727Y-100709320D01*
X167677574Y-100601147D01*
X167400335Y-100546000D01*
X167117665Y-100546000D01*
X166840426Y-100601147D01*
X166579273Y-100709320D01*
X166344241Y-100866363D01*
X166144363Y-101066241D01*
X165987320Y-101301273D01*
X165879147Y-101562426D01*
X165824000Y-101839665D01*
X165824000Y-102122335D01*
X165868928Y-102348200D01*
X162206302Y-102348200D01*
X161328104Y-101470002D01*
X161304301Y-101440999D01*
X161188576Y-101346026D01*
X161056547Y-101275454D01*
X160913286Y-101231997D01*
X160860947Y-101226842D01*
X160753637Y-101066241D01*
X160553759Y-100866363D01*
X160318727Y-100709320D01*
X160057574Y-100601147D01*
X159780335Y-100546000D01*
X159497665Y-100546000D01*
X159220426Y-100601147D01*
X158959273Y-100709320D01*
X158724241Y-100866363D01*
X158524363Y-101066241D01*
X158420957Y-101221000D01*
X158407233Y-101221000D01*
X158369900Y-101217323D01*
X158332567Y-101221000D01*
X158220914Y-101231997D01*
X158077653Y-101275454D01*
X157945624Y-101346026D01*
X157829899Y-101440999D01*
X157806101Y-101469997D01*
X156929799Y-102346300D01*
X155949450Y-102346300D01*
X155994000Y-102122335D01*
X155994000Y-101839665D01*
X155938853Y-101562426D01*
X155830680Y-101301273D01*
X155673637Y-101066241D01*
X155473759Y-100866363D01*
X155238727Y-100709320D01*
X154977574Y-100601147D01*
X154700335Y-100546000D01*
X154417665Y-100546000D01*
X154140426Y-100601147D01*
X153879273Y-100709320D01*
X153644241Y-100866363D01*
X153444363Y-101066241D01*
X153287320Y-101301273D01*
X153179147Y-101562426D01*
X153124000Y-101839665D01*
X153124000Y-102122335D01*
X153168550Y-102346300D01*
X149504402Y-102346300D01*
X148628104Y-101470002D01*
X148604301Y-101440999D01*
X148488576Y-101346026D01*
X148356547Y-101275454D01*
X148213286Y-101231997D01*
X148160947Y-101226842D01*
X148053637Y-101066241D01*
X147853759Y-100866363D01*
X147618727Y-100709320D01*
X147357574Y-100601147D01*
X147080335Y-100546000D01*
X146797665Y-100546000D01*
X146520426Y-100601147D01*
X146259273Y-100709320D01*
X146024241Y-100866363D01*
X145824363Y-101066241D01*
X145667320Y-101301273D01*
X145559147Y-101562426D01*
X145504000Y-101839665D01*
X145504000Y-102122335D01*
X145559147Y-102399574D01*
X145667320Y-102660727D01*
X145824363Y-102895759D01*
X146024241Y-103095637D01*
X146256759Y-103251000D01*
X146024241Y-103406363D01*
X145824363Y-103606241D01*
X145717053Y-103766842D01*
X145664714Y-103771997D01*
X145521453Y-103815454D01*
X145389424Y-103886026D01*
X145273699Y-103980999D01*
X145249901Y-104009997D01*
X144373599Y-104886300D01*
X144208500Y-104886300D01*
X144208500Y-98955802D01*
X146773302Y-96391000D01*
X146990957Y-96391000D01*
X147094363Y-96545759D01*
X147294241Y-96745637D01*
X147529273Y-96902680D01*
X147790426Y-97010853D01*
X148067665Y-97066000D01*
X148350335Y-97066000D01*
X148627574Y-97010853D01*
X148888727Y-96902680D01*
X149123759Y-96745637D01*
X149245694Y-96623702D01*
X152395903Y-96623702D01*
X152467486Y-96867671D01*
X152722996Y-96988571D01*
X152997184Y-97057300D01*
X153279512Y-97071217D01*
X153559130Y-97029787D01*
X153825292Y-96934603D01*
X153950514Y-96867671D01*
X154022097Y-96623702D01*
X153209000Y-95810605D01*
X152395903Y-96623702D01*
X149245694Y-96623702D01*
X149323637Y-96545759D01*
X149480680Y-96310727D01*
X149588853Y-96049574D01*
X149644000Y-95772335D01*
X149644000Y-95701512D01*
X151768783Y-95701512D01*
X151810213Y-95981130D01*
X151905397Y-96247292D01*
X151972329Y-96372514D01*
X152216298Y-96444097D01*
X153029395Y-95631000D01*
X153388605Y-95631000D01*
X154201702Y-96444097D01*
X154445671Y-96372514D01*
X154566571Y-96117004D01*
X154635300Y-95842816D01*
X154649217Y-95560488D01*
X154607787Y-95280870D01*
X154512603Y-95014708D01*
X154445671Y-94889486D01*
X154201702Y-94817903D01*
X153388605Y-95631000D01*
X153029395Y-95631000D01*
X152216298Y-94817903D01*
X151972329Y-94889486D01*
X151851429Y-95144996D01*
X151782700Y-95419184D01*
X151768783Y-95701512D01*
X149644000Y-95701512D01*
X149644000Y-95489665D01*
X149588853Y-95212426D01*
X149480680Y-94951273D01*
X149323637Y-94716241D01*
X149245694Y-94638298D01*
X152395903Y-94638298D01*
X153209000Y-95451395D01*
X154022097Y-94638298D01*
X153992424Y-94537165D01*
X159029000Y-94537165D01*
X159029000Y-94819835D01*
X159084147Y-95097074D01*
X159192320Y-95358227D01*
X159349363Y-95593259D01*
X159549241Y-95793137D01*
X159784273Y-95950180D01*
X160045426Y-96058353D01*
X160322665Y-96113500D01*
X160605335Y-96113500D01*
X160882574Y-96058353D01*
X161143727Y-95950180D01*
X161378759Y-95793137D01*
X161500694Y-95671202D01*
X164650903Y-95671202D01*
X164722486Y-95915171D01*
X164977996Y-96036071D01*
X165252184Y-96104800D01*
X165534512Y-96118717D01*
X165814130Y-96077287D01*
X166080292Y-95982103D01*
X166205514Y-95915171D01*
X166277097Y-95671202D01*
X165464000Y-94858105D01*
X164650903Y-95671202D01*
X161500694Y-95671202D01*
X161578637Y-95593259D01*
X161735680Y-95358227D01*
X161843853Y-95097074D01*
X161899000Y-94819835D01*
X161899000Y-94749012D01*
X164023783Y-94749012D01*
X164065213Y-95028630D01*
X164160397Y-95294792D01*
X164227329Y-95420014D01*
X164471298Y-95491597D01*
X165284395Y-94678500D01*
X165643605Y-94678500D01*
X166456702Y-95491597D01*
X166700671Y-95420014D01*
X166821571Y-95164504D01*
X166890300Y-94890316D01*
X166904217Y-94607988D01*
X166862787Y-94328370D01*
X166767603Y-94062208D01*
X166700671Y-93936986D01*
X166456702Y-93865403D01*
X165643605Y-94678500D01*
X165284395Y-94678500D01*
X164471298Y-93865403D01*
X164227329Y-93936986D01*
X164106429Y-94192496D01*
X164037700Y-94466684D01*
X164023783Y-94749012D01*
X161899000Y-94749012D01*
X161899000Y-94537165D01*
X161843853Y-94259926D01*
X161735680Y-93998773D01*
X161578637Y-93763741D01*
X161500694Y-93685798D01*
X164650903Y-93685798D01*
X165464000Y-94498895D01*
X166277097Y-93685798D01*
X166205514Y-93441829D01*
X165950004Y-93320929D01*
X165675816Y-93252200D01*
X165393488Y-93238283D01*
X165113870Y-93279713D01*
X164847708Y-93374897D01*
X164722486Y-93441829D01*
X164650903Y-93685798D01*
X161500694Y-93685798D01*
X161378759Y-93563863D01*
X161143727Y-93406820D01*
X160882574Y-93298647D01*
X160605335Y-93243500D01*
X160322665Y-93243500D01*
X160045426Y-93298647D01*
X159784273Y-93406820D01*
X159549241Y-93563863D01*
X159349363Y-93763741D01*
X159192320Y-93998773D01*
X159084147Y-94259926D01*
X159029000Y-94537165D01*
X153992424Y-94537165D01*
X153950514Y-94394329D01*
X153695004Y-94273429D01*
X153420816Y-94204700D01*
X153138488Y-94190783D01*
X152858870Y-94232213D01*
X152592708Y-94327397D01*
X152467486Y-94394329D01*
X152395903Y-94638298D01*
X149245694Y-94638298D01*
X149123759Y-94516363D01*
X148888727Y-94359320D01*
X148627574Y-94251147D01*
X148350335Y-94196000D01*
X148067665Y-94196000D01*
X147790426Y-94251147D01*
X147529273Y-94359320D01*
X147294241Y-94516363D01*
X147094363Y-94716241D01*
X146990957Y-94871000D01*
X146495825Y-94871000D01*
X146458500Y-94867324D01*
X146421175Y-94871000D01*
X146421167Y-94871000D01*
X146309514Y-94881997D01*
X146166253Y-94925454D01*
X146034224Y-94996026D01*
X145918499Y-95090999D01*
X145894701Y-95119997D01*
X144208500Y-96806198D01*
X144208500Y-92519388D01*
X251968000Y-92329225D01*
X251968000Y-127634925D01*
%TA.AperFunction,Conductor*%
D18*
G36*
X251968000Y-127634925D02*
G01*
X241337626Y-127628676D01*
X245561003Y-123405299D01*
X245590001Y-123381501D01*
X245684974Y-123265776D01*
X245755546Y-123133747D01*
X245799003Y-122990486D01*
X245810000Y-122878833D01*
X245813677Y-122841500D01*
X245810000Y-122804167D01*
X245810000Y-118849325D01*
X245813676Y-118812000D01*
X245810000Y-118774675D01*
X245810000Y-118774667D01*
X245799003Y-118663014D01*
X245755546Y-118519753D01*
X245684974Y-118387724D01*
X245590001Y-118271999D01*
X245561004Y-118248202D01*
X244857688Y-117544886D01*
X244894000Y-117362335D01*
X244894000Y-117079665D01*
X244838853Y-116802426D01*
X244730680Y-116541273D01*
X244573637Y-116306241D01*
X244373759Y-116106363D01*
X244200660Y-115990702D01*
X248741903Y-115990702D01*
X248813486Y-116234671D01*
X249068996Y-116355571D01*
X249343184Y-116424300D01*
X249625512Y-116438217D01*
X249905130Y-116396787D01*
X250171292Y-116301603D01*
X250296514Y-116234671D01*
X250368097Y-115990702D01*
X249555000Y-115177605D01*
X248741903Y-115990702D01*
X244200660Y-115990702D01*
X244141241Y-115951000D01*
X244373759Y-115795637D01*
X244573637Y-115595759D01*
X244730680Y-115360727D01*
X244838853Y-115099574D01*
X244845031Y-115068512D01*
X248114783Y-115068512D01*
X248156213Y-115348130D01*
X248251397Y-115614292D01*
X248318329Y-115739514D01*
X248562298Y-115811097D01*
X249375395Y-114998000D01*
X249734605Y-114998000D01*
X250547702Y-115811097D01*
X250791671Y-115739514D01*
X250912571Y-115484004D01*
X250981300Y-115209816D01*
X250995217Y-114927488D01*
X250953787Y-114647870D01*
X250858603Y-114381708D01*
X250791671Y-114256486D01*
X250547702Y-114184903D01*
X249734605Y-114998000D01*
X249375395Y-114998000D01*
X248562298Y-114184903D01*
X248318329Y-114256486D01*
X248197429Y-114511996D01*
X248128700Y-114786184D01*
X248114783Y-115068512D01*
X244845031Y-115068512D01*
X244894000Y-114822335D01*
X244894000Y-114539665D01*
X244838853Y-114262426D01*
X244732348Y-114005298D01*
X248741903Y-114005298D01*
X249555000Y-114818395D01*
X250368097Y-114005298D01*
X250296514Y-113761329D01*
X250041004Y-113640429D01*
X249766816Y-113571700D01*
X249484488Y-113557783D01*
X249204870Y-113599213D01*
X248938708Y-113694397D01*
X248813486Y-113761329D01*
X248741903Y-114005298D01*
X244732348Y-114005298D01*
X244730680Y-114001273D01*
X244573637Y-113766241D01*
X244373759Y-113566363D01*
X244141241Y-113411000D01*
X244373759Y-113255637D01*
X244573637Y-113055759D01*
X244730680Y-112820727D01*
X244838853Y-112559574D01*
X244894000Y-112282335D01*
X244894000Y-111999665D01*
X244838853Y-111722426D01*
X244730680Y-111461273D01*
X244573637Y-111226241D01*
X244373759Y-111026363D01*
X244141241Y-110871000D01*
X244373759Y-110715637D01*
X244573637Y-110515759D01*
X244730680Y-110280727D01*
X244838853Y-110019574D01*
X244871258Y-109856665D01*
X248120000Y-109856665D01*
X248120000Y-110139335D01*
X248175147Y-110416574D01*
X248283320Y-110677727D01*
X248440363Y-110912759D01*
X248640241Y-111112637D01*
X248875273Y-111269680D01*
X249136426Y-111377853D01*
X249413665Y-111433000D01*
X249696335Y-111433000D01*
X249973574Y-111377853D01*
X250234727Y-111269680D01*
X250469759Y-111112637D01*
X250669637Y-110912759D01*
X250826680Y-110677727D01*
X250934853Y-110416574D01*
X250990000Y-110139335D01*
X250990000Y-109856665D01*
X250934853Y-109579426D01*
X250826680Y-109318273D01*
X250669637Y-109083241D01*
X250469759Y-108883363D01*
X250234727Y-108726320D01*
X249973574Y-108618147D01*
X249696335Y-108563000D01*
X249413665Y-108563000D01*
X249136426Y-108618147D01*
X248875273Y-108726320D01*
X248640241Y-108883363D01*
X248440363Y-109083241D01*
X248283320Y-109318273D01*
X248175147Y-109579426D01*
X248120000Y-109856665D01*
X244871258Y-109856665D01*
X244894000Y-109742335D01*
X244894000Y-109459665D01*
X244838853Y-109182426D01*
X244730680Y-108921273D01*
X244573637Y-108686241D01*
X244373759Y-108486363D01*
X244141241Y-108331000D01*
X244373759Y-108175637D01*
X244573637Y-107975759D01*
X244730680Y-107740727D01*
X244838853Y-107479574D01*
X244894000Y-107202335D01*
X244894000Y-106919665D01*
X244838853Y-106642426D01*
X244730680Y-106381273D01*
X244573637Y-106146241D01*
X244373759Y-105946363D01*
X244141241Y-105791000D01*
X244373759Y-105635637D01*
X244573637Y-105435759D01*
X244730680Y-105200727D01*
X244838853Y-104939574D01*
X244894000Y-104662335D01*
X244894000Y-104379665D01*
X244838853Y-104102426D01*
X244730680Y-103841273D01*
X244573637Y-103606241D01*
X244373759Y-103406363D01*
X244141241Y-103251000D01*
X244373759Y-103095637D01*
X244573637Y-102895759D01*
X244730680Y-102660727D01*
X244838853Y-102399574D01*
X244894000Y-102122335D01*
X244894000Y-101839665D01*
X244838853Y-101562426D01*
X244730680Y-101301273D01*
X244573637Y-101066241D01*
X244373759Y-100866363D01*
X244138727Y-100709320D01*
X243877574Y-100601147D01*
X243600335Y-100546000D01*
X243317665Y-100546000D01*
X243040426Y-100601147D01*
X242779273Y-100709320D01*
X242544241Y-100866363D01*
X242344363Y-101066241D01*
X242187320Y-101301273D01*
X242079147Y-101562426D01*
X242024000Y-101839665D01*
X242024000Y-102122335D01*
X242079147Y-102399574D01*
X242187320Y-102660727D01*
X242344363Y-102895759D01*
X242544241Y-103095637D01*
X242776759Y-103251000D01*
X242544241Y-103406363D01*
X242419053Y-103531551D01*
X241764304Y-102876802D01*
X241740501Y-102847799D01*
X241624776Y-102752826D01*
X241492747Y-102682254D01*
X241349486Y-102638797D01*
X241237833Y-102627800D01*
X241237822Y-102627800D01*
X241200500Y-102624124D01*
X241163178Y-102627800D01*
X237124319Y-102627800D01*
X237218853Y-102399574D01*
X237274000Y-102122335D01*
X237274000Y-101839665D01*
X237218853Y-101562426D01*
X237110680Y-101301273D01*
X236953637Y-101066241D01*
X236753759Y-100866363D01*
X236518727Y-100709320D01*
X236257574Y-100601147D01*
X235980335Y-100546000D01*
X235697665Y-100546000D01*
X235420426Y-100601147D01*
X235159273Y-100709320D01*
X234924241Y-100866363D01*
X234724363Y-101066241D01*
X234617053Y-101226842D01*
X234564714Y-101231997D01*
X234421453Y-101275454D01*
X234289424Y-101346026D01*
X234173699Y-101440999D01*
X234149901Y-101469997D01*
X233273599Y-102346300D01*
X232149450Y-102346300D01*
X232194000Y-102122335D01*
X232194000Y-101839665D01*
X232138853Y-101562426D01*
X232030680Y-101301273D01*
X231873637Y-101066241D01*
X231673759Y-100866363D01*
X231438727Y-100709320D01*
X231177574Y-100601147D01*
X230900335Y-100546000D01*
X230617665Y-100546000D01*
X230340426Y-100601147D01*
X230079273Y-100709320D01*
X229844241Y-100866363D01*
X229644363Y-101066241D01*
X229487320Y-101301273D01*
X229379147Y-101562426D01*
X229324000Y-101839665D01*
X229324000Y-102122335D01*
X229368550Y-102346300D01*
X226378702Y-102346300D01*
X225502404Y-101470002D01*
X225478601Y-101440999D01*
X225362876Y-101346026D01*
X225230847Y-101275454D01*
X225087586Y-101231997D01*
X224975933Y-101221000D01*
X224975922Y-101221000D01*
X224938600Y-101217324D01*
X224901278Y-101221000D01*
X224357043Y-101221000D01*
X224253637Y-101066241D01*
X224053759Y-100866363D01*
X223818727Y-100709320D01*
X223557574Y-100601147D01*
X223280335Y-100546000D01*
X222997665Y-100546000D01*
X222720426Y-100601147D01*
X222459273Y-100709320D01*
X222224241Y-100866363D01*
X222024363Y-101066241D01*
X221917053Y-101226842D01*
X221864714Y-101231997D01*
X221721453Y-101275454D01*
X221589424Y-101346026D01*
X221473699Y-101440999D01*
X221449901Y-101469997D01*
X220573599Y-102346300D01*
X219449450Y-102346300D01*
X219494000Y-102122335D01*
X219494000Y-101839665D01*
X219438853Y-101562426D01*
X219330680Y-101301273D01*
X219173637Y-101066241D01*
X218973759Y-100866363D01*
X218738727Y-100709320D01*
X218477574Y-100601147D01*
X218200335Y-100546000D01*
X217917665Y-100546000D01*
X217640426Y-100601147D01*
X217379273Y-100709320D01*
X217144241Y-100866363D01*
X216944363Y-101066241D01*
X216787320Y-101301273D01*
X216679147Y-101562426D01*
X216624000Y-101839665D01*
X216624000Y-102122335D01*
X216668550Y-102346300D01*
X213004402Y-102346300D01*
X212128104Y-101470002D01*
X212104301Y-101440999D01*
X211988576Y-101346026D01*
X211856547Y-101275454D01*
X211713286Y-101231997D01*
X211660947Y-101226842D01*
X211553637Y-101066241D01*
X211353759Y-100866363D01*
X211118727Y-100709320D01*
X210857574Y-100601147D01*
X210580335Y-100546000D01*
X210297665Y-100546000D01*
X210020426Y-100601147D01*
X209759273Y-100709320D01*
X209524241Y-100866363D01*
X209324363Y-101066241D01*
X209217053Y-101226842D01*
X209164714Y-101231997D01*
X209021453Y-101275454D01*
X208889424Y-101346026D01*
X208773699Y-101440999D01*
X208749901Y-101469997D01*
X207873599Y-102346300D01*
X206749450Y-102346300D01*
X206794000Y-102122335D01*
X206794000Y-101839665D01*
X206738853Y-101562426D01*
X206630680Y-101301273D01*
X206473637Y-101066241D01*
X206273759Y-100866363D01*
X206038727Y-100709320D01*
X205777574Y-100601147D01*
X205500335Y-100546000D01*
X205217665Y-100546000D01*
X204940426Y-100601147D01*
X204679273Y-100709320D01*
X204444241Y-100866363D01*
X204244363Y-101066241D01*
X204087320Y-101301273D01*
X203979147Y-101562426D01*
X203924000Y-101839665D01*
X203924000Y-102122335D01*
X203968550Y-102346300D01*
X200304402Y-102346300D01*
X199428104Y-101470002D01*
X199404301Y-101440999D01*
X199288576Y-101346026D01*
X199156547Y-101275454D01*
X199013286Y-101231997D01*
X198960947Y-101226842D01*
X198853637Y-101066241D01*
X198653759Y-100866363D01*
X198418727Y-100709320D01*
X198157574Y-100601147D01*
X197880335Y-100546000D01*
X197597665Y-100546000D01*
X197320426Y-100601147D01*
X197059273Y-100709320D01*
X196824241Y-100866363D01*
X196624363Y-101066241D01*
X196517053Y-101226842D01*
X196464714Y-101231997D01*
X196321453Y-101275454D01*
X196189424Y-101346026D01*
X196073699Y-101440999D01*
X196049901Y-101469997D01*
X195173599Y-102346300D01*
X194450798Y-102346300D01*
X194489846Y-102273247D01*
X194533303Y-102129986D01*
X194544300Y-102018333D01*
X194547977Y-101981000D01*
X194544300Y-101943667D01*
X194544300Y-101233501D01*
X198748114Y-97029688D01*
X198930665Y-97066000D01*
X199213335Y-97066000D01*
X199490574Y-97010853D01*
X199751727Y-96902680D01*
X199986759Y-96745637D01*
X200108694Y-96623702D01*
X203258903Y-96623702D01*
X203330486Y-96867671D01*
X203585996Y-96988571D01*
X203860184Y-97057300D01*
X204142512Y-97071217D01*
X204422130Y-97029787D01*
X204688292Y-96934603D01*
X204813514Y-96867671D01*
X204885097Y-96623702D01*
X204072000Y-95810605D01*
X203258903Y-96623702D01*
X200108694Y-96623702D01*
X200186637Y-96545759D01*
X200343680Y-96310727D01*
X200451853Y-96049574D01*
X200507000Y-95772335D01*
X200507000Y-95701512D01*
X202631783Y-95701512D01*
X202673213Y-95981130D01*
X202768397Y-96247292D01*
X202835329Y-96372514D01*
X203079298Y-96444097D01*
X203892395Y-95631000D01*
X204251605Y-95631000D01*
X205064702Y-96444097D01*
X205308671Y-96372514D01*
X205429571Y-96117004D01*
X205498300Y-95842816D01*
X205512217Y-95560488D01*
X205470787Y-95280870D01*
X205375603Y-95014708D01*
X205308671Y-94889486D01*
X205064702Y-94817903D01*
X204251605Y-95631000D01*
X203892395Y-95631000D01*
X203079298Y-94817903D01*
X202835329Y-94889486D01*
X202714429Y-95144996D01*
X202645700Y-95419184D01*
X202631783Y-95701512D01*
X200507000Y-95701512D01*
X200507000Y-95489665D01*
X200451853Y-95212426D01*
X200343680Y-94951273D01*
X200186637Y-94716241D01*
X200108694Y-94638298D01*
X203258903Y-94638298D01*
X204072000Y-95451395D01*
X204885097Y-94638298D01*
X204813514Y-94394329D01*
X204558004Y-94273429D01*
X204343518Y-94219665D01*
X210274000Y-94219665D01*
X210274000Y-94502335D01*
X210329147Y-94779574D01*
X210437320Y-95040727D01*
X210594363Y-95275759D01*
X210794241Y-95475637D01*
X211029273Y-95632680D01*
X211290426Y-95740853D01*
X211567665Y-95796000D01*
X211850335Y-95796000D01*
X212127574Y-95740853D01*
X212388727Y-95632680D01*
X212623759Y-95475637D01*
X212745694Y-95353702D01*
X215895903Y-95353702D01*
X215967486Y-95597671D01*
X216222996Y-95718571D01*
X216497184Y-95787300D01*
X216779512Y-95801217D01*
X217059130Y-95759787D01*
X217325292Y-95664603D01*
X217450514Y-95597671D01*
X217463572Y-95553165D01*
X222974000Y-95553165D01*
X222974000Y-95835835D01*
X223029147Y-96113074D01*
X223137320Y-96374227D01*
X223294363Y-96609259D01*
X223494241Y-96809137D01*
X223729273Y-96966180D01*
X223990426Y-97074353D01*
X224267665Y-97129500D01*
X224550335Y-97129500D01*
X224827574Y-97074353D01*
X225088727Y-96966180D01*
X225323759Y-96809137D01*
X225445694Y-96687202D01*
X228595903Y-96687202D01*
X228667486Y-96931171D01*
X228922996Y-97052071D01*
X229197184Y-97120800D01*
X229479512Y-97134717D01*
X229759130Y-97093287D01*
X230025292Y-96998103D01*
X230150514Y-96931171D01*
X230222097Y-96687202D01*
X229409000Y-95874105D01*
X228595903Y-96687202D01*
X225445694Y-96687202D01*
X225523637Y-96609259D01*
X225680680Y-96374227D01*
X225788853Y-96113074D01*
X225844000Y-95835835D01*
X225844000Y-95765012D01*
X227968783Y-95765012D01*
X228010213Y-96044630D01*
X228105397Y-96310792D01*
X228172329Y-96436014D01*
X228416298Y-96507597D01*
X229229395Y-95694500D01*
X229588605Y-95694500D01*
X230401702Y-96507597D01*
X230645671Y-96436014D01*
X230766571Y-96180504D01*
X230835300Y-95906316D01*
X230849217Y-95623988D01*
X230807787Y-95344370D01*
X230712603Y-95078208D01*
X230645671Y-94952986D01*
X230401702Y-94881403D01*
X229588605Y-95694500D01*
X229229395Y-95694500D01*
X228416298Y-94881403D01*
X228172329Y-94952986D01*
X228051429Y-95208496D01*
X227982700Y-95482684D01*
X227968783Y-95765012D01*
X225844000Y-95765012D01*
X225844000Y-95553165D01*
X225788853Y-95275926D01*
X225680680Y-95014773D01*
X225523637Y-94779741D01*
X225445694Y-94701798D01*
X228595903Y-94701798D01*
X229409000Y-95514895D01*
X230222097Y-94701798D01*
X230150514Y-94457829D01*
X229895004Y-94336929D01*
X229620816Y-94268200D01*
X229338488Y-94254283D01*
X229058870Y-94295713D01*
X228792708Y-94390897D01*
X228667486Y-94457829D01*
X228595903Y-94701798D01*
X225445694Y-94701798D01*
X225323759Y-94579863D01*
X225088727Y-94422820D01*
X224827574Y-94314647D01*
X224550335Y-94259500D01*
X224267665Y-94259500D01*
X223990426Y-94314647D01*
X223729273Y-94422820D01*
X223494241Y-94579863D01*
X223294363Y-94779741D01*
X223137320Y-95014773D01*
X223029147Y-95275926D01*
X222974000Y-95553165D01*
X217463572Y-95553165D01*
X217522097Y-95353702D01*
X216709000Y-94540605D01*
X215895903Y-95353702D01*
X212745694Y-95353702D01*
X212823637Y-95275759D01*
X212980680Y-95040727D01*
X213088853Y-94779574D01*
X213144000Y-94502335D01*
X213144000Y-94431512D01*
X215268783Y-94431512D01*
X215310213Y-94711130D01*
X215405397Y-94977292D01*
X215472329Y-95102514D01*
X215716298Y-95174097D01*
X216529395Y-94361000D01*
X216888605Y-94361000D01*
X217701702Y-95174097D01*
X217945671Y-95102514D01*
X218066571Y-94847004D01*
X218135300Y-94572816D01*
X218149217Y-94290488D01*
X218138724Y-94219665D01*
X235420000Y-94219665D01*
X235420000Y-94502335D01*
X235475147Y-94779574D01*
X235583320Y-95040727D01*
X235740363Y-95275759D01*
X235940241Y-95475637D01*
X236175273Y-95632680D01*
X236436426Y-95740853D01*
X236713665Y-95796000D01*
X236996335Y-95796000D01*
X237273574Y-95740853D01*
X237534727Y-95632680D01*
X237769759Y-95475637D01*
X237891694Y-95353702D01*
X241041903Y-95353702D01*
X241113486Y-95597671D01*
X241368996Y-95718571D01*
X241643184Y-95787300D01*
X241925512Y-95801217D01*
X242205130Y-95759787D01*
X242471292Y-95664603D01*
X242596514Y-95597671D01*
X242668097Y-95353702D01*
X241855000Y-94540605D01*
X241041903Y-95353702D01*
X237891694Y-95353702D01*
X237969637Y-95275759D01*
X238126680Y-95040727D01*
X238234853Y-94779574D01*
X238290000Y-94502335D01*
X238290000Y-94431512D01*
X240414783Y-94431512D01*
X240456213Y-94711130D01*
X240551397Y-94977292D01*
X240618329Y-95102514D01*
X240862298Y-95174097D01*
X241675395Y-94361000D01*
X242034605Y-94361000D01*
X242847702Y-95174097D01*
X243091671Y-95102514D01*
X243212571Y-94847004D01*
X243281300Y-94572816D01*
X243295217Y-94290488D01*
X243253787Y-94010870D01*
X243158603Y-93744708D01*
X243091671Y-93619486D01*
X242847702Y-93547903D01*
X242034605Y-94361000D01*
X241675395Y-94361000D01*
X240862298Y-93547903D01*
X240618329Y-93619486D01*
X240497429Y-93874996D01*
X240428700Y-94149184D01*
X240414783Y-94431512D01*
X238290000Y-94431512D01*
X238290000Y-94219665D01*
X238234853Y-93942426D01*
X238126680Y-93681273D01*
X237969637Y-93446241D01*
X237891694Y-93368298D01*
X241041903Y-93368298D01*
X241855000Y-94181395D01*
X242668097Y-93368298D01*
X242596514Y-93124329D01*
X242341004Y-93003429D01*
X242066816Y-92934700D01*
X241784488Y-92920783D01*
X241504870Y-92962213D01*
X241238708Y-93057397D01*
X241113486Y-93124329D01*
X241041903Y-93368298D01*
X237891694Y-93368298D01*
X237769759Y-93246363D01*
X237534727Y-93089320D01*
X237273574Y-92981147D01*
X236996335Y-92926000D01*
X236713665Y-92926000D01*
X236436426Y-92981147D01*
X236175273Y-93089320D01*
X235940241Y-93246363D01*
X235740363Y-93446241D01*
X235583320Y-93681273D01*
X235475147Y-93942426D01*
X235420000Y-94219665D01*
X218138724Y-94219665D01*
X218107787Y-94010870D01*
X218012603Y-93744708D01*
X217945671Y-93619486D01*
X217701702Y-93547903D01*
X216888605Y-94361000D01*
X216529395Y-94361000D01*
X215716298Y-93547903D01*
X215472329Y-93619486D01*
X215351429Y-93874996D01*
X215282700Y-94149184D01*
X215268783Y-94431512D01*
X213144000Y-94431512D01*
X213144000Y-94219665D01*
X213088853Y-93942426D01*
X212980680Y-93681273D01*
X212823637Y-93446241D01*
X212745694Y-93368298D01*
X215895903Y-93368298D01*
X216709000Y-94181395D01*
X217522097Y-93368298D01*
X217450514Y-93124329D01*
X217195004Y-93003429D01*
X216920816Y-92934700D01*
X216638488Y-92920783D01*
X216358870Y-92962213D01*
X216092708Y-93057397D01*
X215967486Y-93124329D01*
X215895903Y-93368298D01*
X212745694Y-93368298D01*
X212623759Y-93246363D01*
X212388727Y-93089320D01*
X212127574Y-92981147D01*
X211850335Y-92926000D01*
X211567665Y-92926000D01*
X211290426Y-92981147D01*
X211029273Y-93089320D01*
X210794241Y-93246363D01*
X210594363Y-93446241D01*
X210437320Y-93681273D01*
X210329147Y-93942426D01*
X210274000Y-94219665D01*
X204343518Y-94219665D01*
X204283816Y-94204700D01*
X204001488Y-94190783D01*
X203721870Y-94232213D01*
X203455708Y-94327397D01*
X203330486Y-94394329D01*
X203258903Y-94638298D01*
X200108694Y-94638298D01*
X199986759Y-94516363D01*
X199751727Y-94359320D01*
X199490574Y-94251147D01*
X199213335Y-94196000D01*
X198930665Y-94196000D01*
X198653426Y-94251147D01*
X198392273Y-94359320D01*
X198157241Y-94516363D01*
X197957363Y-94716241D01*
X197800320Y-94951273D01*
X197692147Y-95212426D01*
X197637000Y-95489665D01*
X197637000Y-95772335D01*
X197673312Y-95954886D01*
X193273303Y-100354896D01*
X193244299Y-100378699D01*
X193189171Y-100445874D01*
X193149326Y-100494424D01*
X193121758Y-100546000D01*
X193089615Y-100606135D01*
X193077574Y-100601147D01*
X192800335Y-100546000D01*
X192517665Y-100546000D01*
X192240426Y-100601147D01*
X191979273Y-100709320D01*
X191744241Y-100866363D01*
X191544363Y-101066241D01*
X191387320Y-101301273D01*
X191279147Y-101562426D01*
X191224000Y-101839665D01*
X191224000Y-102122335D01*
X191268550Y-102346300D01*
X187604402Y-102346300D01*
X186728104Y-101470002D01*
X186704301Y-101440999D01*
X186588576Y-101346026D01*
X186456547Y-101275454D01*
X186313286Y-101231997D01*
X186260947Y-101226842D01*
X186153637Y-101066241D01*
X185953759Y-100866363D01*
X185718727Y-100709320D01*
X185457574Y-100601147D01*
X185180335Y-100546000D01*
X184897665Y-100546000D01*
X184620426Y-100601147D01*
X184359273Y-100709320D01*
X184124241Y-100866363D01*
X183924363Y-101066241D01*
X183817053Y-101226842D01*
X183764714Y-101231997D01*
X183621453Y-101275454D01*
X183489424Y-101346026D01*
X183373699Y-101440999D01*
X183349901Y-101469997D01*
X182473599Y-102346300D01*
X181349450Y-102346300D01*
X181394000Y-102122335D01*
X181394000Y-101839665D01*
X181338853Y-101562426D01*
X181230680Y-101301273D01*
X181073637Y-101066241D01*
X180873759Y-100866363D01*
X180638727Y-100709320D01*
X180377574Y-100601147D01*
X180100335Y-100546000D01*
X179817665Y-100546000D01*
X179540426Y-100601147D01*
X179279273Y-100709320D01*
X179044241Y-100866363D01*
X178919053Y-100991551D01*
X174551204Y-96623702D01*
X177668903Y-96623702D01*
X177740486Y-96867671D01*
X177995996Y-96988571D01*
X178270184Y-97057300D01*
X178552512Y-97071217D01*
X178832130Y-97029787D01*
X179098292Y-96934603D01*
X179223514Y-96867671D01*
X179295097Y-96623702D01*
X178482000Y-95810605D01*
X177668903Y-96623702D01*
X174551204Y-96623702D01*
X174534949Y-96607447D01*
X174596637Y-96545759D01*
X174753680Y-96310727D01*
X174861853Y-96049574D01*
X174917000Y-95772335D01*
X174917000Y-95701512D01*
X177041783Y-95701512D01*
X177083213Y-95981130D01*
X177178397Y-96247292D01*
X177245329Y-96372514D01*
X177489298Y-96444097D01*
X178302395Y-95631000D01*
X178661605Y-95631000D01*
X179474702Y-96444097D01*
X179718671Y-96372514D01*
X179839571Y-96117004D01*
X179908300Y-95842816D01*
X179922217Y-95560488D01*
X179880787Y-95280870D01*
X179785603Y-95014708D01*
X179718671Y-94889486D01*
X179474702Y-94817903D01*
X178661605Y-95631000D01*
X178302395Y-95631000D01*
X177489298Y-94817903D01*
X177245329Y-94889486D01*
X177124429Y-95144996D01*
X177055700Y-95419184D01*
X177041783Y-95701512D01*
X174917000Y-95701512D01*
X174917000Y-95489665D01*
X174861853Y-95212426D01*
X174753680Y-94951273D01*
X174596637Y-94716241D01*
X174518694Y-94638298D01*
X177668903Y-94638298D01*
X178482000Y-95451395D01*
X179295097Y-94638298D01*
X179223514Y-94394329D01*
X178968004Y-94273429D01*
X178753518Y-94219665D01*
X184874000Y-94219665D01*
X184874000Y-94502335D01*
X184929147Y-94779574D01*
X185037320Y-95040727D01*
X185194363Y-95275759D01*
X185394241Y-95475637D01*
X185629273Y-95632680D01*
X185890426Y-95740853D01*
X186167665Y-95796000D01*
X186450335Y-95796000D01*
X186727574Y-95740853D01*
X186988727Y-95632680D01*
X187223759Y-95475637D01*
X187345694Y-95353702D01*
X190495903Y-95353702D01*
X190567486Y-95597671D01*
X190822996Y-95718571D01*
X191097184Y-95787300D01*
X191379512Y-95801217D01*
X191659130Y-95759787D01*
X191925292Y-95664603D01*
X192050514Y-95597671D01*
X192122097Y-95353702D01*
X191309000Y-94540605D01*
X190495903Y-95353702D01*
X187345694Y-95353702D01*
X187423637Y-95275759D01*
X187580680Y-95040727D01*
X187688853Y-94779574D01*
X187744000Y-94502335D01*
X187744000Y-94431512D01*
X189868783Y-94431512D01*
X189910213Y-94711130D01*
X190005397Y-94977292D01*
X190072329Y-95102514D01*
X190316298Y-95174097D01*
X191129395Y-94361000D01*
X191488605Y-94361000D01*
X192301702Y-95174097D01*
X192545671Y-95102514D01*
X192666571Y-94847004D01*
X192735300Y-94572816D01*
X192749217Y-94290488D01*
X192707787Y-94010870D01*
X192612603Y-93744708D01*
X192545671Y-93619486D01*
X192301702Y-93547903D01*
X191488605Y-94361000D01*
X191129395Y-94361000D01*
X190316298Y-93547903D01*
X190072329Y-93619486D01*
X189951429Y-93874996D01*
X189882700Y-94149184D01*
X189868783Y-94431512D01*
X187744000Y-94431512D01*
X187744000Y-94219665D01*
X187688853Y-93942426D01*
X187580680Y-93681273D01*
X187423637Y-93446241D01*
X187345694Y-93368298D01*
X190495903Y-93368298D01*
X191309000Y-94181395D01*
X192122097Y-93368298D01*
X192050514Y-93124329D01*
X191795004Y-93003429D01*
X191520816Y-92934700D01*
X191238488Y-92920783D01*
X190958870Y-92962213D01*
X190692708Y-93057397D01*
X190567486Y-93124329D01*
X190495903Y-93368298D01*
X187345694Y-93368298D01*
X187223759Y-93246363D01*
X186988727Y-93089320D01*
X186727574Y-92981147D01*
X186450335Y-92926000D01*
X186167665Y-92926000D01*
X185890426Y-92981147D01*
X185629273Y-93089320D01*
X185394241Y-93246363D01*
X185194363Y-93446241D01*
X185037320Y-93681273D01*
X184929147Y-93942426D01*
X184874000Y-94219665D01*
X178753518Y-94219665D01*
X178693816Y-94204700D01*
X178411488Y-94190783D01*
X178131870Y-94232213D01*
X177865708Y-94327397D01*
X177740486Y-94394329D01*
X177668903Y-94638298D01*
X174518694Y-94638298D01*
X174396759Y-94516363D01*
X174161727Y-94359320D01*
X173900574Y-94251147D01*
X173623335Y-94196000D01*
X173340665Y-94196000D01*
X173063426Y-94251147D01*
X172802273Y-94359320D01*
X172567241Y-94516363D01*
X172367363Y-94716241D01*
X172210320Y-94951273D01*
X172102147Y-95212426D01*
X172047000Y-95489665D01*
X172047000Y-95772335D01*
X172102147Y-96049574D01*
X172210320Y-96310727D01*
X172367363Y-96545759D01*
X172556051Y-96734447D01*
X168298947Y-100991551D01*
X168173759Y-100866363D01*
X167938727Y-100709320D01*
X167677574Y-100601147D01*
X167400335Y-100546000D01*
X167117665Y-100546000D01*
X166840426Y-100601147D01*
X166579273Y-100709320D01*
X166344241Y-100866363D01*
X166144363Y-101066241D01*
X165987320Y-101301273D01*
X165879147Y-101562426D01*
X165824000Y-101839665D01*
X165824000Y-102122335D01*
X165868928Y-102348200D01*
X162206302Y-102348200D01*
X161328104Y-101470002D01*
X161304301Y-101440999D01*
X161188576Y-101346026D01*
X161056547Y-101275454D01*
X160913286Y-101231997D01*
X160860947Y-101226842D01*
X160753637Y-101066241D01*
X160553759Y-100866363D01*
X160318727Y-100709320D01*
X160057574Y-100601147D01*
X159780335Y-100546000D01*
X159497665Y-100546000D01*
X159220426Y-100601147D01*
X158959273Y-100709320D01*
X158724241Y-100866363D01*
X158524363Y-101066241D01*
X158420957Y-101221000D01*
X158407233Y-101221000D01*
X158369900Y-101217323D01*
X158332567Y-101221000D01*
X158220914Y-101231997D01*
X158077653Y-101275454D01*
X157945624Y-101346026D01*
X157829899Y-101440999D01*
X157806101Y-101469997D01*
X156929799Y-102346300D01*
X155949450Y-102346300D01*
X155994000Y-102122335D01*
X155994000Y-101839665D01*
X155938853Y-101562426D01*
X155830680Y-101301273D01*
X155673637Y-101066241D01*
X155473759Y-100866363D01*
X155238727Y-100709320D01*
X154977574Y-100601147D01*
X154700335Y-100546000D01*
X154417665Y-100546000D01*
X154140426Y-100601147D01*
X153879273Y-100709320D01*
X153644241Y-100866363D01*
X153444363Y-101066241D01*
X153287320Y-101301273D01*
X153179147Y-101562426D01*
X153124000Y-101839665D01*
X153124000Y-102122335D01*
X153168550Y-102346300D01*
X149504402Y-102346300D01*
X148628104Y-101470002D01*
X148604301Y-101440999D01*
X148488576Y-101346026D01*
X148356547Y-101275454D01*
X148213286Y-101231997D01*
X148160947Y-101226842D01*
X148053637Y-101066241D01*
X147853759Y-100866363D01*
X147618727Y-100709320D01*
X147357574Y-100601147D01*
X147080335Y-100546000D01*
X146797665Y-100546000D01*
X146520426Y-100601147D01*
X146259273Y-100709320D01*
X146024241Y-100866363D01*
X145824363Y-101066241D01*
X145667320Y-101301273D01*
X145559147Y-101562426D01*
X145504000Y-101839665D01*
X145504000Y-102122335D01*
X145559147Y-102399574D01*
X145667320Y-102660727D01*
X145824363Y-102895759D01*
X146024241Y-103095637D01*
X146256759Y-103251000D01*
X146024241Y-103406363D01*
X145824363Y-103606241D01*
X145717053Y-103766842D01*
X145664714Y-103771997D01*
X145521453Y-103815454D01*
X145389424Y-103886026D01*
X145273699Y-103980999D01*
X145249901Y-104009997D01*
X144373599Y-104886300D01*
X144208500Y-104886300D01*
X144208500Y-98955802D01*
X146773302Y-96391000D01*
X146990957Y-96391000D01*
X147094363Y-96545759D01*
X147294241Y-96745637D01*
X147529273Y-96902680D01*
X147790426Y-97010853D01*
X148067665Y-97066000D01*
X148350335Y-97066000D01*
X148627574Y-97010853D01*
X148888727Y-96902680D01*
X149123759Y-96745637D01*
X149245694Y-96623702D01*
X152395903Y-96623702D01*
X152467486Y-96867671D01*
X152722996Y-96988571D01*
X152997184Y-97057300D01*
X153279512Y-97071217D01*
X153559130Y-97029787D01*
X153825292Y-96934603D01*
X153950514Y-96867671D01*
X154022097Y-96623702D01*
X153209000Y-95810605D01*
X152395903Y-96623702D01*
X149245694Y-96623702D01*
X149323637Y-96545759D01*
X149480680Y-96310727D01*
X149588853Y-96049574D01*
X149644000Y-95772335D01*
X149644000Y-95701512D01*
X151768783Y-95701512D01*
X151810213Y-95981130D01*
X151905397Y-96247292D01*
X151972329Y-96372514D01*
X152216298Y-96444097D01*
X153029395Y-95631000D01*
X153388605Y-95631000D01*
X154201702Y-96444097D01*
X154445671Y-96372514D01*
X154566571Y-96117004D01*
X154635300Y-95842816D01*
X154649217Y-95560488D01*
X154607787Y-95280870D01*
X154512603Y-95014708D01*
X154445671Y-94889486D01*
X154201702Y-94817903D01*
X153388605Y-95631000D01*
X153029395Y-95631000D01*
X152216298Y-94817903D01*
X151972329Y-94889486D01*
X151851429Y-95144996D01*
X151782700Y-95419184D01*
X151768783Y-95701512D01*
X149644000Y-95701512D01*
X149644000Y-95489665D01*
X149588853Y-95212426D01*
X149480680Y-94951273D01*
X149323637Y-94716241D01*
X149245694Y-94638298D01*
X152395903Y-94638298D01*
X153209000Y-95451395D01*
X154022097Y-94638298D01*
X153992424Y-94537165D01*
X159029000Y-94537165D01*
X159029000Y-94819835D01*
X159084147Y-95097074D01*
X159192320Y-95358227D01*
X159349363Y-95593259D01*
X159549241Y-95793137D01*
X159784273Y-95950180D01*
X160045426Y-96058353D01*
X160322665Y-96113500D01*
X160605335Y-96113500D01*
X160882574Y-96058353D01*
X161143727Y-95950180D01*
X161378759Y-95793137D01*
X161500694Y-95671202D01*
X164650903Y-95671202D01*
X164722486Y-95915171D01*
X164977996Y-96036071D01*
X165252184Y-96104800D01*
X165534512Y-96118717D01*
X165814130Y-96077287D01*
X166080292Y-95982103D01*
X166205514Y-95915171D01*
X166277097Y-95671202D01*
X165464000Y-94858105D01*
X164650903Y-95671202D01*
X161500694Y-95671202D01*
X161578637Y-95593259D01*
X161735680Y-95358227D01*
X161843853Y-95097074D01*
X161899000Y-94819835D01*
X161899000Y-94749012D01*
X164023783Y-94749012D01*
X164065213Y-95028630D01*
X164160397Y-95294792D01*
X164227329Y-95420014D01*
X164471298Y-95491597D01*
X165284395Y-94678500D01*
X165643605Y-94678500D01*
X166456702Y-95491597D01*
X166700671Y-95420014D01*
X166821571Y-95164504D01*
X166890300Y-94890316D01*
X166904217Y-94607988D01*
X166862787Y-94328370D01*
X166767603Y-94062208D01*
X166700671Y-93936986D01*
X166456702Y-93865403D01*
X165643605Y-94678500D01*
X165284395Y-94678500D01*
X164471298Y-93865403D01*
X164227329Y-93936986D01*
X164106429Y-94192496D01*
X164037700Y-94466684D01*
X164023783Y-94749012D01*
X161899000Y-94749012D01*
X161899000Y-94537165D01*
X161843853Y-94259926D01*
X161735680Y-93998773D01*
X161578637Y-93763741D01*
X161500694Y-93685798D01*
X164650903Y-93685798D01*
X165464000Y-94498895D01*
X166277097Y-93685798D01*
X166205514Y-93441829D01*
X165950004Y-93320929D01*
X165675816Y-93252200D01*
X165393488Y-93238283D01*
X165113870Y-93279713D01*
X164847708Y-93374897D01*
X164722486Y-93441829D01*
X164650903Y-93685798D01*
X161500694Y-93685798D01*
X161378759Y-93563863D01*
X161143727Y-93406820D01*
X160882574Y-93298647D01*
X160605335Y-93243500D01*
X160322665Y-93243500D01*
X160045426Y-93298647D01*
X159784273Y-93406820D01*
X159549241Y-93563863D01*
X159349363Y-93763741D01*
X159192320Y-93998773D01*
X159084147Y-94259926D01*
X159029000Y-94537165D01*
X153992424Y-94537165D01*
X153950514Y-94394329D01*
X153695004Y-94273429D01*
X153420816Y-94204700D01*
X153138488Y-94190783D01*
X152858870Y-94232213D01*
X152592708Y-94327397D01*
X152467486Y-94394329D01*
X152395903Y-94638298D01*
X149245694Y-94638298D01*
X149123759Y-94516363D01*
X148888727Y-94359320D01*
X148627574Y-94251147D01*
X148350335Y-94196000D01*
X148067665Y-94196000D01*
X147790426Y-94251147D01*
X147529273Y-94359320D01*
X147294241Y-94516363D01*
X147094363Y-94716241D01*
X146990957Y-94871000D01*
X146495825Y-94871000D01*
X146458500Y-94867324D01*
X146421175Y-94871000D01*
X146421167Y-94871000D01*
X146309514Y-94881997D01*
X146166253Y-94925454D01*
X146034224Y-94996026D01*
X145918499Y-95090999D01*
X145894701Y-95119997D01*
X144208500Y-96806198D01*
X144208500Y-92519388D01*
X251968000Y-92329225D01*
X251968000Y-127634925D01*
G37*
%TD.AperFunction*%
D17*
X242024000Y-122015250D02*
X242182750Y-122174000D01*
X243332000Y-122174000D01*
X243332000Y-122154000D01*
X243586000Y-122154000D01*
X243586000Y-122174000D01*
X243606000Y-122174000D01*
X243606000Y-122428000D01*
X243586000Y-122428000D01*
X243586000Y-122448000D01*
X243332000Y-122448000D01*
X243332000Y-122428000D01*
X242182750Y-122428000D01*
X242024000Y-122586750D01*
X242020928Y-123101000D01*
X242033188Y-123225482D01*
X242069498Y-123345180D01*
X242128463Y-123455494D01*
X242207815Y-123552185D01*
X242304506Y-123631537D01*
X242414820Y-123690502D01*
X242534518Y-123726812D01*
X242659000Y-123739072D01*
X243080142Y-123736556D01*
X239189286Y-127627413D01*
X235962486Y-127625516D01*
X241939402Y-121648600D01*
X242021810Y-121648600D01*
X242024000Y-122015250D01*
%TA.AperFunction,Conductor*%
D18*
G36*
X242024000Y-122015250D02*
G01*
X242182750Y-122174000D01*
X243332000Y-122174000D01*
X243332000Y-122154000D01*
X243586000Y-122154000D01*
X243586000Y-122174000D01*
X243606000Y-122174000D01*
X243606000Y-122428000D01*
X243586000Y-122428000D01*
X243586000Y-122448000D01*
X243332000Y-122448000D01*
X243332000Y-122428000D01*
X242182750Y-122428000D01*
X242024000Y-122586750D01*
X242020928Y-123101000D01*
X242033188Y-123225482D01*
X242069498Y-123345180D01*
X242128463Y-123455494D01*
X242207815Y-123552185D01*
X242304506Y-123631537D01*
X242414820Y-123690502D01*
X242534518Y-123726812D01*
X242659000Y-123739072D01*
X243080142Y-123736556D01*
X239189286Y-127627413D01*
X235962486Y-127625516D01*
X241939402Y-121648600D01*
X242021810Y-121648600D01*
X242024000Y-122015250D01*
G37*
%TD.AperFunction*%
D17*
X234924241Y-120875637D02*
X235159273Y-121032680D01*
X235169865Y-121037067D01*
X234983869Y-121148615D01*
X234775481Y-121337586D01*
X234607963Y-121563580D01*
X234487754Y-121817913D01*
X234447096Y-121951961D01*
X234569085Y-122174000D01*
X235712000Y-122174000D01*
X235712000Y-122154000D01*
X235966000Y-122154000D01*
X235966000Y-122174000D01*
X235986000Y-122174000D01*
X235986000Y-122428000D01*
X235966000Y-122428000D01*
X235966000Y-122448000D01*
X235712000Y-122448000D01*
X235712000Y-122428000D01*
X234569085Y-122428000D01*
X234447096Y-122650039D01*
X234487754Y-122784087D01*
X234607963Y-123038420D01*
X234775481Y-123264414D01*
X234983869Y-123453385D01*
X235147424Y-123551474D01*
X231076256Y-127622643D01*
X209893711Y-127610190D01*
X214402901Y-123101000D01*
X216620928Y-123101000D01*
X216633188Y-123225482D01*
X216669498Y-123345180D01*
X216728463Y-123455494D01*
X216807815Y-123552185D01*
X216904506Y-123631537D01*
X217014820Y-123690502D01*
X217134518Y-123726812D01*
X217259000Y-123739072D01*
X217773250Y-123736000D01*
X217932000Y-123577250D01*
X217932000Y-122428000D01*
X218186000Y-122428000D01*
X218186000Y-123577250D01*
X218344750Y-123736000D01*
X218859000Y-123739072D01*
X218983482Y-123726812D01*
X219103180Y-123690502D01*
X219213494Y-123631537D01*
X219310185Y-123552185D01*
X219389537Y-123455494D01*
X219448502Y-123345180D01*
X219484812Y-123225482D01*
X219497072Y-123101000D01*
X219494379Y-122650039D01*
X221747096Y-122650039D01*
X221787754Y-122784087D01*
X221907963Y-123038420D01*
X222075481Y-123264414D01*
X222283869Y-123453385D01*
X222525119Y-123598070D01*
X222789960Y-123692909D01*
X223012000Y-123571624D01*
X223012000Y-122428000D01*
X223266000Y-122428000D01*
X223266000Y-123571624D01*
X223488040Y-123692909D01*
X223752881Y-123598070D01*
X223994131Y-123453385D01*
X224202519Y-123264414D01*
X224323649Y-123101000D01*
X229320928Y-123101000D01*
X229333188Y-123225482D01*
X229369498Y-123345180D01*
X229428463Y-123455494D01*
X229507815Y-123552185D01*
X229604506Y-123631537D01*
X229714820Y-123690502D01*
X229834518Y-123726812D01*
X229959000Y-123739072D01*
X230473250Y-123736000D01*
X230632000Y-123577250D01*
X230632000Y-122428000D01*
X230886000Y-122428000D01*
X230886000Y-123577250D01*
X231044750Y-123736000D01*
X231559000Y-123739072D01*
X231683482Y-123726812D01*
X231803180Y-123690502D01*
X231913494Y-123631537D01*
X232010185Y-123552185D01*
X232089537Y-123455494D01*
X232148502Y-123345180D01*
X232184812Y-123225482D01*
X232197072Y-123101000D01*
X232194000Y-122586750D01*
X232035250Y-122428000D01*
X230886000Y-122428000D01*
X230632000Y-122428000D01*
X229482750Y-122428000D01*
X229324000Y-122586750D01*
X229320928Y-123101000D01*
X224323649Y-123101000D01*
X224370037Y-123038420D01*
X224490246Y-122784087D01*
X224530904Y-122650039D01*
X224408915Y-122428000D01*
X223266000Y-122428000D01*
X223012000Y-122428000D01*
X221869085Y-122428000D01*
X221747096Y-122650039D01*
X219494379Y-122650039D01*
X219494000Y-122586750D01*
X219335250Y-122428000D01*
X218186000Y-122428000D01*
X217932000Y-122428000D01*
X216782750Y-122428000D01*
X216624000Y-122586750D01*
X216620928Y-123101000D01*
X214402901Y-123101000D01*
X215857602Y-121646300D01*
X216621796Y-121646300D01*
X216624000Y-122015250D01*
X216782750Y-122174000D01*
X217932000Y-122174000D01*
X217932000Y-122154000D01*
X218186000Y-122154000D01*
X218186000Y-122174000D01*
X219335250Y-122174000D01*
X219494000Y-122015250D01*
X219496204Y-121646300D01*
X220851078Y-121646300D01*
X220888400Y-121649976D01*
X220925722Y-121646300D01*
X220925733Y-121646300D01*
X221037386Y-121635303D01*
X221180647Y-121591846D01*
X221312676Y-121521274D01*
X221428401Y-121426301D01*
X221452204Y-121397298D01*
X222099053Y-120750449D01*
X222224241Y-120875637D01*
X222459273Y-121032680D01*
X222469865Y-121037067D01*
X222283869Y-121148615D01*
X222075481Y-121337586D01*
X221907963Y-121563580D01*
X221787754Y-121817913D01*
X221747096Y-121951961D01*
X221869085Y-122174000D01*
X223012000Y-122174000D01*
X223012000Y-122154000D01*
X223266000Y-122154000D01*
X223266000Y-122174000D01*
X224408915Y-122174000D01*
X224530904Y-121951961D01*
X224490246Y-121817913D01*
X224370037Y-121563580D01*
X224202519Y-121337586D01*
X223994131Y-121148615D01*
X223808135Y-121037067D01*
X223818727Y-121032680D01*
X224053759Y-120875637D01*
X224178947Y-120750449D01*
X224825800Y-121397302D01*
X224849599Y-121426301D01*
X224878597Y-121450099D01*
X224965324Y-121521274D01*
X225097353Y-121591846D01*
X225240614Y-121635303D01*
X225389600Y-121649977D01*
X225426933Y-121646300D01*
X229321796Y-121646300D01*
X229324000Y-122015250D01*
X229482750Y-122174000D01*
X230632000Y-122174000D01*
X230632000Y-122154000D01*
X230886000Y-122154000D01*
X230886000Y-122174000D01*
X232035250Y-122174000D01*
X232194000Y-122015250D01*
X232196204Y-121646300D01*
X233551078Y-121646300D01*
X233588400Y-121649976D01*
X233625722Y-121646300D01*
X233625733Y-121646300D01*
X233737386Y-121635303D01*
X233880647Y-121591846D01*
X234012676Y-121521274D01*
X234128401Y-121426301D01*
X234152204Y-121397298D01*
X234799053Y-120750449D01*
X234924241Y-120875637D01*
%TA.AperFunction,Conductor*%
D18*
G36*
X234924241Y-120875637D02*
G01*
X235159273Y-121032680D01*
X235169865Y-121037067D01*
X234983869Y-121148615D01*
X234775481Y-121337586D01*
X234607963Y-121563580D01*
X234487754Y-121817913D01*
X234447096Y-121951961D01*
X234569085Y-122174000D01*
X235712000Y-122174000D01*
X235712000Y-122154000D01*
X235966000Y-122154000D01*
X235966000Y-122174000D01*
X235986000Y-122174000D01*
X235986000Y-122428000D01*
X235966000Y-122428000D01*
X235966000Y-122448000D01*
X235712000Y-122448000D01*
X235712000Y-122428000D01*
X234569085Y-122428000D01*
X234447096Y-122650039D01*
X234487754Y-122784087D01*
X234607963Y-123038420D01*
X234775481Y-123264414D01*
X234983869Y-123453385D01*
X235147424Y-123551474D01*
X231076256Y-127622643D01*
X209893711Y-127610190D01*
X214402901Y-123101000D01*
X216620928Y-123101000D01*
X216633188Y-123225482D01*
X216669498Y-123345180D01*
X216728463Y-123455494D01*
X216807815Y-123552185D01*
X216904506Y-123631537D01*
X217014820Y-123690502D01*
X217134518Y-123726812D01*
X217259000Y-123739072D01*
X217773250Y-123736000D01*
X217932000Y-123577250D01*
X217932000Y-122428000D01*
X218186000Y-122428000D01*
X218186000Y-123577250D01*
X218344750Y-123736000D01*
X218859000Y-123739072D01*
X218983482Y-123726812D01*
X219103180Y-123690502D01*
X219213494Y-123631537D01*
X219310185Y-123552185D01*
X219389537Y-123455494D01*
X219448502Y-123345180D01*
X219484812Y-123225482D01*
X219497072Y-123101000D01*
X219494379Y-122650039D01*
X221747096Y-122650039D01*
X221787754Y-122784087D01*
X221907963Y-123038420D01*
X222075481Y-123264414D01*
X222283869Y-123453385D01*
X222525119Y-123598070D01*
X222789960Y-123692909D01*
X223012000Y-123571624D01*
X223012000Y-122428000D01*
X223266000Y-122428000D01*
X223266000Y-123571624D01*
X223488040Y-123692909D01*
X223752881Y-123598070D01*
X223994131Y-123453385D01*
X224202519Y-123264414D01*
X224323649Y-123101000D01*
X229320928Y-123101000D01*
X229333188Y-123225482D01*
X229369498Y-123345180D01*
X229428463Y-123455494D01*
X229507815Y-123552185D01*
X229604506Y-123631537D01*
X229714820Y-123690502D01*
X229834518Y-123726812D01*
X229959000Y-123739072D01*
X230473250Y-123736000D01*
X230632000Y-123577250D01*
X230632000Y-122428000D01*
X230886000Y-122428000D01*
X230886000Y-123577250D01*
X231044750Y-123736000D01*
X231559000Y-123739072D01*
X231683482Y-123726812D01*
X231803180Y-123690502D01*
X231913494Y-123631537D01*
X232010185Y-123552185D01*
X232089537Y-123455494D01*
X232148502Y-123345180D01*
X232184812Y-123225482D01*
X232197072Y-123101000D01*
X232194000Y-122586750D01*
X232035250Y-122428000D01*
X230886000Y-122428000D01*
X230632000Y-122428000D01*
X229482750Y-122428000D01*
X229324000Y-122586750D01*
X229320928Y-123101000D01*
X224323649Y-123101000D01*
X224370037Y-123038420D01*
X224490246Y-122784087D01*
X224530904Y-122650039D01*
X224408915Y-122428000D01*
X223266000Y-122428000D01*
X223012000Y-122428000D01*
X221869085Y-122428000D01*
X221747096Y-122650039D01*
X219494379Y-122650039D01*
X219494000Y-122586750D01*
X219335250Y-122428000D01*
X218186000Y-122428000D01*
X217932000Y-122428000D01*
X216782750Y-122428000D01*
X216624000Y-122586750D01*
X216620928Y-123101000D01*
X214402901Y-123101000D01*
X215857602Y-121646300D01*
X216621796Y-121646300D01*
X216624000Y-122015250D01*
X216782750Y-122174000D01*
X217932000Y-122174000D01*
X217932000Y-122154000D01*
X218186000Y-122154000D01*
X218186000Y-122174000D01*
X219335250Y-122174000D01*
X219494000Y-122015250D01*
X219496204Y-121646300D01*
X220851078Y-121646300D01*
X220888400Y-121649976D01*
X220925722Y-121646300D01*
X220925733Y-121646300D01*
X221037386Y-121635303D01*
X221180647Y-121591846D01*
X221312676Y-121521274D01*
X221428401Y-121426301D01*
X221452204Y-121397298D01*
X222099053Y-120750449D01*
X222224241Y-120875637D01*
X222459273Y-121032680D01*
X222469865Y-121037067D01*
X222283869Y-121148615D01*
X222075481Y-121337586D01*
X221907963Y-121563580D01*
X221787754Y-121817913D01*
X221747096Y-121951961D01*
X221869085Y-122174000D01*
X223012000Y-122174000D01*
X223012000Y-122154000D01*
X223266000Y-122154000D01*
X223266000Y-122174000D01*
X224408915Y-122174000D01*
X224530904Y-121951961D01*
X224490246Y-121817913D01*
X224370037Y-121563580D01*
X224202519Y-121337586D01*
X223994131Y-121148615D01*
X223808135Y-121037067D01*
X223818727Y-121032680D01*
X224053759Y-120875637D01*
X224178947Y-120750449D01*
X224825800Y-121397302D01*
X224849599Y-121426301D01*
X224878597Y-121450099D01*
X224965324Y-121521274D01*
X225097353Y-121591846D01*
X225240614Y-121635303D01*
X225389600Y-121649977D01*
X225426933Y-121646300D01*
X229321796Y-121646300D01*
X229324000Y-122015250D01*
X229482750Y-122174000D01*
X230632000Y-122174000D01*
X230632000Y-122154000D01*
X230886000Y-122154000D01*
X230886000Y-122174000D01*
X232035250Y-122174000D01*
X232194000Y-122015250D01*
X232196204Y-121646300D01*
X233551078Y-121646300D01*
X233588400Y-121649976D01*
X233625722Y-121646300D01*
X233625733Y-121646300D01*
X233737386Y-121635303D01*
X233880647Y-121591846D01*
X234012676Y-121521274D01*
X234128401Y-121426301D01*
X234152204Y-121397298D01*
X234799053Y-120750449D01*
X234924241Y-120875637D01*
G37*
%TD.AperFunction*%
D17*
X178524000Y-117079665D02*
X178524000Y-117362335D01*
X178579147Y-117639574D01*
X178687320Y-117900727D01*
X178844363Y-118135759D01*
X179044241Y-118335637D01*
X179276759Y-118491000D01*
X179044241Y-118646363D01*
X178844363Y-118846241D01*
X178687320Y-119081273D01*
X178579147Y-119342426D01*
X178524000Y-119619665D01*
X178524000Y-119902335D01*
X178579147Y-120179574D01*
X178687320Y-120440727D01*
X178844363Y-120675759D01*
X179042961Y-120874357D01*
X179034518Y-120875188D01*
X178914820Y-120911498D01*
X178804506Y-120970463D01*
X178707815Y-121049815D01*
X178628463Y-121146506D01*
X178569498Y-121256820D01*
X178533188Y-121376518D01*
X178520928Y-121501000D01*
X178524000Y-122015250D01*
X178682750Y-122174000D01*
X179832000Y-122174000D01*
X179832000Y-122154000D01*
X180086000Y-122154000D01*
X180086000Y-122174000D01*
X181235250Y-122174000D01*
X181394000Y-122015250D01*
X181397072Y-121501000D01*
X181384812Y-121376518D01*
X181348502Y-121256820D01*
X181289537Y-121146506D01*
X181210185Y-121049815D01*
X181113494Y-120970463D01*
X181003180Y-120911498D01*
X180883482Y-120875188D01*
X180875039Y-120874357D01*
X181073637Y-120675759D01*
X181230680Y-120440727D01*
X181338853Y-120179574D01*
X181394000Y-119902335D01*
X181394000Y-119619665D01*
X181338853Y-119342426D01*
X181230680Y-119081273D01*
X181073637Y-118846241D01*
X180873759Y-118646363D01*
X180641241Y-118491000D01*
X180873759Y-118335637D01*
X180998947Y-118210449D01*
X181645801Y-118857303D01*
X181669599Y-118886301D01*
X181698597Y-118910099D01*
X181785324Y-118981274D01*
X181917353Y-119051846D01*
X182060614Y-119095303D01*
X182209600Y-119109977D01*
X182246933Y-119106300D01*
X183756953Y-119106300D01*
X183659147Y-119342426D01*
X183604000Y-119619665D01*
X183604000Y-119902335D01*
X183659147Y-120179574D01*
X183767320Y-120440727D01*
X183924363Y-120675759D01*
X184124241Y-120875637D01*
X184359273Y-121032680D01*
X184369865Y-121037067D01*
X184183869Y-121148615D01*
X183975481Y-121337586D01*
X183807963Y-121563580D01*
X183687754Y-121817913D01*
X183647096Y-121951961D01*
X183769085Y-122174000D01*
X184912000Y-122174000D01*
X184912000Y-122154000D01*
X185166000Y-122154000D01*
X185166000Y-122174000D01*
X185186000Y-122174000D01*
X185186000Y-122428000D01*
X185166000Y-122428000D01*
X185166000Y-123571624D01*
X185388040Y-123692909D01*
X185450101Y-123670685D01*
X185450101Y-124889697D01*
X182745568Y-127594230D01*
X175441838Y-127589937D01*
X171586800Y-123734899D01*
X171586800Y-123515116D01*
X171725119Y-123598070D01*
X171989960Y-123692909D01*
X172212000Y-123571624D01*
X172212000Y-122428000D01*
X172466000Y-122428000D01*
X172466000Y-123571624D01*
X172688040Y-123692909D01*
X172952881Y-123598070D01*
X173194131Y-123453385D01*
X173402519Y-123264414D01*
X173523649Y-123101000D01*
X178520928Y-123101000D01*
X178533188Y-123225482D01*
X178569498Y-123345180D01*
X178628463Y-123455494D01*
X178707815Y-123552185D01*
X178804506Y-123631537D01*
X178914820Y-123690502D01*
X179034518Y-123726812D01*
X179159000Y-123739072D01*
X179673250Y-123736000D01*
X179832000Y-123577250D01*
X179832000Y-122428000D01*
X180086000Y-122428000D01*
X180086000Y-123577250D01*
X180244750Y-123736000D01*
X180759000Y-123739072D01*
X180883482Y-123726812D01*
X181003180Y-123690502D01*
X181113494Y-123631537D01*
X181210185Y-123552185D01*
X181289537Y-123455494D01*
X181348502Y-123345180D01*
X181384812Y-123225482D01*
X181397072Y-123101000D01*
X181394379Y-122650039D01*
X183647096Y-122650039D01*
X183687754Y-122784087D01*
X183807963Y-123038420D01*
X183975481Y-123264414D01*
X184183869Y-123453385D01*
X184425119Y-123598070D01*
X184689960Y-123692909D01*
X184912000Y-123571624D01*
X184912000Y-122428000D01*
X183769085Y-122428000D01*
X183647096Y-122650039D01*
X181394379Y-122650039D01*
X181394000Y-122586750D01*
X181235250Y-122428000D01*
X180086000Y-122428000D01*
X179832000Y-122428000D01*
X178682750Y-122428000D01*
X178524000Y-122586750D01*
X178520928Y-123101000D01*
X173523649Y-123101000D01*
X173570037Y-123038420D01*
X173690246Y-122784087D01*
X173730904Y-122650039D01*
X173608915Y-122428000D01*
X172466000Y-122428000D01*
X172212000Y-122428000D01*
X172192000Y-122428000D01*
X172192000Y-122174000D01*
X172212000Y-122174000D01*
X172212000Y-122154000D01*
X172466000Y-122154000D01*
X172466000Y-122174000D01*
X173608915Y-122174000D01*
X173730904Y-121951961D01*
X173690246Y-121817913D01*
X173570037Y-121563580D01*
X173402519Y-121337586D01*
X173194131Y-121148615D01*
X173008135Y-121037067D01*
X173018727Y-121032680D01*
X173253759Y-120875637D01*
X173453637Y-120675759D01*
X173610680Y-120440727D01*
X173718853Y-120179574D01*
X173774000Y-119902335D01*
X173774000Y-119619665D01*
X173718853Y-119342426D01*
X173610680Y-119081273D01*
X173453637Y-118846241D01*
X173253759Y-118646363D01*
X173021241Y-118491000D01*
X173253759Y-118335637D01*
X173453637Y-118135759D01*
X173610680Y-117900727D01*
X173718853Y-117639574D01*
X173774000Y-117362335D01*
X173774000Y-117079665D01*
X173729450Y-116855700D01*
X178568550Y-116855700D01*
X178524000Y-117079665D01*
%TA.AperFunction,Conductor*%
D18*
G36*
X178524000Y-117079665D02*
G01*
X178524000Y-117362335D01*
X178579147Y-117639574D01*
X178687320Y-117900727D01*
X178844363Y-118135759D01*
X179044241Y-118335637D01*
X179276759Y-118491000D01*
X179044241Y-118646363D01*
X178844363Y-118846241D01*
X178687320Y-119081273D01*
X178579147Y-119342426D01*
X178524000Y-119619665D01*
X178524000Y-119902335D01*
X178579147Y-120179574D01*
X178687320Y-120440727D01*
X178844363Y-120675759D01*
X179042961Y-120874357D01*
X179034518Y-120875188D01*
X178914820Y-120911498D01*
X178804506Y-120970463D01*
X178707815Y-121049815D01*
X178628463Y-121146506D01*
X178569498Y-121256820D01*
X178533188Y-121376518D01*
X178520928Y-121501000D01*
X178524000Y-122015250D01*
X178682750Y-122174000D01*
X179832000Y-122174000D01*
X179832000Y-122154000D01*
X180086000Y-122154000D01*
X180086000Y-122174000D01*
X181235250Y-122174000D01*
X181394000Y-122015250D01*
X181397072Y-121501000D01*
X181384812Y-121376518D01*
X181348502Y-121256820D01*
X181289537Y-121146506D01*
X181210185Y-121049815D01*
X181113494Y-120970463D01*
X181003180Y-120911498D01*
X180883482Y-120875188D01*
X180875039Y-120874357D01*
X181073637Y-120675759D01*
X181230680Y-120440727D01*
X181338853Y-120179574D01*
X181394000Y-119902335D01*
X181394000Y-119619665D01*
X181338853Y-119342426D01*
X181230680Y-119081273D01*
X181073637Y-118846241D01*
X180873759Y-118646363D01*
X180641241Y-118491000D01*
X180873759Y-118335637D01*
X180998947Y-118210449D01*
X181645801Y-118857303D01*
X181669599Y-118886301D01*
X181698597Y-118910099D01*
X181785324Y-118981274D01*
X181917353Y-119051846D01*
X182060614Y-119095303D01*
X182209600Y-119109977D01*
X182246933Y-119106300D01*
X183756953Y-119106300D01*
X183659147Y-119342426D01*
X183604000Y-119619665D01*
X183604000Y-119902335D01*
X183659147Y-120179574D01*
X183767320Y-120440727D01*
X183924363Y-120675759D01*
X184124241Y-120875637D01*
X184359273Y-121032680D01*
X184369865Y-121037067D01*
X184183869Y-121148615D01*
X183975481Y-121337586D01*
X183807963Y-121563580D01*
X183687754Y-121817913D01*
X183647096Y-121951961D01*
X183769085Y-122174000D01*
X184912000Y-122174000D01*
X184912000Y-122154000D01*
X185166000Y-122154000D01*
X185166000Y-122174000D01*
X185186000Y-122174000D01*
X185186000Y-122428000D01*
X185166000Y-122428000D01*
X185166000Y-123571624D01*
X185388040Y-123692909D01*
X185450101Y-123670685D01*
X185450101Y-124889697D01*
X182745568Y-127594230D01*
X175441838Y-127589937D01*
X171586800Y-123734899D01*
X171586800Y-123515116D01*
X171725119Y-123598070D01*
X171989960Y-123692909D01*
X172212000Y-123571624D01*
X172212000Y-122428000D01*
X172466000Y-122428000D01*
X172466000Y-123571624D01*
X172688040Y-123692909D01*
X172952881Y-123598070D01*
X173194131Y-123453385D01*
X173402519Y-123264414D01*
X173523649Y-123101000D01*
X178520928Y-123101000D01*
X178533188Y-123225482D01*
X178569498Y-123345180D01*
X178628463Y-123455494D01*
X178707815Y-123552185D01*
X178804506Y-123631537D01*
X178914820Y-123690502D01*
X179034518Y-123726812D01*
X179159000Y-123739072D01*
X179673250Y-123736000D01*
X179832000Y-123577250D01*
X179832000Y-122428000D01*
X180086000Y-122428000D01*
X180086000Y-123577250D01*
X180244750Y-123736000D01*
X180759000Y-123739072D01*
X180883482Y-123726812D01*
X181003180Y-123690502D01*
X181113494Y-123631537D01*
X181210185Y-123552185D01*
X181289537Y-123455494D01*
X181348502Y-123345180D01*
X181384812Y-123225482D01*
X181397072Y-123101000D01*
X181394379Y-122650039D01*
X183647096Y-122650039D01*
X183687754Y-122784087D01*
X183807963Y-123038420D01*
X183975481Y-123264414D01*
X184183869Y-123453385D01*
X184425119Y-123598070D01*
X184689960Y-123692909D01*
X184912000Y-123571624D01*
X184912000Y-122428000D01*
X183769085Y-122428000D01*
X183647096Y-122650039D01*
X181394379Y-122650039D01*
X181394000Y-122586750D01*
X181235250Y-122428000D01*
X180086000Y-122428000D01*
X179832000Y-122428000D01*
X178682750Y-122428000D01*
X178524000Y-122586750D01*
X178520928Y-123101000D01*
X173523649Y-123101000D01*
X173570037Y-123038420D01*
X173690246Y-122784087D01*
X173730904Y-122650039D01*
X173608915Y-122428000D01*
X172466000Y-122428000D01*
X172212000Y-122428000D01*
X172192000Y-122428000D01*
X172192000Y-122174000D01*
X172212000Y-122174000D01*
X172212000Y-122154000D01*
X172466000Y-122154000D01*
X172466000Y-122174000D01*
X173608915Y-122174000D01*
X173730904Y-121951961D01*
X173690246Y-121817913D01*
X173570037Y-121563580D01*
X173402519Y-121337586D01*
X173194131Y-121148615D01*
X173008135Y-121037067D01*
X173018727Y-121032680D01*
X173253759Y-120875637D01*
X173453637Y-120675759D01*
X173610680Y-120440727D01*
X173718853Y-120179574D01*
X173774000Y-119902335D01*
X173774000Y-119619665D01*
X173718853Y-119342426D01*
X173610680Y-119081273D01*
X173453637Y-118846241D01*
X173253759Y-118646363D01*
X173021241Y-118491000D01*
X173253759Y-118335637D01*
X173453637Y-118135759D01*
X173610680Y-117900727D01*
X173718853Y-117639574D01*
X173774000Y-117362335D01*
X173774000Y-117079665D01*
X173729450Y-116855700D01*
X178568550Y-116855700D01*
X178524000Y-117079665D01*
G37*
%TD.AperFunction*%
D17*
X145559147Y-119342426D02*
X145504000Y-119619665D01*
X145504000Y-119902335D01*
X145559147Y-120179574D01*
X145667320Y-120440727D01*
X145824363Y-120675759D01*
X146024241Y-120875637D01*
X146259273Y-121032680D01*
X146269865Y-121037067D01*
X146083869Y-121148615D01*
X145875481Y-121337586D01*
X145707963Y-121563580D01*
X145587754Y-121817913D01*
X145547096Y-121951961D01*
X145669085Y-122174000D01*
X146812000Y-122174000D01*
X146812000Y-122154000D01*
X147066000Y-122154000D01*
X147066000Y-122174000D01*
X148208915Y-122174000D01*
X148330904Y-121951961D01*
X148290246Y-121817913D01*
X148170037Y-121563580D01*
X148002519Y-121337586D01*
X147794131Y-121148615D01*
X147608135Y-121037067D01*
X147618727Y-121032680D01*
X147853759Y-120875637D01*
X147978947Y-120750449D01*
X148625800Y-121397302D01*
X148649599Y-121426301D01*
X148678597Y-121450099D01*
X148765324Y-121521274D01*
X148897353Y-121591846D01*
X149040614Y-121635303D01*
X149189600Y-121649977D01*
X149226933Y-121646300D01*
X153121796Y-121646300D01*
X153124000Y-122015250D01*
X153282750Y-122174000D01*
X154432000Y-122174000D01*
X154432000Y-122154000D01*
X154686000Y-122154000D01*
X154686000Y-122174000D01*
X155835250Y-122174000D01*
X155994000Y-122015250D01*
X155996204Y-121646300D01*
X158368866Y-121646300D01*
X158287754Y-121817913D01*
X158247096Y-121951961D01*
X158369085Y-122174000D01*
X159512000Y-122174000D01*
X159512000Y-122154000D01*
X159766000Y-122154000D01*
X159766000Y-122174000D01*
X160908915Y-122174000D01*
X161030904Y-121951961D01*
X160990246Y-121817913D01*
X160909134Y-121646300D01*
X165821796Y-121646300D01*
X165824000Y-122015250D01*
X165982750Y-122174000D01*
X167132000Y-122174000D01*
X167132000Y-122154000D01*
X167386000Y-122154000D01*
X167386000Y-122174000D01*
X167406000Y-122174000D01*
X167406000Y-122428000D01*
X167386000Y-122428000D01*
X167386000Y-123577250D01*
X167544750Y-123736000D01*
X168059000Y-123739072D01*
X168183482Y-123726812D01*
X168303180Y-123690502D01*
X168413494Y-123631537D01*
X168507383Y-123554484D01*
X172541130Y-127588231D01*
X153249692Y-127576890D01*
X149257604Y-123584803D01*
X149233801Y-123555799D01*
X149118076Y-123460826D01*
X148986047Y-123390254D01*
X148842786Y-123346797D01*
X148731133Y-123335800D01*
X148731122Y-123335800D01*
X148693800Y-123332124D01*
X148656478Y-123335800D01*
X147923798Y-123335800D01*
X148002519Y-123264414D01*
X148123649Y-123101000D01*
X153120928Y-123101000D01*
X153133188Y-123225482D01*
X153169498Y-123345180D01*
X153228463Y-123455494D01*
X153307815Y-123552185D01*
X153404506Y-123631537D01*
X153514820Y-123690502D01*
X153634518Y-123726812D01*
X153759000Y-123739072D01*
X154273250Y-123736000D01*
X154432000Y-123577250D01*
X154432000Y-122428000D01*
X154686000Y-122428000D01*
X154686000Y-123577250D01*
X154844750Y-123736000D01*
X155359000Y-123739072D01*
X155483482Y-123726812D01*
X155603180Y-123690502D01*
X155713494Y-123631537D01*
X155810185Y-123552185D01*
X155889537Y-123455494D01*
X155948502Y-123345180D01*
X155984812Y-123225482D01*
X155997072Y-123101000D01*
X155994379Y-122650039D01*
X158247096Y-122650039D01*
X158287754Y-122784087D01*
X158407963Y-123038420D01*
X158575481Y-123264414D01*
X158783869Y-123453385D01*
X159025119Y-123598070D01*
X159289960Y-123692909D01*
X159512000Y-123571624D01*
X159512000Y-122428000D01*
X159766000Y-122428000D01*
X159766000Y-123571624D01*
X159988040Y-123692909D01*
X160252881Y-123598070D01*
X160494131Y-123453385D01*
X160702519Y-123264414D01*
X160823649Y-123101000D01*
X165820928Y-123101000D01*
X165833188Y-123225482D01*
X165869498Y-123345180D01*
X165928463Y-123455494D01*
X166007815Y-123552185D01*
X166104506Y-123631537D01*
X166214820Y-123690502D01*
X166334518Y-123726812D01*
X166459000Y-123739072D01*
X166973250Y-123736000D01*
X167132000Y-123577250D01*
X167132000Y-122428000D01*
X165982750Y-122428000D01*
X165824000Y-122586750D01*
X165820928Y-123101000D01*
X160823649Y-123101000D01*
X160870037Y-123038420D01*
X160990246Y-122784087D01*
X161030904Y-122650039D01*
X160908915Y-122428000D01*
X159766000Y-122428000D01*
X159512000Y-122428000D01*
X158369085Y-122428000D01*
X158247096Y-122650039D01*
X155994379Y-122650039D01*
X155994000Y-122586750D01*
X155835250Y-122428000D01*
X154686000Y-122428000D01*
X154432000Y-122428000D01*
X153282750Y-122428000D01*
X153124000Y-122586750D01*
X153120928Y-123101000D01*
X148123649Y-123101000D01*
X148170037Y-123038420D01*
X148290246Y-122784087D01*
X148330904Y-122650039D01*
X148208915Y-122428000D01*
X147066000Y-122428000D01*
X147066000Y-122448000D01*
X146812000Y-122448000D01*
X146812000Y-122428000D01*
X145669085Y-122428000D01*
X145547096Y-122650039D01*
X145587754Y-122784087D01*
X145707963Y-123038420D01*
X145875481Y-123264414D01*
X145954202Y-123335800D01*
X144208500Y-123335800D01*
X144208500Y-119106300D01*
X145656953Y-119106300D01*
X145559147Y-119342426D01*
%TA.AperFunction,Conductor*%
D18*
G36*
X145559147Y-119342426D02*
G01*
X145504000Y-119619665D01*
X145504000Y-119902335D01*
X145559147Y-120179574D01*
X145667320Y-120440727D01*
X145824363Y-120675759D01*
X146024241Y-120875637D01*
X146259273Y-121032680D01*
X146269865Y-121037067D01*
X146083869Y-121148615D01*
X145875481Y-121337586D01*
X145707963Y-121563580D01*
X145587754Y-121817913D01*
X145547096Y-121951961D01*
X145669085Y-122174000D01*
X146812000Y-122174000D01*
X146812000Y-122154000D01*
X147066000Y-122154000D01*
X147066000Y-122174000D01*
X148208915Y-122174000D01*
X148330904Y-121951961D01*
X148290246Y-121817913D01*
X148170037Y-121563580D01*
X148002519Y-121337586D01*
X147794131Y-121148615D01*
X147608135Y-121037067D01*
X147618727Y-121032680D01*
X147853759Y-120875637D01*
X147978947Y-120750449D01*
X148625800Y-121397302D01*
X148649599Y-121426301D01*
X148678597Y-121450099D01*
X148765324Y-121521274D01*
X148897353Y-121591846D01*
X149040614Y-121635303D01*
X149189600Y-121649977D01*
X149226933Y-121646300D01*
X153121796Y-121646300D01*
X153124000Y-122015250D01*
X153282750Y-122174000D01*
X154432000Y-122174000D01*
X154432000Y-122154000D01*
X154686000Y-122154000D01*
X154686000Y-122174000D01*
X155835250Y-122174000D01*
X155994000Y-122015250D01*
X155996204Y-121646300D01*
X158368866Y-121646300D01*
X158287754Y-121817913D01*
X158247096Y-121951961D01*
X158369085Y-122174000D01*
X159512000Y-122174000D01*
X159512000Y-122154000D01*
X159766000Y-122154000D01*
X159766000Y-122174000D01*
X160908915Y-122174000D01*
X161030904Y-121951961D01*
X160990246Y-121817913D01*
X160909134Y-121646300D01*
X165821796Y-121646300D01*
X165824000Y-122015250D01*
X165982750Y-122174000D01*
X167132000Y-122174000D01*
X167132000Y-122154000D01*
X167386000Y-122154000D01*
X167386000Y-122174000D01*
X167406000Y-122174000D01*
X167406000Y-122428000D01*
X167386000Y-122428000D01*
X167386000Y-123577250D01*
X167544750Y-123736000D01*
X168059000Y-123739072D01*
X168183482Y-123726812D01*
X168303180Y-123690502D01*
X168413494Y-123631537D01*
X168507383Y-123554484D01*
X172541130Y-127588231D01*
X153249692Y-127576890D01*
X149257604Y-123584803D01*
X149233801Y-123555799D01*
X149118076Y-123460826D01*
X148986047Y-123390254D01*
X148842786Y-123346797D01*
X148731133Y-123335800D01*
X148731122Y-123335800D01*
X148693800Y-123332124D01*
X148656478Y-123335800D01*
X147923798Y-123335800D01*
X148002519Y-123264414D01*
X148123649Y-123101000D01*
X153120928Y-123101000D01*
X153133188Y-123225482D01*
X153169498Y-123345180D01*
X153228463Y-123455494D01*
X153307815Y-123552185D01*
X153404506Y-123631537D01*
X153514820Y-123690502D01*
X153634518Y-123726812D01*
X153759000Y-123739072D01*
X154273250Y-123736000D01*
X154432000Y-123577250D01*
X154432000Y-122428000D01*
X154686000Y-122428000D01*
X154686000Y-123577250D01*
X154844750Y-123736000D01*
X155359000Y-123739072D01*
X155483482Y-123726812D01*
X155603180Y-123690502D01*
X155713494Y-123631537D01*
X155810185Y-123552185D01*
X155889537Y-123455494D01*
X155948502Y-123345180D01*
X155984812Y-123225482D01*
X155997072Y-123101000D01*
X155994379Y-122650039D01*
X158247096Y-122650039D01*
X158287754Y-122784087D01*
X158407963Y-123038420D01*
X158575481Y-123264414D01*
X158783869Y-123453385D01*
X159025119Y-123598070D01*
X159289960Y-123692909D01*
X159512000Y-123571624D01*
X159512000Y-122428000D01*
X159766000Y-122428000D01*
X159766000Y-123571624D01*
X159988040Y-123692909D01*
X160252881Y-123598070D01*
X160494131Y-123453385D01*
X160702519Y-123264414D01*
X160823649Y-123101000D01*
X165820928Y-123101000D01*
X165833188Y-123225482D01*
X165869498Y-123345180D01*
X165928463Y-123455494D01*
X166007815Y-123552185D01*
X166104506Y-123631537D01*
X166214820Y-123690502D01*
X166334518Y-123726812D01*
X166459000Y-123739072D01*
X166973250Y-123736000D01*
X167132000Y-123577250D01*
X167132000Y-122428000D01*
X165982750Y-122428000D01*
X165824000Y-122586750D01*
X165820928Y-123101000D01*
X160823649Y-123101000D01*
X160870037Y-123038420D01*
X160990246Y-122784087D01*
X161030904Y-122650039D01*
X160908915Y-122428000D01*
X159766000Y-122428000D01*
X159512000Y-122428000D01*
X158369085Y-122428000D01*
X158247096Y-122650039D01*
X155994379Y-122650039D01*
X155994000Y-122586750D01*
X155835250Y-122428000D01*
X154686000Y-122428000D01*
X154432000Y-122428000D01*
X153282750Y-122428000D01*
X153124000Y-122586750D01*
X153120928Y-123101000D01*
X148123649Y-123101000D01*
X148170037Y-123038420D01*
X148290246Y-122784087D01*
X148330904Y-122650039D01*
X148208915Y-122428000D01*
X147066000Y-122428000D01*
X147066000Y-122448000D01*
X146812000Y-122448000D01*
X146812000Y-122428000D01*
X145669085Y-122428000D01*
X145547096Y-122650039D01*
X145587754Y-122784087D01*
X145707963Y-123038420D01*
X145875481Y-123264414D01*
X145954202Y-123335800D01*
X144208500Y-123335800D01*
X144208500Y-119106300D01*
X145656953Y-119106300D01*
X145559147Y-119342426D01*
G37*
%TD.AperFunction*%
D17*
X194860301Y-118857303D02*
X194884099Y-118886301D01*
X194913097Y-118910099D01*
X194999823Y-118981274D01*
X195126484Y-119048976D01*
X195131853Y-119051846D01*
X195275114Y-119095303D01*
X195386767Y-119106300D01*
X195386776Y-119106300D01*
X195424099Y-119109976D01*
X195461422Y-119106300D01*
X196456953Y-119106300D01*
X196359147Y-119342426D01*
X196304000Y-119619665D01*
X196304000Y-119902335D01*
X196359147Y-120179574D01*
X196467320Y-120440727D01*
X196624363Y-120675759D01*
X196824241Y-120875637D01*
X197059273Y-121032680D01*
X197069865Y-121037067D01*
X196883869Y-121148615D01*
X196675481Y-121337586D01*
X196507963Y-121563580D01*
X196387754Y-121817913D01*
X196347096Y-121951961D01*
X196469085Y-122174000D01*
X197612000Y-122174000D01*
X197612000Y-122154000D01*
X197866000Y-122154000D01*
X197866000Y-122174000D01*
X199008915Y-122174000D01*
X199130904Y-121951961D01*
X199090246Y-121817913D01*
X198970037Y-121563580D01*
X198802519Y-121337586D01*
X198594131Y-121148615D01*
X198408135Y-121037067D01*
X198418727Y-121032680D01*
X198653759Y-120875637D01*
X198778947Y-120750449D01*
X199425800Y-121397302D01*
X199449599Y-121426301D01*
X199478597Y-121450099D01*
X199565324Y-121521274D01*
X199697353Y-121591846D01*
X199840614Y-121635303D01*
X199989600Y-121649977D01*
X200026933Y-121646300D01*
X203921796Y-121646300D01*
X203924000Y-122015250D01*
X204082750Y-122174000D01*
X205232000Y-122174000D01*
X205232000Y-122154000D01*
X205486000Y-122154000D01*
X205486000Y-122174000D01*
X206635250Y-122174000D01*
X206794000Y-122015250D01*
X206796204Y-121646300D01*
X208151078Y-121646300D01*
X208188400Y-121649976D01*
X208225722Y-121646300D01*
X208225733Y-121646300D01*
X208337386Y-121635303D01*
X208480647Y-121591846D01*
X208612676Y-121521274D01*
X208728401Y-121426301D01*
X208752204Y-121397298D01*
X209399053Y-120750449D01*
X209524241Y-120875637D01*
X209759273Y-121032680D01*
X209769865Y-121037067D01*
X209583869Y-121148615D01*
X209375481Y-121337586D01*
X209207963Y-121563580D01*
X209087754Y-121817913D01*
X209047096Y-121951961D01*
X209169085Y-122174000D01*
X210312000Y-122174000D01*
X210312000Y-122154000D01*
X210566000Y-122154000D01*
X210566000Y-122174000D01*
X211708915Y-122174000D01*
X211830904Y-121951961D01*
X211790246Y-121817913D01*
X211670037Y-121563580D01*
X211502519Y-121337586D01*
X211294131Y-121148615D01*
X211108135Y-121037067D01*
X211118727Y-121032680D01*
X211353759Y-120875637D01*
X211553637Y-120675759D01*
X211710680Y-120440727D01*
X211818853Y-120179574D01*
X211874000Y-119902335D01*
X211874000Y-119619665D01*
X211818853Y-119342426D01*
X211710680Y-119081273D01*
X211553637Y-118846241D01*
X211353759Y-118646363D01*
X211121241Y-118491000D01*
X211353759Y-118335637D01*
X211478947Y-118210449D01*
X212125801Y-118857303D01*
X212149599Y-118886301D01*
X212178597Y-118910099D01*
X212265324Y-118981274D01*
X212397353Y-119051846D01*
X212540614Y-119095303D01*
X212689600Y-119109977D01*
X212726933Y-119106300D01*
X216776953Y-119106300D01*
X216679147Y-119342426D01*
X216624000Y-119619665D01*
X216624000Y-119902335D01*
X216668550Y-120126300D01*
X215580122Y-120126300D01*
X215542799Y-120122624D01*
X215505476Y-120126300D01*
X215505467Y-120126300D01*
X215393814Y-120137297D01*
X215250553Y-120180754D01*
X215118524Y-120251326D01*
X215002799Y-120346299D01*
X214979001Y-120375297D01*
X207916999Y-127437300D01*
X185120022Y-127437300D01*
X185082699Y-127433624D01*
X185052837Y-127436565D01*
X186721103Y-125768299D01*
X186750101Y-125744501D01*
X186845074Y-125628776D01*
X186915646Y-125496747D01*
X186959103Y-125353486D01*
X186970100Y-125241833D01*
X186973777Y-125204500D01*
X186970100Y-125167167D01*
X186970100Y-123101000D01*
X191220928Y-123101000D01*
X191233188Y-123225482D01*
X191269498Y-123345180D01*
X191328463Y-123455494D01*
X191407815Y-123552185D01*
X191504506Y-123631537D01*
X191614820Y-123690502D01*
X191734518Y-123726812D01*
X191859000Y-123739072D01*
X192373250Y-123736000D01*
X192532000Y-123577250D01*
X192532000Y-122428000D01*
X192786000Y-122428000D01*
X192786000Y-123577250D01*
X192944750Y-123736000D01*
X193459000Y-123739072D01*
X193583482Y-123726812D01*
X193703180Y-123690502D01*
X193813494Y-123631537D01*
X193910185Y-123552185D01*
X193989537Y-123455494D01*
X194048502Y-123345180D01*
X194084812Y-123225482D01*
X194097072Y-123101000D01*
X194094379Y-122650039D01*
X196347096Y-122650039D01*
X196387754Y-122784087D01*
X196507963Y-123038420D01*
X196675481Y-123264414D01*
X196883869Y-123453385D01*
X197125119Y-123598070D01*
X197389960Y-123692909D01*
X197612000Y-123571624D01*
X197612000Y-122428000D01*
X197866000Y-122428000D01*
X197866000Y-123571624D01*
X198088040Y-123692909D01*
X198352881Y-123598070D01*
X198594131Y-123453385D01*
X198802519Y-123264414D01*
X198923649Y-123101000D01*
X203920928Y-123101000D01*
X203933188Y-123225482D01*
X203969498Y-123345180D01*
X204028463Y-123455494D01*
X204107815Y-123552185D01*
X204204506Y-123631537D01*
X204314820Y-123690502D01*
X204434518Y-123726812D01*
X204559000Y-123739072D01*
X205073250Y-123736000D01*
X205232000Y-123577250D01*
X205232000Y-122428000D01*
X205486000Y-122428000D01*
X205486000Y-123577250D01*
X205644750Y-123736000D01*
X206159000Y-123739072D01*
X206283482Y-123726812D01*
X206403180Y-123690502D01*
X206513494Y-123631537D01*
X206610185Y-123552185D01*
X206689537Y-123455494D01*
X206748502Y-123345180D01*
X206784812Y-123225482D01*
X206797072Y-123101000D01*
X206794379Y-122650039D01*
X209047096Y-122650039D01*
X209087754Y-122784087D01*
X209207963Y-123038420D01*
X209375481Y-123264414D01*
X209583869Y-123453385D01*
X209825119Y-123598070D01*
X210089960Y-123692909D01*
X210312000Y-123571624D01*
X210312000Y-122428000D01*
X210566000Y-122428000D01*
X210566000Y-123571624D01*
X210788040Y-123692909D01*
X211052881Y-123598070D01*
X211294131Y-123453385D01*
X211502519Y-123264414D01*
X211670037Y-123038420D01*
X211790246Y-122784087D01*
X211830904Y-122650039D01*
X211708915Y-122428000D01*
X210566000Y-122428000D01*
X210312000Y-122428000D01*
X209169085Y-122428000D01*
X209047096Y-122650039D01*
X206794379Y-122650039D01*
X206794000Y-122586750D01*
X206635250Y-122428000D01*
X205486000Y-122428000D01*
X205232000Y-122428000D01*
X204082750Y-122428000D01*
X203924000Y-122586750D01*
X203920928Y-123101000D01*
X198923649Y-123101000D01*
X198970037Y-123038420D01*
X199090246Y-122784087D01*
X199130904Y-122650039D01*
X199008915Y-122428000D01*
X197866000Y-122428000D01*
X197612000Y-122428000D01*
X196469085Y-122428000D01*
X196347096Y-122650039D01*
X194094379Y-122650039D01*
X194094000Y-122586750D01*
X193935250Y-122428000D01*
X192786000Y-122428000D01*
X192532000Y-122428000D01*
X191382750Y-122428000D01*
X191224000Y-122586750D01*
X191220928Y-123101000D01*
X186970100Y-123101000D01*
X186970100Y-119106300D01*
X190371078Y-119106300D01*
X190408400Y-119109976D01*
X190445722Y-119106300D01*
X190445733Y-119106300D01*
X190557386Y-119095303D01*
X190700647Y-119051846D01*
X190832676Y-118981274D01*
X190948401Y-118886301D01*
X190972204Y-118857298D01*
X191619053Y-118210449D01*
X191744241Y-118335637D01*
X191976759Y-118491000D01*
X191744241Y-118646363D01*
X191544363Y-118846241D01*
X191387320Y-119081273D01*
X191279147Y-119342426D01*
X191224000Y-119619665D01*
X191224000Y-119902335D01*
X191279147Y-120179574D01*
X191387320Y-120440727D01*
X191544363Y-120675759D01*
X191742961Y-120874357D01*
X191734518Y-120875188D01*
X191614820Y-120911498D01*
X191504506Y-120970463D01*
X191407815Y-121049815D01*
X191328463Y-121146506D01*
X191269498Y-121256820D01*
X191233188Y-121376518D01*
X191220928Y-121501000D01*
X191224000Y-122015250D01*
X191382750Y-122174000D01*
X192532000Y-122174000D01*
X192532000Y-122154000D01*
X192786000Y-122154000D01*
X192786000Y-122174000D01*
X193935250Y-122174000D01*
X194094000Y-122015250D01*
X194097072Y-121501000D01*
X194084812Y-121376518D01*
X194048502Y-121256820D01*
X193989537Y-121146506D01*
X193910185Y-121049815D01*
X193813494Y-120970463D01*
X193703180Y-120911498D01*
X193583482Y-120875188D01*
X193575039Y-120874357D01*
X193773637Y-120675759D01*
X193930680Y-120440727D01*
X194038853Y-120179574D01*
X194094000Y-119902335D01*
X194094000Y-119619665D01*
X194038853Y-119342426D01*
X193930680Y-119081273D01*
X193773637Y-118846241D01*
X193573759Y-118646363D01*
X193341241Y-118491000D01*
X193573759Y-118335637D01*
X193773637Y-118135759D01*
X193919884Y-117916885D01*
X194860301Y-118857303D01*
%TA.AperFunction,Conductor*%
D18*
G36*
X194860301Y-118857303D02*
G01*
X194884099Y-118886301D01*
X194913097Y-118910099D01*
X194999823Y-118981274D01*
X195126484Y-119048976D01*
X195131853Y-119051846D01*
X195275114Y-119095303D01*
X195386767Y-119106300D01*
X195386776Y-119106300D01*
X195424099Y-119109976D01*
X195461422Y-119106300D01*
X196456953Y-119106300D01*
X196359147Y-119342426D01*
X196304000Y-119619665D01*
X196304000Y-119902335D01*
X196359147Y-120179574D01*
X196467320Y-120440727D01*
X196624363Y-120675759D01*
X196824241Y-120875637D01*
X197059273Y-121032680D01*
X197069865Y-121037067D01*
X196883869Y-121148615D01*
X196675481Y-121337586D01*
X196507963Y-121563580D01*
X196387754Y-121817913D01*
X196347096Y-121951961D01*
X196469085Y-122174000D01*
X197612000Y-122174000D01*
X197612000Y-122154000D01*
X197866000Y-122154000D01*
X197866000Y-122174000D01*
X199008915Y-122174000D01*
X199130904Y-121951961D01*
X199090246Y-121817913D01*
X198970037Y-121563580D01*
X198802519Y-121337586D01*
X198594131Y-121148615D01*
X198408135Y-121037067D01*
X198418727Y-121032680D01*
X198653759Y-120875637D01*
X198778947Y-120750449D01*
X199425800Y-121397302D01*
X199449599Y-121426301D01*
X199478597Y-121450099D01*
X199565324Y-121521274D01*
X199697353Y-121591846D01*
X199840614Y-121635303D01*
X199989600Y-121649977D01*
X200026933Y-121646300D01*
X203921796Y-121646300D01*
X203924000Y-122015250D01*
X204082750Y-122174000D01*
X205232000Y-122174000D01*
X205232000Y-122154000D01*
X205486000Y-122154000D01*
X205486000Y-122174000D01*
X206635250Y-122174000D01*
X206794000Y-122015250D01*
X206796204Y-121646300D01*
X208151078Y-121646300D01*
X208188400Y-121649976D01*
X208225722Y-121646300D01*
X208225733Y-121646300D01*
X208337386Y-121635303D01*
X208480647Y-121591846D01*
X208612676Y-121521274D01*
X208728401Y-121426301D01*
X208752204Y-121397298D01*
X209399053Y-120750449D01*
X209524241Y-120875637D01*
X209759273Y-121032680D01*
X209769865Y-121037067D01*
X209583869Y-121148615D01*
X209375481Y-121337586D01*
X209207963Y-121563580D01*
X209087754Y-121817913D01*
X209047096Y-121951961D01*
X209169085Y-122174000D01*
X210312000Y-122174000D01*
X210312000Y-122154000D01*
X210566000Y-122154000D01*
X210566000Y-122174000D01*
X211708915Y-122174000D01*
X211830904Y-121951961D01*
X211790246Y-121817913D01*
X211670037Y-121563580D01*
X211502519Y-121337586D01*
X211294131Y-121148615D01*
X211108135Y-121037067D01*
X211118727Y-121032680D01*
X211353759Y-120875637D01*
X211553637Y-120675759D01*
X211710680Y-120440727D01*
X211818853Y-120179574D01*
X211874000Y-119902335D01*
X211874000Y-119619665D01*
X211818853Y-119342426D01*
X211710680Y-119081273D01*
X211553637Y-118846241D01*
X211353759Y-118646363D01*
X211121241Y-118491000D01*
X211353759Y-118335637D01*
X211478947Y-118210449D01*
X212125801Y-118857303D01*
X212149599Y-118886301D01*
X212178597Y-118910099D01*
X212265324Y-118981274D01*
X212397353Y-119051846D01*
X212540614Y-119095303D01*
X212689600Y-119109977D01*
X212726933Y-119106300D01*
X216776953Y-119106300D01*
X216679147Y-119342426D01*
X216624000Y-119619665D01*
X216624000Y-119902335D01*
X216668550Y-120126300D01*
X215580122Y-120126300D01*
X215542799Y-120122624D01*
X215505476Y-120126300D01*
X215505467Y-120126300D01*
X215393814Y-120137297D01*
X215250553Y-120180754D01*
X215118524Y-120251326D01*
X215002799Y-120346299D01*
X214979001Y-120375297D01*
X207916999Y-127437300D01*
X185120022Y-127437300D01*
X185082699Y-127433624D01*
X185052837Y-127436565D01*
X186721103Y-125768299D01*
X186750101Y-125744501D01*
X186845074Y-125628776D01*
X186915646Y-125496747D01*
X186959103Y-125353486D01*
X186970100Y-125241833D01*
X186973777Y-125204500D01*
X186970100Y-125167167D01*
X186970100Y-123101000D01*
X191220928Y-123101000D01*
X191233188Y-123225482D01*
X191269498Y-123345180D01*
X191328463Y-123455494D01*
X191407815Y-123552185D01*
X191504506Y-123631537D01*
X191614820Y-123690502D01*
X191734518Y-123726812D01*
X191859000Y-123739072D01*
X192373250Y-123736000D01*
X192532000Y-123577250D01*
X192532000Y-122428000D01*
X192786000Y-122428000D01*
X192786000Y-123577250D01*
X192944750Y-123736000D01*
X193459000Y-123739072D01*
X193583482Y-123726812D01*
X193703180Y-123690502D01*
X193813494Y-123631537D01*
X193910185Y-123552185D01*
X193989537Y-123455494D01*
X194048502Y-123345180D01*
X194084812Y-123225482D01*
X194097072Y-123101000D01*
X194094379Y-122650039D01*
X196347096Y-122650039D01*
X196387754Y-122784087D01*
X196507963Y-123038420D01*
X196675481Y-123264414D01*
X196883869Y-123453385D01*
X197125119Y-123598070D01*
X197389960Y-123692909D01*
X197612000Y-123571624D01*
X197612000Y-122428000D01*
X197866000Y-122428000D01*
X197866000Y-123571624D01*
X198088040Y-123692909D01*
X198352881Y-123598070D01*
X198594131Y-123453385D01*
X198802519Y-123264414D01*
X198923649Y-123101000D01*
X203920928Y-123101000D01*
X203933188Y-123225482D01*
X203969498Y-123345180D01*
X204028463Y-123455494D01*
X204107815Y-123552185D01*
X204204506Y-123631537D01*
X204314820Y-123690502D01*
X204434518Y-123726812D01*
X204559000Y-123739072D01*
X205073250Y-123736000D01*
X205232000Y-123577250D01*
X205232000Y-122428000D01*
X205486000Y-122428000D01*
X205486000Y-123577250D01*
X205644750Y-123736000D01*
X206159000Y-123739072D01*
X206283482Y-123726812D01*
X206403180Y-123690502D01*
X206513494Y-123631537D01*
X206610185Y-123552185D01*
X206689537Y-123455494D01*
X206748502Y-123345180D01*
X206784812Y-123225482D01*
X206797072Y-123101000D01*
X206794379Y-122650039D01*
X209047096Y-122650039D01*
X209087754Y-122784087D01*
X209207963Y-123038420D01*
X209375481Y-123264414D01*
X209583869Y-123453385D01*
X209825119Y-123598070D01*
X210089960Y-123692909D01*
X210312000Y-123571624D01*
X210312000Y-122428000D01*
X210566000Y-122428000D01*
X210566000Y-123571624D01*
X210788040Y-123692909D01*
X211052881Y-123598070D01*
X211294131Y-123453385D01*
X211502519Y-123264414D01*
X211670037Y-123038420D01*
X211790246Y-122784087D01*
X211830904Y-122650039D01*
X211708915Y-122428000D01*
X210566000Y-122428000D01*
X210312000Y-122428000D01*
X209169085Y-122428000D01*
X209047096Y-122650039D01*
X206794379Y-122650039D01*
X206794000Y-122586750D01*
X206635250Y-122428000D01*
X205486000Y-122428000D01*
X205232000Y-122428000D01*
X204082750Y-122428000D01*
X203924000Y-122586750D01*
X203920928Y-123101000D01*
X198923649Y-123101000D01*
X198970037Y-123038420D01*
X199090246Y-122784087D01*
X199130904Y-122650039D01*
X199008915Y-122428000D01*
X197866000Y-122428000D01*
X197612000Y-122428000D01*
X196469085Y-122428000D01*
X196347096Y-122650039D01*
X194094379Y-122650039D01*
X194094000Y-122586750D01*
X193935250Y-122428000D01*
X192786000Y-122428000D01*
X192532000Y-122428000D01*
X191382750Y-122428000D01*
X191224000Y-122586750D01*
X191220928Y-123101000D01*
X186970100Y-123101000D01*
X186970100Y-119106300D01*
X190371078Y-119106300D01*
X190408400Y-119109976D01*
X190445722Y-119106300D01*
X190445733Y-119106300D01*
X190557386Y-119095303D01*
X190700647Y-119051846D01*
X190832676Y-118981274D01*
X190948401Y-118886301D01*
X190972204Y-118857298D01*
X191619053Y-118210449D01*
X191744241Y-118335637D01*
X191976759Y-118491000D01*
X191744241Y-118646363D01*
X191544363Y-118846241D01*
X191387320Y-119081273D01*
X191279147Y-119342426D01*
X191224000Y-119619665D01*
X191224000Y-119902335D01*
X191279147Y-120179574D01*
X191387320Y-120440727D01*
X191544363Y-120675759D01*
X191742961Y-120874357D01*
X191734518Y-120875188D01*
X191614820Y-120911498D01*
X191504506Y-120970463D01*
X191407815Y-121049815D01*
X191328463Y-121146506D01*
X191269498Y-121256820D01*
X191233188Y-121376518D01*
X191220928Y-121501000D01*
X191224000Y-122015250D01*
X191382750Y-122174000D01*
X192532000Y-122174000D01*
X192532000Y-122154000D01*
X192786000Y-122154000D01*
X192786000Y-122174000D01*
X193935250Y-122174000D01*
X194094000Y-122015250D01*
X194097072Y-121501000D01*
X194084812Y-121376518D01*
X194048502Y-121256820D01*
X193989537Y-121146506D01*
X193910185Y-121049815D01*
X193813494Y-120970463D01*
X193703180Y-120911498D01*
X193583482Y-120875188D01*
X193575039Y-120874357D01*
X193773637Y-120675759D01*
X193930680Y-120440727D01*
X194038853Y-120179574D01*
X194094000Y-119902335D01*
X194094000Y-119619665D01*
X194038853Y-119342426D01*
X193930680Y-119081273D01*
X193773637Y-118846241D01*
X193573759Y-118646363D01*
X193341241Y-118491000D01*
X193573759Y-118335637D01*
X193773637Y-118135759D01*
X193919884Y-117916885D01*
X194860301Y-118857303D01*
G37*
%TD.AperFunction*%
%TD*%
D19*
X112903238Y-95249515D02*
X112966260Y-128714500D01*
X96456978Y-128714500D01*
X96583022Y-95186986D01*
X112903238Y-95249515D01*
%TA.AperFunction,NonConductor*%
D20*
G36*
X112903238Y-95249515D02*
G01*
X112966260Y-128714500D01*
X96456978Y-128714500D01*
X96583022Y-95186986D01*
X112903238Y-95249515D01*
G37*
%TD.AperFunction*%
M02*
