%TF.GenerationSoftware,KiCad,Pcbnew,(5.1.10)-1*%
%TF.CreationDate,2021-06-21T22:38:47-07:00*%
%TF.ProjectId,A1050,41313035-302e-46b6-9963-61645f706362,rev?*%
%TF.SameCoordinates,Original*%
%TF.FileFunction,Legend,Bot*%
%TF.FilePolarity,Positive*%
%FSLAX46Y46*%
G04 Gerber Fmt 4.6, Leading zero omitted, Abs format (unit mm)*
G04 Created by KiCad (PCBNEW (5.1.10)-1) date 2021-06-21 22:38:47*
%MOMM*%
%LPD*%
G01*
G04 APERTURE LIST*
%ADD10C,0.150000*%
%ADD11C,0.120000*%
%ADD12C,0.700000*%
%ADD13C,0.300000*%
%ADD14C,0.500000*%
G04 APERTURE END LIST*
D10*
X99836508Y-136803380D02*
X99265080Y-136803380D01*
X99675794Y-137803380D02*
X99550794Y-136803380D01*
X98741270Y-136803380D02*
X98550794Y-136803380D01*
X98461508Y-136851000D01*
X98378175Y-136946238D01*
X98354366Y-137136714D01*
X98396032Y-137470047D01*
X98467461Y-137660523D01*
X98574604Y-137755761D01*
X98675794Y-137803380D01*
X98866270Y-137803380D01*
X98955556Y-137755761D01*
X99038889Y-137660523D01*
X99062699Y-137470047D01*
X99021032Y-137136714D01*
X98949604Y-136946238D01*
X98842461Y-136851000D01*
X98741270Y-136803380D01*
X98009127Y-137803380D02*
X97884127Y-136803380D01*
X97646032Y-136803380D01*
X97509127Y-136851000D01*
X97425794Y-136946238D01*
X97390080Y-137041476D01*
X97366270Y-137231952D01*
X97384127Y-137374809D01*
X97455556Y-137565285D01*
X97515080Y-137660523D01*
X97622223Y-137755761D01*
X97771032Y-137803380D01*
X98009127Y-137803380D01*
X100253175Y-138548619D02*
X100199604Y-138501000D01*
X100098413Y-138453380D01*
X99860318Y-138453380D01*
X99771032Y-138501000D01*
X99729366Y-138548619D01*
X99693651Y-138643857D01*
X99705556Y-138739095D01*
X99771032Y-138881952D01*
X100413889Y-139453380D01*
X99794842Y-139453380D01*
X99050794Y-138453380D02*
X98955556Y-138453380D01*
X98866270Y-138501000D01*
X98824604Y-138548619D01*
X98788889Y-138643857D01*
X98765080Y-138834333D01*
X98794842Y-139072428D01*
X98866270Y-139262904D01*
X98925794Y-139358142D01*
X98979366Y-139405761D01*
X99080556Y-139453380D01*
X99175794Y-139453380D01*
X99265080Y-139405761D01*
X99306747Y-139358142D01*
X99342461Y-139262904D01*
X99366270Y-139072428D01*
X99336508Y-138834333D01*
X99265080Y-138643857D01*
X99205556Y-138548619D01*
X99151985Y-138501000D01*
X99050794Y-138453380D01*
X98348413Y-138548619D02*
X98294842Y-138501000D01*
X98193651Y-138453380D01*
X97955556Y-138453380D01*
X97866270Y-138501000D01*
X97824604Y-138548619D01*
X97788889Y-138643857D01*
X97800794Y-138739095D01*
X97866270Y-138881952D01*
X98509127Y-139453380D01*
X97890080Y-139453380D01*
X96937699Y-139453380D02*
X97509127Y-139453380D01*
X97223413Y-139453380D02*
X97098413Y-138453380D01*
X97211508Y-138596238D01*
X97318651Y-138691476D01*
X97419842Y-138739095D01*
D11*
X101981000Y-96901000D02*
X97345500Y-96901000D01*
D12*
X118441886Y-94178333D02*
X116060934Y-94178333D01*
X119096648Y-95606904D02*
X116804982Y-90606904D01*
X115763315Y-95606904D01*
X114096648Y-95606904D02*
X113679982Y-92273571D01*
X113739505Y-92749761D02*
X113471648Y-92511666D01*
X112965696Y-92273571D01*
X112251410Y-92273571D01*
X111804982Y-92511666D01*
X111626410Y-92987857D01*
X111953791Y-95606904D01*
X111626410Y-92987857D02*
X111328791Y-92511666D01*
X110822839Y-92273571D01*
X110108553Y-92273571D01*
X109662125Y-92511666D01*
X109483553Y-92987857D01*
X109810934Y-95606904D01*
X107429982Y-95606904D02*
X107013315Y-92273571D01*
X106804982Y-90606904D02*
X107072839Y-90845000D01*
X106864505Y-91083095D01*
X106596648Y-90845000D01*
X106804982Y-90606904D01*
X106864505Y-91083095D01*
X102489505Y-92273571D02*
X102995458Y-96321190D01*
X103293077Y-96797380D01*
X103560934Y-97035476D01*
X104066886Y-97273571D01*
X104781172Y-97273571D01*
X105227601Y-97035476D01*
X102876410Y-95368809D02*
X103382363Y-95606904D01*
X104334744Y-95606904D01*
X104781172Y-95368809D01*
X104989505Y-95130714D01*
X105168077Y-94654523D01*
X104989505Y-93225952D01*
X104691886Y-92749761D01*
X104424029Y-92511666D01*
X103918077Y-92273571D01*
X102965696Y-92273571D01*
X102519267Y-92511666D01*
X98382363Y-95606904D02*
X98054982Y-92987857D01*
X98233553Y-92511666D01*
X98679982Y-92273571D01*
X99632363Y-92273571D01*
X100138315Y-92511666D01*
X98352601Y-95368809D02*
X98858553Y-95606904D01*
X100049029Y-95606904D01*
X100495458Y-95368809D01*
X100674029Y-94892619D01*
X100614505Y-94416428D01*
X100316886Y-93940238D01*
X99810934Y-93702142D01*
X98620458Y-93702142D01*
X98114505Y-93464047D01*
D11*
X121539000Y-96901000D02*
X106299000Y-96901000D01*
X117729000Y-89281000D02*
X121539000Y-96901000D01*
D13*
X107266428Y-99462642D02*
X107195000Y-99534071D01*
X107123571Y-99676928D01*
X107123571Y-100034071D01*
X107195000Y-100176928D01*
X107266428Y-100248357D01*
X107409285Y-100319785D01*
X107552142Y-100319785D01*
X107766428Y-100248357D01*
X108623571Y-99391214D01*
X108623571Y-100319785D01*
X107123571Y-101676928D02*
X107123571Y-100962642D01*
X107837857Y-100891214D01*
X107766428Y-100962642D01*
X107695000Y-101105500D01*
X107695000Y-101462642D01*
X107766428Y-101605500D01*
X107837857Y-101676928D01*
X107980714Y-101748357D01*
X108337857Y-101748357D01*
X108480714Y-101676928D01*
X108552142Y-101605500D01*
X108623571Y-101462642D01*
X108623571Y-101105500D01*
X108552142Y-100962642D01*
X108480714Y-100891214D01*
X107123571Y-103034071D02*
X107123571Y-102748357D01*
X107195000Y-102605500D01*
X107266428Y-102534071D01*
X107480714Y-102391214D01*
X107766428Y-102319785D01*
X108337857Y-102319785D01*
X108480714Y-102391214D01*
X108552142Y-102462642D01*
X108623571Y-102605500D01*
X108623571Y-102891214D01*
X108552142Y-103034071D01*
X108480714Y-103105500D01*
X108337857Y-103176928D01*
X107980714Y-103176928D01*
X107837857Y-103105500D01*
X107766428Y-103034071D01*
X107695000Y-102891214D01*
X107695000Y-102605500D01*
X107766428Y-102462642D01*
X107837857Y-102391214D01*
X107980714Y-102319785D01*
X108623571Y-103819785D02*
X107123571Y-103819785D01*
X108052142Y-103962642D02*
X108623571Y-104391214D01*
X107623571Y-104391214D02*
X108195000Y-103819785D01*
X107837857Y-105534071D02*
X107909285Y-105748357D01*
X107980714Y-105819785D01*
X108123571Y-105891214D01*
X108337857Y-105891214D01*
X108480714Y-105819785D01*
X108552142Y-105748357D01*
X108623571Y-105605500D01*
X108623571Y-105034071D01*
X107123571Y-105034071D01*
X107123571Y-105534071D01*
X107195000Y-105676928D01*
X107266428Y-105748357D01*
X107409285Y-105819785D01*
X107552142Y-105819785D01*
X107695000Y-105748357D01*
X107766428Y-105676928D01*
X107837857Y-105534071D01*
X107837857Y-105034071D01*
X108623571Y-108534071D02*
X107909285Y-108034071D01*
X108623571Y-107676928D02*
X107123571Y-107676928D01*
X107123571Y-108248357D01*
X107195000Y-108391214D01*
X107266428Y-108462642D01*
X107409285Y-108534071D01*
X107623571Y-108534071D01*
X107766428Y-108462642D01*
X107837857Y-108391214D01*
X107909285Y-108248357D01*
X107909285Y-107676928D01*
X108195000Y-109105500D02*
X108195000Y-109819785D01*
X108623571Y-108962642D02*
X107123571Y-109462642D01*
X108623571Y-109962642D01*
X108623571Y-110462642D02*
X107123571Y-110462642D01*
X108195000Y-110962642D01*
X107123571Y-111462642D01*
X108623571Y-111462642D01*
X107837857Y-113319785D02*
X107837857Y-113819785D01*
X108623571Y-114034071D02*
X108623571Y-113319785D01*
X107123571Y-113319785D01*
X107123571Y-114034071D01*
X108623571Y-114534071D02*
X107623571Y-115319785D01*
X107623571Y-114534071D02*
X108623571Y-115319785D01*
X107623571Y-115891214D02*
X109123571Y-115891214D01*
X107695000Y-115891214D02*
X107623571Y-116034071D01*
X107623571Y-116319785D01*
X107695000Y-116462642D01*
X107766428Y-116534071D01*
X107909285Y-116605500D01*
X108337857Y-116605500D01*
X108480714Y-116534071D01*
X108552142Y-116462642D01*
X108623571Y-116319785D01*
X108623571Y-116034071D01*
X108552142Y-115891214D01*
X108623571Y-117891214D02*
X107837857Y-117891214D01*
X107695000Y-117819785D01*
X107623571Y-117676928D01*
X107623571Y-117391214D01*
X107695000Y-117248357D01*
X108552142Y-117891214D02*
X108623571Y-117748357D01*
X108623571Y-117391214D01*
X108552142Y-117248357D01*
X108409285Y-117176928D01*
X108266428Y-117176928D01*
X108123571Y-117248357D01*
X108052142Y-117391214D01*
X108052142Y-117748357D01*
X107980714Y-117891214D01*
X107623571Y-118605500D02*
X108623571Y-118605500D01*
X107766428Y-118605500D02*
X107695000Y-118676928D01*
X107623571Y-118819785D01*
X107623571Y-119034071D01*
X107695000Y-119176928D01*
X107837857Y-119248357D01*
X108623571Y-119248357D01*
X108552142Y-119891214D02*
X108623571Y-120034071D01*
X108623571Y-120319785D01*
X108552142Y-120462642D01*
X108409285Y-120534071D01*
X108337857Y-120534071D01*
X108195000Y-120462642D01*
X108123571Y-120319785D01*
X108123571Y-120105500D01*
X108052142Y-119962642D01*
X107909285Y-119891214D01*
X107837857Y-119891214D01*
X107695000Y-119962642D01*
X107623571Y-120105500D01*
X107623571Y-120319785D01*
X107695000Y-120462642D01*
X108623571Y-121176928D02*
X107623571Y-121176928D01*
X107123571Y-121176928D02*
X107195000Y-121105500D01*
X107266428Y-121176928D01*
X107195000Y-121248357D01*
X107123571Y-121176928D01*
X107266428Y-121176928D01*
X108623571Y-122105500D02*
X108552142Y-121962642D01*
X108480714Y-121891214D01*
X108337857Y-121819785D01*
X107909285Y-121819785D01*
X107766428Y-121891214D01*
X107695000Y-121962642D01*
X107623571Y-122105500D01*
X107623571Y-122319785D01*
X107695000Y-122462642D01*
X107766428Y-122534071D01*
X107909285Y-122605500D01*
X108337857Y-122605500D01*
X108480714Y-122534071D01*
X108552142Y-122462642D01*
X108623571Y-122319785D01*
X108623571Y-122105500D01*
X107623571Y-123248357D02*
X108623571Y-123248357D01*
X107766428Y-123248357D02*
X107695000Y-123319785D01*
X107623571Y-123462642D01*
X107623571Y-123676928D01*
X107695000Y-123819785D01*
X107837857Y-123891214D01*
X108623571Y-123891214D01*
X107623571Y-125534071D02*
X107623571Y-126105500D01*
X108623571Y-125748357D02*
X107337857Y-125748357D01*
X107195000Y-125819785D01*
X107123571Y-125962642D01*
X107123571Y-126105500D01*
X108623571Y-126819785D02*
X108552142Y-126676928D01*
X108480714Y-126605500D01*
X108337857Y-126534071D01*
X107909285Y-126534071D01*
X107766428Y-126605500D01*
X107695000Y-126676928D01*
X107623571Y-126819785D01*
X107623571Y-127034071D01*
X107695000Y-127176928D01*
X107766428Y-127248357D01*
X107909285Y-127319785D01*
X108337857Y-127319785D01*
X108480714Y-127248357D01*
X108552142Y-127176928D01*
X108623571Y-127034071D01*
X108623571Y-126819785D01*
X108623571Y-127962642D02*
X107623571Y-127962642D01*
X107909285Y-127962642D02*
X107766428Y-128034071D01*
X107695000Y-128105500D01*
X107623571Y-128248357D01*
X107623571Y-128391214D01*
X111030714Y-100498357D02*
X111102142Y-100426928D01*
X111173571Y-100212642D01*
X111173571Y-100069785D01*
X111102142Y-99855500D01*
X110959285Y-99712642D01*
X110816428Y-99641214D01*
X110530714Y-99569785D01*
X110316428Y-99569785D01*
X110030714Y-99641214D01*
X109887857Y-99712642D01*
X109745000Y-99855500D01*
X109673571Y-100069785D01*
X109673571Y-100212642D01*
X109745000Y-100426928D01*
X109816428Y-100498357D01*
X111173571Y-101355500D02*
X111102142Y-101212642D01*
X111030714Y-101141214D01*
X110887857Y-101069785D01*
X110459285Y-101069785D01*
X110316428Y-101141214D01*
X110245000Y-101212642D01*
X110173571Y-101355500D01*
X110173571Y-101569785D01*
X110245000Y-101712642D01*
X110316428Y-101784071D01*
X110459285Y-101855500D01*
X110887857Y-101855500D01*
X111030714Y-101784071D01*
X111102142Y-101712642D01*
X111173571Y-101569785D01*
X111173571Y-101355500D01*
X111173571Y-102498357D02*
X110173571Y-102498357D01*
X110316428Y-102498357D02*
X110245000Y-102569785D01*
X110173571Y-102712642D01*
X110173571Y-102926928D01*
X110245000Y-103069785D01*
X110387857Y-103141214D01*
X111173571Y-103141214D01*
X110387857Y-103141214D02*
X110245000Y-103212642D01*
X110173571Y-103355500D01*
X110173571Y-103569785D01*
X110245000Y-103712642D01*
X110387857Y-103784071D01*
X111173571Y-103784071D01*
X111173571Y-104498357D02*
X110173571Y-104498357D01*
X110316428Y-104498357D02*
X110245000Y-104569785D01*
X110173571Y-104712642D01*
X110173571Y-104926928D01*
X110245000Y-105069785D01*
X110387857Y-105141214D01*
X111173571Y-105141214D01*
X110387857Y-105141214D02*
X110245000Y-105212642D01*
X110173571Y-105355500D01*
X110173571Y-105569785D01*
X110245000Y-105712642D01*
X110387857Y-105784071D01*
X111173571Y-105784071D01*
X111173571Y-106712642D02*
X111102142Y-106569785D01*
X111030714Y-106498357D01*
X110887857Y-106426928D01*
X110459285Y-106426928D01*
X110316428Y-106498357D01*
X110245000Y-106569785D01*
X110173571Y-106712642D01*
X110173571Y-106926928D01*
X110245000Y-107069785D01*
X110316428Y-107141214D01*
X110459285Y-107212642D01*
X110887857Y-107212642D01*
X111030714Y-107141214D01*
X111102142Y-107069785D01*
X111173571Y-106926928D01*
X111173571Y-106712642D01*
X111173571Y-108498357D02*
X109673571Y-108498357D01*
X111102142Y-108498357D02*
X111173571Y-108355500D01*
X111173571Y-108069785D01*
X111102142Y-107926928D01*
X111030714Y-107855500D01*
X110887857Y-107784071D01*
X110459285Y-107784071D01*
X110316428Y-107855500D01*
X110245000Y-107926928D01*
X110173571Y-108069785D01*
X110173571Y-108355500D01*
X110245000Y-108498357D01*
X111173571Y-109426928D02*
X111102142Y-109284071D01*
X111030714Y-109212642D01*
X110887857Y-109141214D01*
X110459285Y-109141214D01*
X110316428Y-109212642D01*
X110245000Y-109284071D01*
X110173571Y-109426928D01*
X110173571Y-109641214D01*
X110245000Y-109784071D01*
X110316428Y-109855500D01*
X110459285Y-109926928D01*
X110887857Y-109926928D01*
X111030714Y-109855500D01*
X111102142Y-109784071D01*
X111173571Y-109641214D01*
X111173571Y-109426928D01*
X111173571Y-110569785D02*
X110173571Y-110569785D01*
X110459285Y-110569785D02*
X110316428Y-110641214D01*
X110245000Y-110712642D01*
X110173571Y-110855500D01*
X110173571Y-110998357D01*
X111102142Y-112069785D02*
X111173571Y-111926928D01*
X111173571Y-111641214D01*
X111102142Y-111498357D01*
X110959285Y-111426928D01*
X110387857Y-111426928D01*
X110245000Y-111498357D01*
X110173571Y-111641214D01*
X110173571Y-111926928D01*
X110245000Y-112069785D01*
X110387857Y-112141214D01*
X110530714Y-112141214D01*
X110673571Y-111426928D01*
X110745000Y-113855500D02*
X110745000Y-114569785D01*
X111173571Y-113712642D02*
X109673571Y-114212642D01*
X111173571Y-114712642D01*
X111173571Y-115212642D02*
X110173571Y-115212642D01*
X110316428Y-115212642D02*
X110245000Y-115284071D01*
X110173571Y-115426928D01*
X110173571Y-115641214D01*
X110245000Y-115784071D01*
X110387857Y-115855500D01*
X111173571Y-115855500D01*
X110387857Y-115855500D02*
X110245000Y-115926928D01*
X110173571Y-116069785D01*
X110173571Y-116284071D01*
X110245000Y-116426928D01*
X110387857Y-116498357D01*
X111173571Y-116498357D01*
X111173571Y-117212642D02*
X110173571Y-117212642D01*
X109673571Y-117212642D02*
X109745000Y-117141214D01*
X109816428Y-117212642D01*
X109745000Y-117284071D01*
X109673571Y-117212642D01*
X109816428Y-117212642D01*
X110173571Y-118569785D02*
X111387857Y-118569785D01*
X111530714Y-118498357D01*
X111602142Y-118426928D01*
X111673571Y-118284071D01*
X111673571Y-118069785D01*
X111602142Y-117926928D01*
X111102142Y-118569785D02*
X111173571Y-118426928D01*
X111173571Y-118141214D01*
X111102142Y-117998357D01*
X111030714Y-117926928D01*
X110887857Y-117855500D01*
X110459285Y-117855500D01*
X110316428Y-117926928D01*
X110245000Y-117998357D01*
X110173571Y-118141214D01*
X110173571Y-118426928D01*
X110245000Y-118569785D01*
X111173571Y-119926928D02*
X110387857Y-119926928D01*
X110245000Y-119855500D01*
X110173571Y-119712642D01*
X110173571Y-119426928D01*
X110245000Y-119284071D01*
X111102142Y-119926928D02*
X111173571Y-119784071D01*
X111173571Y-119426928D01*
X111102142Y-119284071D01*
X110959285Y-119212642D01*
X110816428Y-119212642D01*
X110673571Y-119284071D01*
X110602142Y-119426928D01*
X110602142Y-119784071D01*
X110530714Y-119926928D01*
X110745000Y-121712642D02*
X110745000Y-122426928D01*
X111173571Y-121569785D02*
X109673571Y-122069785D01*
X111173571Y-122569785D01*
X111173571Y-123855500D02*
X111173571Y-122998357D01*
X111173571Y-123426928D02*
X109673571Y-123426928D01*
X109887857Y-123284071D01*
X110030714Y-123141214D01*
X110102142Y-122998357D01*
X109673571Y-124784071D02*
X109673571Y-124926928D01*
X109745000Y-125069785D01*
X109816428Y-125141214D01*
X109959285Y-125212642D01*
X110245000Y-125284071D01*
X110602142Y-125284071D01*
X110887857Y-125212642D01*
X111030714Y-125141214D01*
X111102142Y-125069785D01*
X111173571Y-124926928D01*
X111173571Y-124784071D01*
X111102142Y-124641214D01*
X111030714Y-124569785D01*
X110887857Y-124498357D01*
X110602142Y-124426928D01*
X110245000Y-124426928D01*
X109959285Y-124498357D01*
X109816428Y-124569785D01*
X109745000Y-124641214D01*
X109673571Y-124784071D01*
X109673571Y-126212642D02*
X109673571Y-126355500D01*
X109745000Y-126498357D01*
X109816428Y-126569785D01*
X109959285Y-126641214D01*
X110245000Y-126712642D01*
X110602142Y-126712642D01*
X110887857Y-126641214D01*
X111030714Y-126569785D01*
X111102142Y-126498357D01*
X111173571Y-126355500D01*
X111173571Y-126212642D01*
X111102142Y-126069785D01*
X111030714Y-125998357D01*
X110887857Y-125926928D01*
X110602142Y-125855500D01*
X110245000Y-125855500D01*
X109959285Y-125926928D01*
X109816428Y-125998357D01*
X109745000Y-126069785D01*
X109673571Y-126212642D01*
X109673571Y-127641214D02*
X109673571Y-127784071D01*
X109745000Y-127926928D01*
X109816428Y-127998357D01*
X109959285Y-128069785D01*
X110245000Y-128141214D01*
X110602142Y-128141214D01*
X110887857Y-128069785D01*
X111030714Y-127998357D01*
X111102142Y-127926928D01*
X111173571Y-127784071D01*
X111173571Y-127641214D01*
X111102142Y-127498357D01*
X111030714Y-127426928D01*
X110887857Y-127355500D01*
X110602142Y-127284071D01*
X110245000Y-127284071D01*
X109959285Y-127355500D01*
X109816428Y-127426928D01*
X109745000Y-127498357D01*
X109673571Y-127641214D01*
D14*
X104683666Y-99629309D02*
X104683666Y-100819785D01*
X105397952Y-99391214D02*
X102897952Y-100224547D01*
X105397952Y-101057880D01*
X105397952Y-103200738D02*
X105397952Y-101772166D01*
X105397952Y-102486452D02*
X102897952Y-102486452D01*
X103255095Y-102248357D01*
X103493190Y-102010261D01*
X103612238Y-101772166D01*
X102897952Y-104748357D02*
X102897952Y-104986452D01*
X103017000Y-105224547D01*
X103136047Y-105343595D01*
X103374142Y-105462642D01*
X103850333Y-105581690D01*
X104445571Y-105581690D01*
X104921761Y-105462642D01*
X105159857Y-105343595D01*
X105278904Y-105224547D01*
X105397952Y-104986452D01*
X105397952Y-104748357D01*
X105278904Y-104510261D01*
X105159857Y-104391214D01*
X104921761Y-104272166D01*
X104445571Y-104153119D01*
X103850333Y-104153119D01*
X103374142Y-104272166D01*
X103136047Y-104391214D01*
X103017000Y-104510261D01*
X102897952Y-104748357D01*
X102897952Y-107843595D02*
X102897952Y-106653119D01*
X104088428Y-106534071D01*
X103969380Y-106653119D01*
X103850333Y-106891214D01*
X103850333Y-107486452D01*
X103969380Y-107724547D01*
X104088428Y-107843595D01*
X104326523Y-107962642D01*
X104921761Y-107962642D01*
X105159857Y-107843595D01*
X105278904Y-107724547D01*
X105397952Y-107486452D01*
X105397952Y-106891214D01*
X105278904Y-106653119D01*
X105159857Y-106534071D01*
X102897952Y-109510261D02*
X102897952Y-109748357D01*
X103017000Y-109986452D01*
X103136047Y-110105500D01*
X103374142Y-110224547D01*
X103850333Y-110343595D01*
X104445571Y-110343595D01*
X104921761Y-110224547D01*
X105159857Y-110105500D01*
X105278904Y-109986452D01*
X105397952Y-109748357D01*
X105397952Y-109510261D01*
X105278904Y-109272166D01*
X105159857Y-109153119D01*
X104921761Y-109034071D01*
X104445571Y-108915023D01*
X103850333Y-108915023D01*
X103374142Y-109034071D01*
X103136047Y-109153119D01*
X103017000Y-109272166D01*
X102897952Y-109510261D01*
X105397952Y-113319785D02*
X102897952Y-113319785D01*
X104445571Y-113557880D02*
X105397952Y-114272166D01*
X103731285Y-114272166D02*
X104683666Y-113319785D01*
X103731285Y-115343595D02*
X105397952Y-115343595D01*
X103969380Y-115343595D02*
X103850333Y-115462642D01*
X103731285Y-115700738D01*
X103731285Y-116057880D01*
X103850333Y-116295976D01*
X104088428Y-116415023D01*
X105397952Y-116415023D01*
X105397952Y-117962642D02*
X105278904Y-117724547D01*
X105159857Y-117605500D01*
X104921761Y-117486452D01*
X104207476Y-117486452D01*
X103969380Y-117605500D01*
X103850333Y-117724547D01*
X103731285Y-117962642D01*
X103731285Y-118319785D01*
X103850333Y-118557880D01*
X103969380Y-118676928D01*
X104207476Y-118795976D01*
X104921761Y-118795976D01*
X105159857Y-118676928D01*
X105278904Y-118557880D01*
X105397952Y-118319785D01*
X105397952Y-117962642D01*
X105278904Y-120938833D02*
X105397952Y-120700738D01*
X105397952Y-120224547D01*
X105278904Y-119986452D01*
X105159857Y-119867404D01*
X104921761Y-119748357D01*
X104207476Y-119748357D01*
X103969380Y-119867404D01*
X103850333Y-119986452D01*
X103731285Y-120224547D01*
X103731285Y-120700738D01*
X103850333Y-120938833D01*
X105397952Y-122010261D02*
X102897952Y-122010261D01*
X104445571Y-122248357D02*
X105397952Y-122962642D01*
X103731285Y-122962642D02*
X104683666Y-122010261D01*
X105397952Y-124391214D02*
X105278904Y-124153119D01*
X105159857Y-124034071D01*
X104921761Y-123915023D01*
X104207476Y-123915023D01*
X103969380Y-124034071D01*
X103850333Y-124153119D01*
X103731285Y-124391214D01*
X103731285Y-124748357D01*
X103850333Y-124986452D01*
X103969380Y-125105500D01*
X104207476Y-125224547D01*
X104921761Y-125224547D01*
X105159857Y-125105500D01*
X105278904Y-124986452D01*
X105397952Y-124748357D01*
X105397952Y-124391214D01*
X103731285Y-125938833D02*
X103731285Y-126891214D01*
X105397952Y-126295976D02*
X103255095Y-126295976D01*
X103017000Y-126415023D01*
X102897952Y-126653119D01*
X102897952Y-126891214D01*
X103731285Y-127367404D02*
X103731285Y-128319785D01*
X105397952Y-127724547D02*
X103255095Y-127724547D01*
X103017000Y-127843595D01*
X102897952Y-128081690D01*
X102897952Y-128319785D01*
M02*
