%TF.GenerationSoftware,KiCad,Pcbnew,(5.1.10)-1*%
%TF.CreationDate,2021-06-21T22:38:47-07:00*%
%TF.ProjectId,A1050,41313035-302e-46b6-9963-61645f706362,rev?*%
%TF.SameCoordinates,Original*%
%TF.FileFunction,Soldermask,Top*%
%TF.FilePolarity,Negative*%
%FSLAX46Y46*%
G04 Gerber Fmt 4.6, Leading zero omitted, Abs format (unit mm)*
G04 Created by KiCad (PCBNEW (5.1.10)-1) date 2021-06-21 22:38:47*
%MOMM*%
%LPD*%
G01*
G04 APERTURE LIST*
%ADD10C,1.600000*%
%ADD11C,1.524000*%
%ADD12O,1.524000X1.524000*%
%ADD13C,3.500000*%
%ADD14O,1.600000X1.600000*%
%ADD15R,1.600000X1.600000*%
G04 APERTURE END LIST*
D10*
%TO.C,C9*%
X249555000Y-114998000D03*
X249555000Y-109998000D03*
%TD*%
%TO.C,C8*%
X153209000Y-95631000D03*
X148209000Y-95631000D03*
%TD*%
%TO.C,C7*%
X165464000Y-94678500D03*
X160464000Y-94678500D03*
%TD*%
%TO.C,C6*%
X178482000Y-95631000D03*
X173482000Y-95631000D03*
%TD*%
%TO.C,C5*%
X191309000Y-94361000D03*
X186309000Y-94361000D03*
%TD*%
%TO.C,C4*%
X204072000Y-95631000D03*
X199072000Y-95631000D03*
%TD*%
%TO.C,C3*%
X216709000Y-94361000D03*
X211709000Y-94361000D03*
%TD*%
%TO.C,C2*%
X229409000Y-95694500D03*
X224409000Y-95694500D03*
%TD*%
%TO.C,C1*%
X241855000Y-94361000D03*
X236855000Y-94361000D03*
%TD*%
D11*
%TO.C,J1*%
X228219000Y-132461000D03*
X232299000Y-132461000D03*
X224379000Y-132461000D03*
X220419000Y-132461000D03*
X216459000Y-132461000D03*
X196659000Y-132461000D03*
X200619000Y-132461000D03*
X204579000Y-132461000D03*
X212499000Y-132461000D03*
X208539000Y-132461000D03*
X164979000Y-132461000D03*
X172899000Y-132461000D03*
X168939000Y-132461000D03*
X161019000Y-132461000D03*
X157059000Y-132461000D03*
X176859000Y-132461000D03*
X180819000Y-132461000D03*
X184779000Y-132461000D03*
X192699000Y-132461000D03*
X188739000Y-132461000D03*
X125379000Y-132461000D03*
X133299000Y-132461000D03*
X129339000Y-132461000D03*
X121419000Y-132461000D03*
X117459000Y-132461000D03*
X137259000Y-132461000D03*
X141219000Y-132461000D03*
X145179000Y-132461000D03*
X153099000Y-132461000D03*
X149139000Y-132461000D03*
X149139000Y-137541000D03*
X153099000Y-137541000D03*
X145179000Y-137541000D03*
X168939000Y-137541000D03*
X172899000Y-137541000D03*
X164979000Y-137541000D03*
X224379000Y-137541000D03*
X208539000Y-137541000D03*
X212499000Y-137541000D03*
X220419000Y-137541000D03*
X204579000Y-137541000D03*
X141219000Y-137541000D03*
X137259000Y-137541000D03*
X117459000Y-137541000D03*
X161019000Y-137541000D03*
X121419000Y-137541000D03*
X216459000Y-137541000D03*
D12*
X200619000Y-137541000D03*
D11*
X129339000Y-137541000D03*
X188739000Y-137541000D03*
X192699000Y-137541000D03*
X180819000Y-137541000D03*
X133299000Y-137541000D03*
X196659000Y-137541000D03*
X125379000Y-137541000D03*
X232299000Y-137541000D03*
X184779000Y-137541000D03*
X176859000Y-137541000D03*
X157059000Y-137541000D03*
X228339000Y-137541000D03*
%TD*%
D13*
%TO.C,H2*%
X241173000Y-135001000D03*
%TD*%
%TO.C,H1*%
X107569000Y-135001000D03*
%TD*%
D14*
%TO.C,U8*%
X146939000Y-122301000D03*
X154559000Y-101981000D03*
X146939000Y-119761000D03*
X154559000Y-104521000D03*
X146939000Y-117221000D03*
X154559000Y-107061000D03*
X146939000Y-114681000D03*
X154559000Y-109601000D03*
X146939000Y-112141000D03*
X154559000Y-112141000D03*
X146939000Y-109601000D03*
X154559000Y-114681000D03*
X146939000Y-107061000D03*
X154559000Y-117221000D03*
X146939000Y-104521000D03*
X154559000Y-119761000D03*
X146939000Y-101981000D03*
D15*
X154559000Y-122301000D03*
%TD*%
D14*
%TO.C,U7*%
X159639000Y-122301000D03*
X167259000Y-101981000D03*
X159639000Y-119761000D03*
X167259000Y-104521000D03*
X159639000Y-117221000D03*
X167259000Y-107061000D03*
X159639000Y-114681000D03*
X167259000Y-109601000D03*
X159639000Y-112141000D03*
X167259000Y-112141000D03*
X159639000Y-109601000D03*
X167259000Y-114681000D03*
X159639000Y-107061000D03*
X167259000Y-117221000D03*
X159639000Y-104521000D03*
X167259000Y-119761000D03*
X159639000Y-101981000D03*
D15*
X167259000Y-122301000D03*
%TD*%
D14*
%TO.C,U6*%
X172339000Y-122301000D03*
X179959000Y-101981000D03*
X172339000Y-119761000D03*
X179959000Y-104521000D03*
X172339000Y-117221000D03*
X179959000Y-107061000D03*
X172339000Y-114681000D03*
X179959000Y-109601000D03*
X172339000Y-112141000D03*
X179959000Y-112141000D03*
X172339000Y-109601000D03*
X179959000Y-114681000D03*
X172339000Y-107061000D03*
X179959000Y-117221000D03*
X172339000Y-104521000D03*
X179959000Y-119761000D03*
X172339000Y-101981000D03*
D15*
X179959000Y-122301000D03*
%TD*%
D14*
%TO.C,U5*%
X185039000Y-122301000D03*
X192659000Y-101981000D03*
X185039000Y-119761000D03*
X192659000Y-104521000D03*
X185039000Y-117221000D03*
X192659000Y-107061000D03*
X185039000Y-114681000D03*
X192659000Y-109601000D03*
X185039000Y-112141000D03*
X192659000Y-112141000D03*
X185039000Y-109601000D03*
X192659000Y-114681000D03*
X185039000Y-107061000D03*
X192659000Y-117221000D03*
X185039000Y-104521000D03*
X192659000Y-119761000D03*
X185039000Y-101981000D03*
D15*
X192659000Y-122301000D03*
%TD*%
D14*
%TO.C,U4*%
X197739000Y-122301000D03*
X205359000Y-101981000D03*
X197739000Y-119761000D03*
X205359000Y-104521000D03*
X197739000Y-117221000D03*
X205359000Y-107061000D03*
X197739000Y-114681000D03*
X205359000Y-109601000D03*
X197739000Y-112141000D03*
X205359000Y-112141000D03*
X197739000Y-109601000D03*
X205359000Y-114681000D03*
X197739000Y-107061000D03*
X205359000Y-117221000D03*
X197739000Y-104521000D03*
X205359000Y-119761000D03*
X197739000Y-101981000D03*
D15*
X205359000Y-122301000D03*
%TD*%
D14*
%TO.C,U3*%
X210439000Y-122301000D03*
X218059000Y-101981000D03*
X210439000Y-119761000D03*
X218059000Y-104521000D03*
X210439000Y-117221000D03*
X218059000Y-107061000D03*
X210439000Y-114681000D03*
X218059000Y-109601000D03*
X210439000Y-112141000D03*
X218059000Y-112141000D03*
X210439000Y-109601000D03*
X218059000Y-114681000D03*
X210439000Y-107061000D03*
X218059000Y-117221000D03*
X210439000Y-104521000D03*
X218059000Y-119761000D03*
X210439000Y-101981000D03*
D15*
X218059000Y-122301000D03*
%TD*%
D14*
%TO.C,U2*%
X223139000Y-122301000D03*
X230759000Y-101981000D03*
X223139000Y-119761000D03*
X230759000Y-104521000D03*
X223139000Y-117221000D03*
X230759000Y-107061000D03*
X223139000Y-114681000D03*
X230759000Y-109601000D03*
X223139000Y-112141000D03*
X230759000Y-112141000D03*
X223139000Y-109601000D03*
X230759000Y-114681000D03*
X223139000Y-107061000D03*
X230759000Y-117221000D03*
X223139000Y-104521000D03*
X230759000Y-119761000D03*
X223139000Y-101981000D03*
D15*
X230759000Y-122301000D03*
%TD*%
D14*
%TO.C,U1*%
X235839000Y-122301000D03*
X243459000Y-101981000D03*
X235839000Y-119761000D03*
X243459000Y-104521000D03*
X235839000Y-117221000D03*
X243459000Y-107061000D03*
X235839000Y-114681000D03*
X243459000Y-109601000D03*
X235839000Y-112141000D03*
X243459000Y-112141000D03*
X235839000Y-109601000D03*
X243459000Y-114681000D03*
X235839000Y-107061000D03*
X243459000Y-117221000D03*
X235839000Y-104521000D03*
X243459000Y-119761000D03*
X235839000Y-101981000D03*
D15*
X243459000Y-122301000D03*
%TD*%
D14*
%TO.C,RN2*%
X121539000Y-119761000D03*
X129159000Y-101981000D03*
X121539000Y-117221000D03*
X129159000Y-104521000D03*
X121539000Y-114681000D03*
X129159000Y-107061000D03*
X121539000Y-112141000D03*
X129159000Y-109601000D03*
X121539000Y-109601000D03*
X129159000Y-112141000D03*
X121539000Y-107061000D03*
X129159000Y-114681000D03*
X121539000Y-104521000D03*
X129159000Y-117221000D03*
X121539000Y-101981000D03*
D15*
X129159000Y-119761000D03*
%TD*%
D14*
%TO.C,RN1*%
X134239000Y-119761000D03*
X141859000Y-101981000D03*
X134239000Y-117221000D03*
X141859000Y-104521000D03*
X134239000Y-114681000D03*
X141859000Y-107061000D03*
X134239000Y-112141000D03*
X141859000Y-109601000D03*
X134239000Y-109601000D03*
X141859000Y-112141000D03*
X134239000Y-107061000D03*
X141859000Y-114681000D03*
X134239000Y-104521000D03*
X141859000Y-117221000D03*
X134239000Y-101981000D03*
D15*
X141859000Y-119761000D03*
%TD*%
M02*
