M48
; DRILL file {KiCad (5.1.10)-1} date 06/21/21 22:38:53
; FORMAT={-:-/ absolute / inch / decimal}
; #@! TF.CreationDate,2021-06-21T22:38:53-07:00
; #@! TF.GenerationSoftware,Kicad,Pcbnew,(5.1.10)-1
; #@! TF.FileFunction,Plated,1,2,PTH
FMAT,2
INCH
T1C0.0157
T2C0.0315
T3C0.0409
%
G90
G05
T1
X5.2999Y-4.7951
X5.9737Y-4.5256
X6.7114Y-4.515
X6.7255Y-4.6294
X6.8673Y-4.4099
X7.1445Y-4.4859
X7.1716Y-5.2395
X7.2179Y-4.4962
X7.9601Y-5.3617
T2
X4.785Y-4.015
X4.785Y-4.115
X4.785Y-4.215
X4.785Y-4.315
X4.785Y-4.415
X4.785Y-4.515
X4.785Y-4.615
X4.785Y-4.715
X5.085Y-4.015
X5.085Y-4.115
X5.085Y-4.215
X5.085Y-4.315
X5.085Y-4.415
X5.085Y-4.515
X5.085Y-4.615
X5.085Y-4.715
X5.285Y-4.015
X5.285Y-4.115
X5.285Y-4.215
X5.285Y-4.315
X5.285Y-4.415
X5.285Y-4.515
X5.285Y-4.615
X5.285Y-4.715
X5.585Y-4.015
X5.585Y-4.115
X5.585Y-4.215
X5.585Y-4.315
X5.585Y-4.415
X5.585Y-4.515
X5.585Y-4.615
X5.585Y-4.715
X5.785Y-4.015
X5.785Y-4.115
X5.785Y-4.215
X5.785Y-4.315
X5.785Y-4.415
X5.785Y-4.515
X5.785Y-4.615
X5.785Y-4.715
X5.785Y-4.815
X5.835Y-3.765
X6.0319Y-3.765
X6.085Y-4.015
X6.085Y-4.115
X6.085Y-4.215
X6.085Y-4.315
X6.085Y-4.415
X6.085Y-4.515
X6.085Y-4.615
X6.085Y-4.715
X6.085Y-4.815
X6.285Y-4.015
X6.285Y-4.115
X6.285Y-4.215
X6.285Y-4.315
X6.285Y-4.415
X6.285Y-4.515
X6.285Y-4.615
X6.285Y-4.715
X6.285Y-4.815
X6.3175Y-3.7275
X6.5143Y-3.7275
X6.585Y-4.015
X6.585Y-4.115
X6.585Y-4.215
X6.585Y-4.315
X6.585Y-4.415
X6.585Y-4.515
X6.585Y-4.615
X6.585Y-4.715
X6.585Y-4.815
X6.785Y-4.015
X6.785Y-4.115
X6.785Y-4.215
X6.785Y-4.315
X6.785Y-4.415
X6.785Y-4.515
X6.785Y-4.615
X6.785Y-4.715
X6.785Y-4.815
X6.83Y-3.765
X7.0269Y-3.765
X7.085Y-4.015
X7.085Y-4.115
X7.085Y-4.215
X7.085Y-4.315
X7.085Y-4.415
X7.085Y-4.515
X7.085Y-4.615
X7.085Y-4.715
X7.085Y-4.815
X7.285Y-4.015
X7.285Y-4.115
X7.285Y-4.215
X7.285Y-4.315
X7.285Y-4.415
X7.285Y-4.515
X7.285Y-4.615
X7.285Y-4.715
X7.285Y-4.815
X7.335Y-3.715
X7.5319Y-3.715
X7.585Y-4.015
X7.585Y-4.115
X7.585Y-4.215
X7.585Y-4.315
X7.585Y-4.415
X7.585Y-4.515
X7.585Y-4.615
X7.585Y-4.715
X7.585Y-4.815
X7.785Y-4.015
X7.785Y-4.115
X7.785Y-4.215
X7.785Y-4.315
X7.785Y-4.415
X7.785Y-4.515
X7.785Y-4.615
X7.785Y-4.715
X7.785Y-4.815
X7.8375Y-3.765
X8.0343Y-3.765
X8.085Y-4.015
X8.085Y-4.115
X8.085Y-4.215
X8.085Y-4.315
X8.085Y-4.415
X8.085Y-4.515
X8.085Y-4.615
X8.085Y-4.715
X8.085Y-4.815
X8.285Y-4.015
X8.285Y-4.115
X8.285Y-4.215
X8.285Y-4.315
X8.285Y-4.415
X8.285Y-4.515
X8.285Y-4.615
X8.285Y-4.715
X8.285Y-4.815
X8.335Y-3.715
X8.5319Y-3.715
X8.585Y-4.015
X8.585Y-4.115
X8.585Y-4.215
X8.585Y-4.315
X8.585Y-4.415
X8.585Y-4.515
X8.585Y-4.615
X8.585Y-4.715
X8.585Y-4.815
X8.785Y-4.015
X8.785Y-4.115
X8.785Y-4.215
X8.785Y-4.315
X8.785Y-4.415
X8.785Y-4.515
X8.785Y-4.615
X8.785Y-4.715
X8.785Y-4.815
X8.835Y-3.7675
X9.0319Y-3.7675
X9.085Y-4.015
X9.085Y-4.115
X9.085Y-4.215
X9.085Y-4.315
X9.085Y-4.415
X9.085Y-4.515
X9.085Y-4.615
X9.085Y-4.715
X9.085Y-4.815
X9.285Y-4.015
X9.285Y-4.115
X9.285Y-4.215
X9.285Y-4.315
X9.285Y-4.415
X9.285Y-4.515
X9.285Y-4.615
X9.285Y-4.715
X9.285Y-4.815
X9.325Y-3.715
X9.5219Y-3.715
X9.585Y-4.015
X9.585Y-4.115
X9.585Y-4.215
X9.585Y-4.315
X9.585Y-4.415
X9.585Y-4.515
X9.585Y-4.615
X9.585Y-4.715
X9.585Y-4.815
X9.825Y-4.3306
X9.825Y-4.5275
T3
X4.6244Y-5.215
X4.6244Y-5.415
X4.7803Y-5.215
X4.7803Y-5.415
X4.9362Y-5.215
X4.9362Y-5.415
X5.0921Y-5.215
X5.0921Y-5.415
X5.248Y-5.215
X5.248Y-5.415
X5.4039Y-5.215
X5.4039Y-5.415
X5.5598Y-5.215
X5.5598Y-5.415
X5.7157Y-5.215
X5.7157Y-5.415
X5.8716Y-5.215
X5.8716Y-5.415
X6.0275Y-5.215
X6.0275Y-5.415
X6.1834Y-5.215
X6.1834Y-5.415
X6.3393Y-5.215
X6.3393Y-5.415
X6.4952Y-5.215
X6.4952Y-5.415
X6.6511Y-5.215
X6.6511Y-5.415
X6.807Y-5.215
X6.807Y-5.415
X6.963Y-5.215
X6.963Y-5.415
X7.1189Y-5.215
X7.1189Y-5.415
X7.2748Y-5.215
X7.2748Y-5.415
X7.4307Y-5.215
X7.4307Y-5.415
X7.5866Y-5.215
X7.5866Y-5.415
X7.7425Y-5.215
X7.7425Y-5.415
X7.8984Y-5.215
X7.8984Y-5.415
X8.0543Y-5.215
X8.0543Y-5.415
X8.2102Y-5.215
X8.2102Y-5.415
X8.3661Y-5.215
X8.3661Y-5.415
X8.522Y-5.215
X8.522Y-5.415
X8.6779Y-5.215
X8.6779Y-5.415
X8.8338Y-5.215
X8.8338Y-5.415
X8.985Y-5.215
X8.9897Y-5.415
X9.1456Y-5.215
X9.1456Y-5.415
T0
M30
